<svg width="280" height="306" viewBox="0 0 280 306" fill="none" xmlns="http://www.w3.org/2000/svg">
  <path d="M199.148 52.2833C200.555 59.1231 193.887 60.0556 188.666 58.7108C185.978 58.021 183.988 56.2099 181.55 55.0462C172.364 61.1038 162.414 55.0501 154.721 49.5127C152.503 47.9174 150 46.3529 148.805 43.7942C138.265 43.7056 127.358 42.538 117.004 45.0813C113.344 45.9791 109.965 47.9443 106.294 48.8229C120.386 58.1097 132.68 70.93 147.509 79.0453C160.108 85.9391 173.031 87.6153 178.056 103.191C178.373 104.17 178.592 106.405 178.924 106.944C179.391 107.703 182.607 108.736 184.188 111.691C187.713 118.277 187.428 131.594 185.249 138.685C184.046 142.604 182.156 146.638 177.563 146.989C179.148 154.403 176.113 161.801 173.012 168.418C166.047 183.269 153.625 194.513 145.523 208.705C140.451 217.587 136.973 227.202 133.61 236.835C131.493 238.534 131.057 236.735 131.523 234.75C133.155 227.837 139.626 214.381 143.213 207.934C152.356 191.503 167.154 178.984 173.328 160.846C172.97 160.549 166.117 160.549 164.462 159.886C162.075 158.934 160.455 153.251 161.385 150.834C158.635 151.559 156.464 153.401 154.25 155.05C154.084 155.331 155.079 158.753 155.311 159.408C155.777 160.719 157.374 164.961 157.925 165.936C158.211 166.441 158.92 166.449 159.252 167.011C159.476 167.389 160.706 175.169 160.636 175.654C160.444 176.972 158.442 177.516 157.999 175.97C157.663 174.799 157.574 168.934 157.146 168.541C155.507 168.579 150.467 171.408 149.873 169.046C149.279 166.684 154.69 167.254 154.871 166.375L151.774 157.158C151.115 156.699 149.846 157.397 148.92 157.358C144.875 157.185 142.38 152.915 138.816 152.407C135.935 151.994 133.047 152.804 130.393 152.773C125.924 152.719 117.906 149.073 114.184 151.979C107.675 157.062 115.206 172.375 115.881 178.791C117.277 192.085 109.668 206.929 104.57 218.978C103.911 220.539 103.656 224.365 101.489 223.992C100.112 223.757 100.505 222.674 100.69 221.649C103.139 208.173 114.701 195.6 113.633 181.038C112.981 172.132 102.758 153.782 114.516 149.228C119.873 147.151 123.444 149.686 128.438 150.079C132.291 150.38 136.764 148.846 139.919 149.389C144.123 150.11 144.979 155.104 150.008 154.279C152.68 153.84 162.9 143.879 164.616 150.149C165.091 151.879 162.908 155.351 164.96 157.277C165.904 158.168 172.542 157.859 174.269 158.557C175.334 158.414 175.372 148.969 175.172 147.655C174.759 144.966 173.313 145.239 171.782 143.725C168.411 140.396 167.655 135.371 165.823 131.201C162.41 137.787 153.552 142.137 146.448 143.405C136.556 145.17 123.51 145.193 119.487 133.999C115.881 123.972 124.296 119.448 125.773 110.813C126.707 105.345 122.314 100.651 118.635 97.1255C110.12 88.964 99.5142 83.0297 90.3125 75.7622C89.5219 74.0705 90.9218 73.3731 92.4182 74.0474C101.52 81.4845 127.667 95.8077 128.646 108.3C129.414 118.142 115.53 126.431 123.83 136.596C131.701 146.234 154.389 141.197 161.793 132.558C167.27 126.165 164.624 123.152 166.518 116.107C167.779 111.426 171.053 106.69 176.421 106.948C175.176 98.2083 168.781 92.3165 161.404 88.2704C151.986 83.1068 144.643 80.1782 135.461 73.77C124.624 66.2134 114.319 57.8168 103.355 50.4221C91.1532 55.9787 79.8304 60.414 66.0896 58.7763C53.8875 57.3197 43.552 50.5416 31.9438 47.085C21.4579 43.9638 10.5323 42.4686 0.0078125 39.54V38.28C0.351044 37.3359 1.59671 37.6557 2.36801 37.7482C7.1964 38.3416 15.3684 40.4957 20.3896 41.6903C24.6434 42.7037 29.0051 43.8058 33.1817 45.0774C51.7625 50.7265 60.3819 59.6857 81.6584 55.5664C96.8108 52.634 109.935 42.0525 125.357 41.1007C136.09 40.4379 149.992 44.3799 158.666 37.043C163.995 32.5345 159.618 30.4113 155.056 28.7851C136.005 21.9877 120.482 28.9123 101.824 30.6772C99.6222 30.8853 90.3858 31.7099 89.1285 30.7581C88.0603 29.9527 88.7467 28.5231 89.9384 28.4152C90.5824 28.3574 91.6661 28.8083 92.611 28.8198C115.206 29.1165 137.173 17.5833 159.846 27.4673C171.007 32.3303 192.353 49.2006 202.437 49.9674C210.621 50.5878 204.605 44.3337 201.859 41.6941C186.032 26.4615 156.872 10.2772 135.793 4.15024C111.55 -2.89381 83.0776 14.0844 57.5821 15.3444C39.626 16.2307 21.7047 10.466 4.36956 6.88617C3.83735 5.34865 4.35799 4.85927 5.87746 4.95946C12.0903 5.36792 21.8127 8.52387 28.3996 9.81862C41.9438 12.4775 52.395 14.1614 66.3595 12.1846C87.6283 9.17124 112.002 -3.55275 133.197 0.963462C153.61 5.31012 179.244 20.508 195.642 33.2705C198.963 35.8523 208.041 42.7692 209.059 46.4222C211.057 53.5973 203.995 52.4991 199.152 52.2872L199.148 52.2833ZM160.235 38.4264C160.243 38.8541 160.598 38.9505 160.914 39.0892C169.059 42.6613 184.481 55.5279 190.964 56.4142C195.897 57.0885 198.924 54.9267 194.265 51.1889C190.004 47.7671 182.696 43.0929 177.925 40.1836C173.529 37.5016 168.754 35.5556 164.273 33.0355C163.116 32.8428 164.138 34.0451 164.08 34.7387C163.953 36.3109 161.628 37.8754 160.235 38.4225V38.4264ZM178.342 53.817C178.508 53.1079 178.103 53.0694 177.702 52.7264C175.318 50.6726 170.266 47.4819 167.447 45.6516C164.431 43.694 161.404 41.5746 157.802 40.8348L151.759 43.6247C151.589 44.3722 156.633 47.586 157.57 48.2064C161.138 50.5685 168.623 55.1657 172.765 54.9923C174.593 54.9152 176.552 54.1753 178.342 53.817ZM176.344 109.345C168.515 109.78 167.47 121.202 167.948 127.151C168.323 131.818 171.319 142.503 176.703 143.424C180.771 144.122 181.342 141.987 182.476 138.596C184.748 131.787 185.048 125.514 183.564 118.481C182.796 114.84 181.034 109.083 176.348 109.341L176.344 109.345Z" fill="white" />
  <path d="M187.546 258.661C188.144 259.085 188.079 261.085 186.922 261.231C169.884 266.51 153.497 274.209 135.379 275.173C130.35 275.439 130.508 274.425 126.737 272.653C116.224 267.716 105.53 262.722 95.3907 257.008C90.2576 254.114 87.1994 250.688 80.6703 250.16C76.243 249.802 71.295 251.131 75.0976 256.11C77.6622 259.47 96.941 270.622 101.8 273.315C118.819 282.76 136.031 287.427 155.155 290.837C164.234 292.455 169.286 292.536 177.836 288.714C193.266 281.816 207.867 270.552 223.813 264.206C239.301 258.044 258.599 256.815 275.244 255.925C277.431 255.809 281.526 254.985 279.417 258.248C265.715 259.335 251.388 259.397 237.982 262.58C226.343 265.343 215.074 270.996 204.535 276.51C194.569 281.724 179.509 292.455 168.862 293.989C162.259 294.941 156.193 293.288 149.76 291.989C138.086 289.631 126.123 286.733 115.005 282.513C110.3 289.477 108.291 297.823 105.344 305.592C103.1 306.786 103.015 305.106 103.389 303.253C104.16 299.426 107.635 290.162 109.374 286.521C110.246 284.694 111.515 283.111 112.464 281.334C108.819 279.939 105.233 278.24 101.8 276.39C95.4369 272.953 76.9487 262.449 72.7875 257.643C67.6313 251.69 73.4547 247.054 79.7138 247.447C76.8561 243.105 84.6464 239.001 88.3872 239.367C91.4493 239.663 97.3189 243.575 99.1701 243.575C100.431 243.575 103.744 241.089 106.598 241.012C111.596 240.877 127.296 249.347 131.16 252.831C132.302 253.859 133.138 255.12 134.222 256.187C144.569 252.307 157.527 251.097 167.142 245.686C181.515 237.602 190.481 227.009 207.932 222.924C222.051 219.618 230.034 224.458 243.246 225.14C253.59 225.676 263.809 224.15 274.029 223.256L274.689 224.161L274.284 225.317C263.563 227.186 252.622 227.641 241.731 227.425C229.101 225.417 219.625 222.219 206.775 225.614C191.523 229.641 183.763 238.099 171.38 246.068C158.376 254.434 136.158 254.16 126.127 264.372C125.526 264.984 124.669 265.766 124.951 266.707C124.993 266.845 126.089 269.242 126.17 269.366C127.126 270.803 131.634 272.861 133.466 272.888C141.966 273.015 154.589 269.755 162.749 267.088C170.088 264.691 178.734 260.46 186.039 258.784C186.451 258.688 187.238 258.426 187.55 258.645L187.546 258.661ZM124.403 262.48C113.871 259.3 97.3228 241.236 86.4435 242.446C84.6386 242.646 82.7875 244.002 81.6498 245.343C81.646 246.985 94.3995 252.38 96.5399 253.555C100.227 255.578 103.559 258.141 107.196 260.233C111.739 262.842 116.548 264.953 121.137 267.477C121.38 265.15 123.821 264.456 124.407 262.483L124.403 262.48ZM102.059 245.155C106.366 248.16 110.501 251.578 114.878 254.476C116.914 255.821 124.423 260.638 126.463 260.449C127.242 260.379 131.179 257.967 131.307 257.223C131.334 256.595 130.744 256.31 130.362 255.94C126.76 252.476 112.062 244.064 107.253 243.964C105.491 243.929 103.694 244.611 102.055 245.155H102.059Z" fill="white" />
  <path d="M21.0029 69.2499C22.2177 68.853 22.6997 70.036 23.5752 70.456C38.6079 77.6581 53.4865 83.5615 67.7364 92.5438C76.1976 97.877 98.5925 112.678 101.859 121.583C109.445 142.284 95.0985 158.418 85.3337 174.733C64.5856 209.391 57.2774 237.201 51.2574 276.965C50.1891 284.028 49.8343 291.469 48.4961 298.459C48.1182 300.424 45.8235 300.154 45.8274 298.143C49.2288 278.032 51.2227 257.678 56.0125 237.829C60.5169 219.171 67.6477 201.145 76.8147 184.317C83.876 171.358 99.9924 151.57 101.238 137.502C102.326 125.221 98.9666 119.125 89.9115 111.576C73.1008 97.561 50.5362 84.7252 30.5362 75.8161C28.0449 74.7063 23.3322 73.6235 21.4039 72.2363C20.3472 71.4772 19.7263 69.6622 21.0067 69.2422L21.0029 69.2499Z" fill="white" />
  <path d="M205.701 144.291L210.645 158.033L209.357 159.146C204.551 157.2 198.705 156.302 194.031 154.21C191.717 153.174 191.821 151.262 193.796 151.416C195.573 151.555 206.102 156.222 206.85 155.451C206.522 152.985 201.601 143.49 201.917 141.837C201.983 141.49 202.346 141.209 202.623 140.997L228.173 144.731C229.407 145.116 228.832 147.266 227.494 147.328L205.701 144.284V144.291Z" fill="white" />
  <path d="M185.665 189.33C185.542 190.108 185.877 190.617 186.263 191.234C188.292 194.478 192.04 198.713 194.535 201.831C195.885 203.518 201.365 208.154 196.143 207.722L181.485 188.683C181.388 187.646 182.958 187.346 183.718 187.188C186.888 186.525 190.536 186.586 193.756 185.858C191.057 181.993 186.575 178.436 183.968 174.664C183.266 173.647 182.719 172.992 182.969 171.62L184.62 171.701C188.843 176.452 193.398 181.257 197.096 186.44C197.096 186.856 196.452 187.793 196.066 187.981C194.134 188.925 188.025 189.068 185.669 189.33H185.665Z" fill="white" />
  <path d="M203.906 107.194C202.676 105.811 201.164 103.487 202.043 101.561L216.463 87.1027L217.817 86.5439C220.655 87.3878 214.673 92.301 213.972 93.0793C210.805 96.5975 207.759 100.227 204.565 103.722C204.419 104.563 211.125 110.185 212.032 111.587C212.552 112.389 212.788 112.732 212.205 113.626L198.48 123.433C196.945 123.845 196.293 122.573 197.192 121.352L209.54 112.524C209.552 112.054 204.569 107.938 203.906 107.191V107.194Z" fill="white" />
</svg>