<svg width="281" height="259" viewBox="0 0 281 259" fill="none" xmlns="http://www.w3.org/2000/svg">
  <g clip-path="url(#clip0_484_3469)">
    <path d="M154.755 114.966C151.568 100.845 140.021 93.9589 125.898 96.3395C124.063 96.6492 120.045 98.4319 118.941 98.3707C118.444 98.3455 118.135 98.0682 117.876 97.6792V96.2386C118.588 94.7944 126.204 93.4943 127.963 93.3646C144.018 92.1689 154.011 100.276 157.989 115.514C171.994 117.379 185.466 121.218 198.92 125.317C205.089 127.197 211.158 129.567 217.352 131.353C235.144 136.485 247.415 136.024 259.941 151.741C266.783 160.323 278.942 183.477 280.564 194.119C281.834 202.46 280.172 224.916 277.431 232.922C274.179 242.415 259.98 258.255 249.501 258.978C242.192 259.483 241.213 251.037 245.771 246.784C243.019 247.922 239.994 249.762 236.954 250.018C229.392 250.655 230.482 243.91 234.072 239.574C241.785 230.257 258.786 225.171 248.728 210.142C244.177 203.343 237.709 198.027 233.475 190.478C229.356 183.139 228.101 171.657 220.694 167.26C210.222 161.04 180.232 162.077 167.508 162.128C147.327 162.207 115.052 165.837 97.3173 156.084C84.554 149.065 74.7694 131.656 66.0531 120.037C50.189 98.8929 33.922 78.0872 17.3312 57.5156C12.4137 51.4183 6.97813 45.429 2.24408 39.1444C0.999411 37.4914 -2.10147 33.7602 2.22969 34.4769C20.0543 56.4495 38.1848 78.3537 55.2576 100.957C65.2941 114.25 74.7838 129.041 85.3455 141.783C94.7488 153.131 104.969 158.829 120.052 159.617C140.489 160.687 156.756 142.478 155.86 122.328C155.817 121.381 155.554 117.739 154.892 117.531C144.741 115.91 130.805 116.31 122.416 109.708C116.113 104.745 112.203 97.7332 108.422 90.9445C91.1263 59.9177 69.2511 31.088 47.9694 2.73355C46.6996 -0.997581 49.1242 -0.471766 51.1423 1.71433C56.2468 7.23899 62.4702 17.0962 67.1323 23.5213C81.0143 42.6631 93.8711 61.7689 106.343 81.8651C112.304 91.4703 119.041 107.4 130.373 111.109C137.924 113.58 146.913 113.724 154.755 114.966ZM246.235 254.963C248.883 258.186 255.66 254.423 258.261 252.625C276.139 240.294 278.046 223.821 278.517 203.397C278.827 189.945 271.01 175.932 264.66 164.299C250.66 138.653 239.181 140.508 213.751 133.154C207.172 131.252 200.783 128.753 194.24 126.758C182.383 123.138 170.307 119.886 157.989 118.215C159.058 122.119 158.835 126.25 158.299 130.226C157.453 136.481 154.36 144.884 149.953 149.061C145.136 153.628 134.88 159.484 134.611 159.985L192.002 159.61C203.039 160.59 222.906 160.176 228.813 171.736C231.482 176.958 232.407 183.38 235.274 188.678C239.638 196.752 253.843 209.519 254.721 217.468C256.059 229.576 235.396 236.7 234.274 244.468C233.421 250.367 243.091 245.394 245.379 244.054C260.063 235.454 267.628 224.916 262.049 207.614C261.466 205.81 258.383 199.18 258.757 198.041C259.052 197.148 260.063 197.346 260.721 197.782C263.027 199.309 266.315 212.606 266.585 215.678C268.107 232.922 256.977 235.544 248.706 247.025C247.429 248.797 244.569 252.939 246.235 254.966V254.963Z" fill="white" />
    <path d="M180.541 10.221C181.868 10.4479 181.868 11.6976 181.656 12.7781C181.249 14.8669 178.109 20.3916 176.85 22.3796C173.756 27.256 169.842 30.1444 166.083 34.2897C164.443 36.1012 163.202 38.3197 161.237 39.8755C166.061 43.1097 178.501 40.3041 176.17 49.4303C175.227 53.1182 166.871 61.5168 164.173 65.1507C162.795 67.0054 156.978 76.6214 155.856 76.9995C153.737 77.709 153.755 76.0848 154.453 74.5037C155.618 71.8638 160.234 65.6909 162.166 63.1411C165.223 59.1038 169.378 55.261 172.17 51.1878C177.145 43.9236 169.533 45.022 164.464 43.8408C158.342 42.411 155.921 41.4926 160.687 35.7302C165.453 29.9679 171.209 26.6149 175.087 19.5344C176.098 17.6905 178.695 10.3795 180.537 10.2174L180.541 10.221Z" fill="white" />
    <path d="M102.13 208.349C104.231 210.935 100.065 216.283 98.5723 218.444C94.0757 224.952 89.9927 228.233 87.6689 236.339C87.1329 238.205 86.1112 245.34 84.9637 245.901C82.5067 247.112 83.4708 241.256 83.6291 240.218C85.5644 227.689 91.9605 223.327 98.4284 213.974C99.0687 213.049 100.594 211.201 99.7558 210.196C97.9608 208.036 83.514 213.114 87.3019 204.632C90.2122 198.113 96.0758 190.129 99.7846 183.636C100.443 182.487 104.091 175.118 104.58 175.118L106.055 177.092C101.439 187.305 94.7628 196.504 89.2877 206.278C89.3308 208.439 96.6549 207.005 98.4572 207.171C99.3889 207.258 101.569 207.654 102.134 208.349H102.13Z" fill="white" />
    <path d="M168.461 91.5242C167.486 90.0944 171.418 88.254 172.367 87.7606C175.274 86.2588 190.807 80.9214 191.653 79.3224C192.358 77.9826 188.034 76.895 187.08 76.3043C181.443 72.8217 185.257 69.6884 189.555 67.8733C194.969 65.5899 201.29 64.5779 206.905 62.1937C209.556 61.0665 215.571 57.0472 217.899 57.3209C218.298 57.3678 218.697 57.3317 218.992 57.6775C219.226 58.0016 219.23 58.5382 219.104 58.9128C218.78 59.8996 206.146 65.2874 204.222 65.9933C200.052 67.5239 195.351 68.4099 191.35 70.0342C181.282 74.1218 191.94 74.1939 193.908 77.3848C194.646 78.584 194.836 79.7653 193.969 80.943C192.091 83.4929 179.943 87.3608 176.346 88.8663C174.799 89.5145 171.724 91.4881 170.58 91.7618C170.044 91.8915 168.705 91.8843 168.454 91.5205L168.461 91.5242Z" fill="white" />
    <path d="M137.884 72.4364C136.212 71.3164 140.179 57.0905 139.129 53.7268C137.884 49.7471 130.478 53.5179 130.28 47.7915C130.183 44.95 133.154 39.1228 133.787 35.8094C134.391 32.6473 134.334 29.3988 134.269 26.1791C134.23 24.2343 132.988 22.095 135.197 20.6328C136.715 21.0038 136.935 22.7505 137.086 24.0794C138.147 33.4505 136.043 36.7746 133.521 44.9103C131.816 50.4062 134.197 48.483 137.935 49.5202C142.219 50.7087 142.392 54.3642 142.118 58.2034C142 59.9033 140.108 71.4856 139.478 72.1267C139.129 72.4796 138.23 72.6741 137.881 72.4436L137.884 72.4364Z" fill="white" />
    <path d="M85.8633 166.543L87.421 167.775C88.2267 171.902 74.1469 182.217 70.9021 184.619C66.0817 188.188 60.5563 191.361 56.0237 195.294C52.6314 198.236 49.8507 201.863 46.6815 205.025C45.2965 205.799 44.1454 205.525 44.3252 203.779C44.5662 201.441 53.9588 193.694 56.2287 191.901C66.4163 183.855 78.7622 177.852 85.8633 166.547V166.543Z" fill="white" />
  </g>
  <defs>
    <clipPath id="clip0_484_3469">
      <rect width="281" height="259" fill="white" />
    </clipPath>
  </defs>
</svg>