<svg width="223" height="277" viewBox="0 0 223 277" fill="none" xmlns="http://www.w3.org/2000/svg">
  <g clip-path="url(#clip0_484_3460)">
    <path d="M213.996 266.949C214.25 268.186 212.951 268.753 211.982 269.108C203.493 268.644 194.307 269.758 185.879 269.141C185.201 269.09 184.558 268.992 183.934 268.727L183.981 267.584L195.504 249.906C194.161 248.926 170.353 254.723 168.295 253.362C167.83 253.053 167.921 252.52 168.095 252.062L173.75 237.938C164.426 240.965 155.215 244.359 146.007 247.717C133.743 252.189 121.36 257.362 109.038 261.511C107.996 261.863 105.84 262.789 104.951 262.894C103.561 263.057 103.304 261.642 104.36 260.818C105.717 259.758 112.776 257.362 114.925 256.516C134.683 248.744 154.859 241.836 174.879 234.805C180.09 218.717 185.473 202.386 187.483 185.481C190.674 158.71 185.687 133.384 176.661 108.279C176.04 106.558 173.499 98.9424 172.686 98.1075C171.873 97.2726 167.021 97.5122 165.576 97.5703C154.38 98.0422 141.8 101.251 134.6 110.468C130.858 115.256 129.617 124.087 124.416 127.481C118.522 131.325 108.777 127.594 104.657 135.645C103.166 138.56 103.383 144.843 104.922 147.747C108.145 153.828 116.025 156.681 122.572 155.015C129.878 153.152 129.359 144.15 127.254 138.466C126.321 135.95 123.236 133.151 124.985 130.589C126.303 130.331 128.738 136.469 129.159 137.649C130.959 142.698 131.983 147.874 128.981 152.721C123.563 161.469 109.368 157.944 104.196 150.651C100.77 145.824 100.386 136.32 104.487 131.848C110.776 124.991 121.24 129.834 125.599 123.227C129.261 117.669 130.179 111.324 135.311 106.467C145.063 97.2399 158.913 94.8006 171.935 95.7734L166.618 83.7945C159.033 83.8054 151.393 83.8381 143.84 84.535C128.804 85.9217 114.003 90.0308 98.8938 90.7132C74.8673 91.8022 52.3761 84.5641 28.5347 83.4497C24.6476 83.2682 20.5283 83.8707 16.7573 83.0794C11.4149 98.6593 6.59507 114.522 4.17427 130.883C-2.27877 174.497 7.53508 203.704 17.3017 244.817C19.8024 255.344 21.8494 265.983 24.3972 276.503C23.7511 277.254 22.5752 277.098 22.0272 276.354C18.9676 263.627 16.2964 250.748 13.2441 237.996C8.87069 219.723 3.32137 201.711 1.20544 182.947C-2.92843 146.27 3.83674 109.026 17.6683 75.1189C23.7475 60.2214 33.1186 46.3368 32.3564 29.5808C32.0552 22.9524 30.7377 14.589 29.6997 7.94248C29.3477 5.69189 28.4076 3.32878 28.5202 1.11812C30.5308 -1.78949 31.8011 7.57585 31.9209 8.26192C33.6085 17.9794 35.4958 33.091 33.3255 42.5471C30.2623 55.9163 21.8421 68.2872 17.4759 81.268C29.1517 81.3007 40.8492 82.3207 52.4124 83.8635C66.9008 85.7946 81.2442 89.3193 95.9903 88.9019C112.754 88.43 129.003 83.642 145.651 82.3643C152.344 81.8488 159.058 82.0194 165.769 81.9977C161.424 72.6759 156.427 63.4412 153.984 53.3535C150.892 40.5651 153.447 14.2187 157.603 1.48475C158.416 -1.00905 159.936 -0.0325845 159.962 1.99294C156.231 17.9177 151.825 37.9987 156.165 54.0759C159.439 66.2073 166.281 77.2424 171.275 88.6478C179.484 107.404 186.409 129.006 189.28 149.334C193.414 178.588 186.841 206.535 177.379 233.952C186.732 230.939 196.038 226.609 205.376 223.701C207.002 223.193 208.632 222.558 210.37 222.71L210.33 224.852L176.007 237.303L170.483 251.358L196.789 247.358L198.734 247.768L198.43 249.394L186.801 266.956H213.996V266.949Z" fill="white" />
    <path d="M93.9793 169.034V175.016C93.9793 175.382 94.7451 177.158 95.0572 177.564C96.3856 179.314 104.334 183.67 106.664 184.813C116.895 189.83 127.769 191.489 139.085 189.674L139.615 191.304C139.499 191.801 138.407 192.07 137.942 192.149C136.762 192.353 134.567 192.527 133.314 192.596C124.049 193.108 114.235 190.839 105.945 186.799C106.584 199.743 108.653 212.586 110.714 225.36C112.021 233.451 115.055 244.069 115.382 251.91C115.447 253.529 114.311 254.12 113.284 253.071C112.776 252.552 112.888 249.387 112.729 248.363C109.502 227.607 104.664 207.032 103.71 185.946L93.2534 179.179L91.7944 202.567C88.5969 226.195 86.4628 250.062 82.6883 273.602C82.5395 274.521 82.387 276.427 81.4107 276.684L80.3691 276.379L80.1913 274.75C84.4848 244.131 89.3591 213.57 90.7128 182.624C90.7419 181.945 91.1411 181.325 91.0721 180.631L81.6539 186.984C73.1067 191.677 61.4237 193.398 51.7369 192.592C51.1054 192.541 49.3923 192.331 48.8951 192.171C48.0821 191.906 48.0313 190.636 48.6302 190.222C49.3742 189.71 59.1154 190.552 61.1733 190.44C67.8151 190.069 77.2841 187.459 82.9205 183.906C86.2414 181.815 88.9453 178.744 92.484 176.951C91.8779 174.235 91.6347 171.782 92.1609 169.03H93.972L93.9793 169.034Z" fill="white" />
    <path d="M155.251 141.475C156.891 142.963 154.989 149.983 154.427 152.067C147.386 178.196 124.43 182.795 105.027 165.055C101.743 162.049 97.9427 154.993 94.6001 153.363C87.9837 150.136 84.3797 159.61 81.2803 163.407C71.1652 175.796 50.9495 180.965 38.7221 168.638C34.1564 164.031 29.1841 153.174 28.7014 146.749C28.647 146.005 28.6325 141.362 29.979 143.297C30.3855 143.878 31.0206 147.98 31.3545 149.174C35.4956 163.89 42.8233 175.146 60.0339 173.35C65.957 172.733 74.3917 167.785 78.3985 163.433C82.761 158.695 86.728 147.479 95.2098 151.312C99.2058 153.116 103.405 160.619 107.205 163.977C125.33 180 145.724 175.629 152.253 151.715C153.044 148.822 153.265 146.009 153.893 143.203C153.959 142.916 154.608 140.901 155.251 141.486V141.475Z" fill="white" />
    <path d="M61.344 130.24C61.6162 130.614 59.2426 133.14 58.8724 133.743C52.7823 143.66 53.8167 158.921 68.9585 155.069C77.767 152.829 83.015 144.851 79.7595 135.936C76.983 128.334 68.414 130.752 61.9247 129.841C57.3698 129.202 56.0016 123.154 53.8856 119.749C44.2279 104.202 33.2853 99.8789 15.1057 100.119C13.7483 100.137 11.7993 101.24 12.2022 98.6738C12.8555 97.6211 20.1215 97.8534 21.664 97.9442C37.5571 98.8771 47.9915 105.683 56.0669 119.023C58.0667 122.33 58.6728 127.075 63.0172 127.666C69.4412 128.541 78.3585 126.265 81.3637 133.975C84.9822 143.257 82.3436 150.887 73.6875 155.447C59.1991 163.077 49.2183 152.201 54.6478 137.493C55.1305 136.182 57.6675 130.926 58.4333 130.04C59.464 128.846 60.2588 129.935 61.3476 130.244L61.344 130.24Z" fill="white" />
    <path d="M214.725 73.2966L220.688 65.67L222.34 64.7589L223 65.8007C222.757 66.4795 222.354 67.0821 221.984 67.6919C220.743 69.7211 216.471 75.8231 214.917 77.3041C214.587 77.6199 214.344 78.0192 213.814 78.0301C213.223 78.0301 212.42 77.0137 211.999 76.5709C210.856 75.3693 203.187 66.5775 203.151 65.8806C203.129 65.4595 203.692 63.8768 204.026 63.8804L212.544 73.3002C212.479 70.4616 212.638 67.6012 212.562 64.7625C212.228 52.5368 212.036 40.4017 212.562 28.1651C212.613 26.9745 212.076 19.6492 213.455 19.6346C214.482 20.4115 214.627 21.5005 214.74 22.6947C215.868 34.6991 214.17 48.9794 214.344 61.1326L214.729 73.2966H214.725Z" fill="white" />
    <path d="M192.971 57.7022C194.532 56.7221 199.758 47.9811 201.119 48.2751C202.121 48.4893 201.268 51.0883 200.952 51.7272C200.542 52.5548 195.374 59.1687 194.612 59.891C192.064 62.305 191.08 60.2468 189.353 58.2394C188.278 56.987 182.526 50.0683 182.46 49.1608C182.42 48.5945 182.754 48.0936 182.82 47.5527L183.908 47.7233L191.149 56.2538C191.334 46.0681 190.234 35.7843 190.775 25.595C190.841 24.3717 191.008 21.6456 191.233 20.611C191.349 20.0774 191.643 19.6201 192.06 19.2679C194.034 21.4387 192.971 24.3136 192.953 26.6804C192.869 37.0185 193.044 47.3676 192.971 57.7022Z" fill="white" />
  </g>
  <defs>
    <clipPath id="clip0_484_3460">
      <rect width="223" height="277" fill="white" />
    </clipPath>
  </defs>
</svg>