<svg width="237" height="313" viewBox="0 0 237 313" fill="none" xmlns="http://www.w3.org/2000/svg">
  <g clip-path="url(#clip0_484_3478)">
    <path d="M139.198 67.141C138.8 78.1531 138.524 95.1701 122.822 92.5902C122.234 93.0221 122.364 99.2355 122.55 100.341C123.317 104.913 131.204 107.526 135.017 109.079C144.862 113.092 155.154 115.203 163.871 121.513C185.583 137.238 180.936 159.865 180.507 183.382C180.161 202.477 180.921 221.612 183.52 240.591C186.532 262.571 191.875 286.657 192.762 308.707C192.914 312.505 191.105 313.246 190.568 309.787C189.418 302.356 189.194 294.062 188.249 286.441C186.193 269.867 182.998 253.42 180.909 236.876C178.396 216.988 177.89 196.349 178.243 176.287C178.467 163.503 180.865 152.111 175.834 139.673C170.346 126.103 158.043 118.881 144.583 114.801C140.371 125.117 136.83 135.697 132.783 146.08C126.643 161.835 120.123 177.411 112.072 192.291L130.686 221.817C136.126 221.351 142.103 221.057 147.457 222.342C152.812 223.626 155.262 225.767 153.705 231.526C157.403 231.962 165.762 234.288 166.928 238.208C167.348 239.627 166.812 241.179 167.173 242.423C167.475 243.458 168.827 244.113 168.968 246.227C169.043 247.359 168.514 251.324 167.862 252.091C167.211 252.858 166.209 252.485 165.609 252.914C165.267 253.156 164.455 255.709 163.692 256.573C161.376 259.194 157.239 258.922 154.074 259.421L154.349 260.095L153.702 260.341C154.111 262.198 155.709 261.227 156.148 261.599C157.436 262.697 157.868 276.218 158.173 278.94C159.171 287.841 161.927 298.701 162.277 307.23C162.314 308.157 162.191 309.139 161.022 308.834L160.058 307.561C157.943 293.042 155.835 278.538 154.826 263.881C144.717 266.614 133.702 265.18 123.515 263.393C117.457 262.332 111.13 260.262 105.12 259.469C90.7736 257.578 73.8798 262.31 59.4139 263.877C52.6891 264.607 45.8862 264.856 39.1429 265.366C38.886 281.203 35.531 296.858 33.2262 312.445C32.3176 313.417 31.2601 313.052 31.316 311.689C33.5762 296.288 36.488 280.954 37.2848 265.366C33.2671 265.225 29.1973 265.553 25.1796 265.381C13.2382 264.875 4.72241 262.861 1.38239 250.121C0.242987 245.773 0.18341 242.091 0.0828744 237.661C-0.345333 219.427 1.19994 200.917 2.31328 182.608C3.6612 160.431 1.80315 136.374 21.914 121.87C35.6576 111.96 67.6317 107.18 73.3809 90.39C81.0663 67.9302 58.4011 53.4559 65.5503 27.5153C75.8459 -9.84695 134.399 -9.15823 140.226 29.4809C141.31 36.6697 139.176 41.6881 142.121 48.7875C143.417 51.9147 147.424 56.9442 147.744 59.9187C148.284 64.9185 143.577 67.3569 139.209 67.1298L139.198 67.141ZM120.566 92.0988C118.961 91.7228 110.579 89.7236 110.21 88.4802C110.367 85.5541 113.398 87.9144 115.103 88.4467C119.21 89.7274 124.39 91.2835 128.657 90.256C137.947 88.0111 136.104 72.3567 137.515 65.2684C138.126 64.3936 144.553 65.9795 145.45 62.0445C146.292 58.3403 141.894 53.6011 140.375 50.1687C136.942 42.4066 139.366 36.6362 137.921 28.8183C131.353 -6.76073 77.1044 -6.69373 67.5163 28.3864C61.2347 51.3674 78.1992 62.2678 77.097 81.4813C76.5906 90.3491 74.0586 96.1381 67.4158 101.927C66.6487 102.593 63.3087 104.578 63.3646 105.199L100.887 174.258C112.072 153.477 121.392 131.765 130.597 110.043L130.649 109.551C127.045 108.248 121.251 105.311 120.636 101.145C120.19 98.1074 120.525 95.1441 120.566 92.1025V92.0988ZM152.223 262.396C151.326 260.225 149.952 258.341 148.928 256.208C138.781 235.055 124.427 216.359 111.894 196.535C93.3912 167.27 77.03 136.721 61.4506 105.817L52.5551 109.942L52.6966 111.033C71.4856 157.021 97.6808 199.257 120.052 243.42C122.178 247.62 124.822 252.292 126.616 256.566C127.302 258.193 128.273 259.89 127.827 261.67C135.754 263.445 144.195 263.721 152.22 262.392L152.223 262.396ZM110.925 190.247C123.34 166.015 132.846 140.436 142.121 114.845C142.278 114.38 142.188 114.123 141.805 113.821C141.365 113.479 134.201 110.895 133.341 110.732C133.069 110.679 132.805 110.579 132.526 110.672C123.295 132.864 113.815 155.037 102.179 176.089C102.056 176.633 102.469 177.035 102.678 177.478C104.026 180.363 107.961 186.58 109.879 189.253C110.058 189.503 110.695 190.419 110.925 190.247ZM125.808 261.282C125.939 260.136 125.41 259.186 125.012 258.178C122.979 253.048 119.329 246.585 116.704 241.566C115.997 240.219 111.268 231.008 110.68 230.826C101.922 232.442 92.4939 232.687 83.5722 232.293C74.6506 231.898 65.7029 230.145 56.8037 229.303C49.4869 228.611 42.051 228.659 34.831 227.468L43.0452 163.104C44.151 162.955 44.2516 163.473 44.3596 164.385C44.7431 167.579 43.5962 175.981 43.2239 179.652C41.7717 193.97 38.8152 208.173 37.3221 222.472C37.2625 223.057 36.9609 225.618 37.255 225.785L68.5179 228.395C76.4901 216.769 83.8366 204.658 90.014 191.99C75.4475 165.725 62.4299 138.679 50.3023 111.193C38.8711 116.238 25.753 119.398 16.9952 128.88C3.75057 143.221 5.23254 169.087 4.16388 187.459C3.44896 199.77 2.65212 211.951 2.32445 224.296C1.95209 238.298 -0.848012 260.341 18.1681 262.727C33.5427 264.655 53.5791 262.496 69.0281 260.49C81.7849 258.833 93.9014 255.695 106.915 257.675C109.373 258.047 125.12 261.956 125.808 261.282ZM109.812 228.924L91.9018 195.325L90.848 194.711C88.6698 199.811 85.8883 204.677 83.0956 209.465C79.7705 215.168 74.0288 222.42 71.4298 227.926C71.2696 228.261 70.9978 228.429 71.1319 228.924C83.9595 230.193 97.0217 230.863 109.816 228.924H109.812ZM151.829 230.766C153.597 225.316 147.818 224.423 143.748 223.823C140.114 223.287 136.704 223.25 133.058 223.727C132.541 223.794 132.41 223.514 132.507 224.278C138.55 233.104 144.784 241.622 149.308 251.369C149.874 252.586 150.793 255.914 151.452 256.662C152.398 257.738 157.85 257.046 159.309 256.662C161.163 256.171 163.245 254.905 163.007 252.739L151.341 251.57C150.164 250.684 150.462 249.47 152.018 249.459C156.278 249.429 161.353 251.067 165.747 250.825C167.002 250.393 167.568 244.34 165.04 244.195L151.102 243.067V241.202L164.619 241.961C167.363 236.518 157.213 234.229 153.411 233.503C151.464 233.13 143.752 232.769 142.926 232.084C142.549 231.772 142.401 231.448 142.549 230.979C143.019 229.504 150.294 231.299 151.825 230.766H151.829Z" fill="white" />
    <path d="M159.696 163.879L161.174 164.002L161.52 164.768C161.505 181.112 158.717 197.258 157.432 213.493C157.06 218.221 157.458 223.85 156.684 228.365C156.438 229.799 155 229.728 154.807 228.012C154.557 225.808 154.729 222.13 154.829 219.814C155.358 207.67 157.581 195.15 158.542 182.988C159.044 176.633 158.933 170.144 159.696 163.875V163.879Z" fill="white" />
    <path d="M213.971 208.843L218.432 221.486L195.037 215.875L195.164 214.401L196.255 214.066L215.085 218.887C215.759 217.945 210.59 208.966 210.996 206.985H236.476C237.176 206.985 237.176 208.847 236.476 208.847H213.971V208.843Z" fill="white" />
    <path d="M197.978 180.572C198.38 181.078 206.542 183.412 207.913 184.216C208.497 184.559 208.94 184.704 208.721 185.531L193.529 201.237C192.695 202.228 191.492 201.837 191.637 200.493C191.782 199.149 203.705 188.006 205.41 185.966C205.548 185.162 205.247 185.538 204.897 185.382C203.322 184.678 194.869 182.109 194.675 181.086C194.623 180.814 194.765 180.55 194.899 180.315L209.302 164.936C210.337 164.065 211.309 164.869 210.932 166.179L197.974 180.568L197.978 180.572Z" fill="white" />
    <path d="M192.228 233.395C192.887 233.213 193.692 234.006 194.22 234.356C199.783 238.082 204.914 243.637 210.637 247.322C212.093 248.454 211.215 249.947 209.52 249.187L192.031 235.428L191.625 234.322L192.228 233.391V233.395Z" fill="white" />
  </g>
  <defs>
    <clipPath id="clip0_484_3478">
      <rect width="237" height="313" fill="white" />
    </clipPath>
  </defs>
</svg>