<svg width="200" height="290" viewBox="0 0 200 290" fill="none" xmlns="http://www.w3.org/2000/svg">
  <g clip-path="url(#clip0_484_3486)">
    <path d="M85.2618 14.2103C89.0973 10.5755 94.6917 10.4637 98.2702 14.5456C100.293 16.8525 100.82 19.6913 101.368 22.6079C102.508 28.6647 102.86 35.1315 103.168 41.2798L107.409 38.9322C115.517 37.6246 117.61 46.3305 118.889 52.4348C121.591 65.3445 122.866 80.3511 124.111 93.5657C125.643 109.799 129.878 145.371 122.488 159.28C121.612 160.929 120.35 162.308 119.098 163.667C120.732 167.24 120.752 170.611 119.386 174.276C140.989 166.861 152.746 145.191 165.676 127.918L152.377 127.529L151.816 126.069L170.215 98.4505C171.423 97.5664 172.593 98.4437 171.92 99.8123L155.208 125.042L157.725 125.561C159.605 125.649 167.784 125.141 168.636 125.967C168.849 126.174 169.015 126.716 168.974 127.017C163.427 134.741 158.151 142.725 152.296 150.218C145.582 158.805 138.577 167.166 128.853 172.427C126.002 173.968 119.599 176.027 117.563 177.701C115.997 178.988 115.743 184.012 116.085 185.878C116.379 187.491 118.121 189.103 118.723 190.682C121.267 197.345 116.44 202.382 115.696 208.32C115.429 210.455 115.581 213.849 115.655 216.091C116.413 239.228 120.543 262.544 121.747 285.457C121.808 286.643 122.308 290.779 120.404 289.871C119.359 289.373 119.518 284.102 119.383 282.747C117.14 260.498 114.847 238.256 113.636 215.908L111.718 223.967C109.608 238.185 107.937 252.832 107.544 267.195C107.504 268.719 108.84 271.263 106.716 272.104C105.83 271.948 105.62 271.385 105.512 270.579C104.92 266.148 105.867 257.751 106.208 252.968C107.25 238.371 109.067 222.846 113.132 208.801C115.185 201.708 121.422 191.183 112.391 186.193C104.467 181.813 98.8655 191.007 91.1335 191.844C86.0025 192.399 80.2864 188.29 76.7383 194.347C73.0888 200.577 79.3799 204.902 82.15 209.713C92.4695 227.639 86.1716 253.621 85.5966 273.269C85.5121 274.207 84.6428 274.326 83.8818 273.97C83.3609 273.601 83.5435 271.009 83.5706 270.227C84.291 251.223 90.5416 226.132 79.3123 209.171C77.7124 206.755 75.0099 204.36 74.0866 201.545C71.8306 194.655 76.7315 188.202 84.0712 188.839C85.441 188.958 86.8447 189.679 88.1604 189.811C95.5981 190.57 99.5115 183.93 105.725 183.107C108.343 182.762 111.387 182.965 113.633 184.432L114.647 178.68C112.767 179.188 110.697 179.899 108.735 179.964C102.833 180.153 97.8575 178.284 91.8268 180.36C85.4884 182.542 84.1557 184.638 76.3324 183.72C74.0122 183.449 70.7245 181.495 68.8372 181.41C67.349 181.342 63.1076 183.094 61.1965 183.527C60.0026 183.798 54.6078 185.407 55.2132 182.979C55.5244 181.735 57.3644 182.186 58.3013 181.983C60.8718 181.424 64.2034 180.611 66.5034 179.368C72.3007 176.238 75.3211 169.788 81.6427 167.457C86.8007 165.553 92.6657 167.464 97.0694 163.961C87.8188 158.748 87.7883 151.753 90.3454 142.329C91.6476 137.535 93.9002 133.548 95.6455 129.026C98.1721 122.471 100.042 115.598 101.362 108.694C102.102 104.822 102.299 100.303 103.175 96.6348C103.428 95.5779 104.179 95.4492 105.031 96.0928C105.63 96.9668 103.702 107.776 103.337 109.66C102.052 116.309 100.107 123.735 97.6715 130.042C93.9036 139.798 84.8626 153.975 97.2352 161.434C104.088 165.567 115.723 165.835 120.323 158.142C127.115 146.783 123.888 115.981 122.755 102.373C121.51 87.4276 119.947 70.8085 117.245 56.1136C116.416 51.615 114.363 38.3801 107.213 41.4559C104.402 42.6652 103.733 46.5405 103.821 49.2539C104.105 58.0004 105.255 66.8553 105.535 75.6222C104.781 80.9168 106.56 87.5021 105.877 92.5732C105.681 94.0298 104.311 94.7378 103.665 93.3997C103.09 92.2107 103.577 83.5252 103.509 81.3741C103.087 67.753 102.285 53.3833 101.128 39.7655C100.661 34.2676 99.8903 19.8572 96.4099 16.0666C91.9588 11.2191 85.8503 14.925 85.255 20.8159L85.2685 84.1112C85.1907 85.4154 84.379 85.8931 83.2729 85.2291C82.725 63.4441 83.8378 41.5643 83.2425 19.7793C83.1512 16.3851 83.2019 9.85397 82.2278 6.91701C80.2627 0.978736 73.9513 1.42588 71.0053 6.53761C66.8822 13.6886 66.5846 33.2412 65.9961 42.13C65.0964 55.7545 64.7006 69.4298 63.9565 83.0645C64.0073 84.1045 62.4007 84.5245 61.9846 83.8673C61.4637 83.0476 62.2349 76.7434 62.289 75.3037C62.6104 66.9502 62.8302 58.5797 63.2733 50.2329C63.7502 41.3272 65.4515 30.8497 65.2452 22.1573C65.1539 18.2516 63.669 12.8722 58.7714 13.211C50.6843 13.7733 49.1115 30.9445 48.134 37.103C43.8013 64.457 41.3153 92.1497 37.6015 119.595C37.7537 120.794 39.8947 122.403 40.8722 123.118C44.5285 125.801 49.3449 127.329 53.3259 129.937C59.3701 133.897 64.0073 139.097 67.738 145.283C68.6072 146.726 71.3773 151.563 71.5667 152.932C71.7291 154.087 70.3559 154.845 69.5272 153.978C65.8811 144.595 59.6644 136.482 51.0936 131.157C45.1643 127.475 40.2634 126.58 35.2508 120.967C27.4816 112.265 27.8672 102.648 22.5772 93.0508C19.7699 87.956 11.5373 77.4582 4.80988 80.6865C-0.869039 83.4134 4.7862 92.5156 6.18648 96.6043C10.4042 108.935 11.2295 121.997 13.7764 134.69C18.7552 159.513 42.6479 167.704 46.9705 193.497C50.6166 215.258 45.0595 249.333 41.2172 271.467C40.3784 276.294 39.5598 283.56 38.1224 287.998C37.7266 289.221 37.3444 290.142 35.9915 289.254L35.7581 288.292C40.1517 265.014 44.3255 241.494 45.3808 217.772C46.3279 196.454 45.7563 185.641 32.1898 168.707C23.4498 157.796 15.2511 152.047 12.0819 137.407C9.3016 124.565 8.66234 111.262 4.50209 98.6334C2.62152 92.9187 -4.63018 81.4588 4.50209 78.3491C14.8418 74.8261 24.3529 90.0495 27.3903 98.0474C29.4636 103.505 30.1232 109.467 33.2789 114.483L35.5721 117.763L46.108 35.416C47.3595 28.5563 48.4418 14.3797 56.0047 11.4867C59.2044 10.2639 62.0658 10.7923 64.6431 13.0145C65.2486 13.5362 65.4075 14.2442 65.9825 14.5423C66.8721 8.42784 70.0346 -1.00972 77.8951 0.0810499C84.7612 1.03632 85.4207 8.58366 85.2516 14.2035L85.2618 14.2103ZM117.353 164.808C114.258 166.129 111.461 166.688 108.069 166.498C106.002 166.383 101.429 165.011 99.9647 165.154C99.4404 165.204 97.2758 166.651 96.3997 167.003C91.6442 168.907 87.4535 167.894 82.9685 169.456C80.2492 170.404 78.3212 171.996 76.1295 173.775L71.4044 180.035C74.9896 181.353 78.514 182.118 82.3834 181.729C86.2528 181.339 89.1582 178.788 92.7604 177.908C99.6975 176.214 106.54 178.931 113.568 176.749C116.474 175.848 116.957 175.109 117.793 172.179C118.622 169.266 118.409 167.63 117.357 164.808H117.353Z" fill="white" />
    <path d="M199.723 152.881L167.033 162.44L177.001 171.573L176.838 173.443C166.887 175.452 156.778 178.653 146.766 180.211C144.821 180.513 140.356 181.617 143.289 178.423L173.787 171.909L163.627 162.966C163.052 162.322 163.306 161.661 164.009 161.272L198.448 151.072L200.004 151.607L199.723 152.881Z" fill="white" />
    <path d="M159.257 206.773V195.435C159.257 194.435 160.593 194.361 161.269 194.774L184.296 210.651C184.868 211.295 184.259 212.45 183.42 212.389L161.621 197.972V208.971C161.621 209.777 160.156 210.675 159.399 209.842L131.038 188.494C130.514 187.369 131.075 186.515 132.306 186.871L159.253 206.769L159.257 206.773Z" fill="white" />
  </g>
  <defs>
    <clipPath id="clip0_484_3486">
      <rect width="200" height="290" fill="white" />
    </clipPath>
  </defs>
</svg>