<svg width="198" height="273" viewBox="0 0 198 273" fill="none" xmlns="http://www.w3.org/2000/svg">
  <g clip-path="url(#clip0_484_3492)">
    <path d="M1.77293 272.683L0.475807 272.575C0.146638 272.346 0.198783 271.933 0.156415 271.589C-0.505182 266.114 1.16348 259.533 0.485584 253.895C0.452993 253.227 0.795198 252.588 0.821271 251.943C1.03963 246.816 0.994003 241.698 1.47961 236.574C2.59422 224.76 5.94457 213.522 7.62301 201.853C9.55565 188.415 11.5209 172.865 12.554 159.372C13.799 143.151 10.918 127.764 22.9962 114.569C35.1917 101.242 55.3395 102.742 69.0407 93.4004C74.4899 89.6874 74.0174 86.2428 73.8251 80.051C59.9283 82.7654 59.5665 66.4331 59.1624 56.823C46.0836 57.2683 53.4785 48.3949 56.1803 42.2228C58.6377 36.6138 58.6931 32.7632 59.9706 27.0561C69.07 -13.5815 129.279 -7.13439 124.664 37.6878C123.536 48.6273 116.285 56.4661 115.545 66.8064C115.177 71.9733 116.04 80.1853 117.901 85.0444C121.326 93.9865 133.089 96.8123 140.943 100.516L141.611 101.793C141.337 102.244 140.976 102.323 140.48 102.32C139.33 102.316 131.078 98.4756 129.438 97.6669C117.165 91.6127 114.231 85.9317 113.573 72.0486C112.66 52.7825 129.181 42.3243 120.916 20.848C111.396 -3.88626 77.6089 -4.17113 65.296 18.3333C60.9321 26.3128 61.6914 34.2039 58.2401 42.3243C57.0766 45.0583 52.8821 51.0405 53.6838 53.6534C54.2835 55.6049 59.1689 54.3083 60.6453 55.4969C61.2775 58.3488 61.0853 61.3022 61.447 64.1804C62.9364 76.0433 65.6415 80.7747 78.4595 77.3399C80.1119 76.8979 83.221 75.2771 84.4497 75.1461C85.2482 75.061 86.164 75.2771 85.8609 76.2561C85.4666 77.5298 77.1331 79.6679 75.598 80.0347C76.7159 88.0895 74.9983 92.1333 68.1803 96.1312C54.0521 104.422 34.8365 103.495 23.472 117.005C12.8865 129.585 15.6599 143.963 14.5127 159.041C13.4796 172.603 11.4687 187.989 9.57847 201.522C7.94566 213.208 4.58227 224.393 3.43507 236.243C2.31394 247.804 2.96576 259.497 2.14446 270.931C2.1021 271.543 2.01084 272.123 1.77293 272.683Z" fill="white" />
    <path d="M37.3785 272.663C38.3172 261.497 41.0841 250.561 42.4986 239.465C43.5317 231.344 44.0108 222.795 43.5187 214.655C43.0983 207.72 41.9902 200.778 41.2373 193.883L36.1303 220.971L27.8001 270.341L26.7637 270.741L26.2227 269.608C30.7691 242.1 35.2927 214.603 40.2629 187.174C39.0831 177.216 35.6806 166.699 35.0548 156.749C34.9147 154.522 34.7028 148.913 35.0548 146.939C35.2601 145.776 36.4758 145.776 36.6811 146.939C36.9679 148.569 36.5605 151.048 36.6681 152.839C37.9359 173.441 44.5583 194.066 45.4937 215.29C46.3443 234.586 41.9282 252.896 39.2036 271.808L38.4312 272.997L37.3785 272.66V272.663Z" fill="white" />
    <path d="M150.16 152.086C150.939 151.516 151.825 151.686 151.969 152.754C149.107 164.679 148.795 177.013 147.142 189.144C148.824 198.47 152.086 207.7 153.572 217.045C156.196 233.534 151.164 250.001 149.766 266.34C149.642 267.774 150.121 271.327 149.456 272.244C148.091 274.136 147.439 270.017 147.256 269.175C143.85 253.465 141.325 235.296 141.924 219.219C142.426 205.821 144.796 192.546 146.461 179.285C147.602 170.199 147.752 160.979 150.154 152.089L150.16 152.086ZM148.462 262.902C149.303 253.442 151.32 244.081 152.05 234.605C153.171 219.998 150.193 209.694 146.67 195.847C146.575 195.474 146.689 194.786 146.19 194.865C144.776 207.477 143.319 220.237 143.893 232.984C144.264 241.252 145.946 253.979 147.911 261.992C147.993 262.322 148.006 262.977 148.465 262.899L148.462 262.902Z" fill="white" />
    <path d="M172.296 272.673C172.117 272.391 172.266 271.7 172.335 271.33C173.528 264.86 176.415 257.47 177.898 250.741C181.262 235.506 182.855 221.118 181.376 205.5C179.896 189.878 176.415 174.44 175.868 158.697C175.92 157.613 177.582 156.958 177.794 158.392C178.299 174.348 181.832 189.996 183.331 205.827C185.482 228.541 180.662 250.571 174.124 272.142C174.049 273.039 172.612 273.173 172.293 272.676L172.296 272.673Z" fill="white" />
    <path d="M159.788 97.624C159.361 98.0497 158.422 98.0432 157.998 97.624C157.206 96.8349 155.003 91.2326 154.263 89.7624C154.045 89.3302 153.882 88.9831 153.511 89.5234L143.257 119.467L141.957 119.614L152.855 85.9249C153.357 85.4043 153.993 85.4697 154.498 85.9282C154.912 86.3047 158.598 95.5547 159.217 95.0897L168.313 76.6553L169.832 76.7568L159.788 97.624Z" fill="white" />
    <path d="M174.781 106.301C180.899 105.554 182.092 111.422 186.785 112.077C189.219 112.414 191.145 111.979 193.215 110.738C194.649 109.876 196.705 106.864 197.98 108.714C198.25 109.611 194.972 111.913 194.193 112.375C190.552 114.539 186.726 114.883 183.033 112.568C180.71 111.114 179.351 108.432 176.323 108.177C169.384 107.591 170.851 116.196 168.918 120.701C166.986 125.207 163.759 126.33 159.372 126.821C156.671 127.126 155.647 126.359 152.923 127.872C152.069 128.347 149.696 130.911 148.934 129.788C147.884 128.239 152.294 125.871 153.451 125.459C157.994 123.838 162.57 126.428 166.194 121.566C169.802 116.726 166.748 107.286 174.781 106.304V106.301Z" fill="white" />
    <path d="M178.447 149.067C178.844 146.716 178.743 142.587 179.502 140.478C179.779 139.712 180.288 139.463 181.064 139.712C181.999 140.01 186.787 145.164 187.908 146.281C189.358 147.725 189.919 148.923 191.91 150.115C193.168 150.868 196.531 151.519 196.02 153.124C195.658 154.257 193.099 152.904 192.392 152.574C187.813 150.423 185.304 145.714 181.539 142.531C180.835 142.384 180.927 143.916 180.829 144.431C180.457 146.415 180.526 149.391 180.008 151.127C179.871 151.585 179.434 151.994 178.942 152.007C178.567 152.017 173.929 148.707 173.004 148.153C167.441 144.843 161.476 142.862 155.353 140.852C155.121 139.588 155.424 139.149 156.689 139.319C159.967 139.758 164.661 142.482 168.004 143.357L178.443 149.07L178.447 149.067Z" fill="white" />
    <path d="M111.882 227.657C113.088 227.503 114.832 227.454 116.031 227.575C121.77 228.152 125.15 234.51 131.515 232.313C132.33 232.032 135.784 229.134 135.765 231.334C135.752 232.795 131.261 234.527 129.964 234.684C124.99 235.286 122.869 232.192 119.026 230.457C115.614 228.918 111.524 229.288 108.15 230.781C107.365 231.128 104.559 233.142 104.305 233.145C103.868 233.145 103.105 232.52 103.19 232.035C103.496 230.277 110.178 227.873 111.882 227.657Z" fill="white" />
    <path d="M107.305 175.936C108.189 175.7 109.678 177.298 110.561 177.789C119.429 182.714 129.611 182.478 137.609 175.936C140.571 176.994 136.135 179.367 134.877 180.081C127.792 184.096 118.155 184.122 110.982 180.314C110.099 179.845 106.422 177.596 106.497 176.705L107.309 175.936H107.305Z" fill="white" />
    <path d="M106.106 222.657C106.041 222.215 106.051 221.767 106.259 221.357C106.963 219.979 113.511 218.741 115.059 218.741C121.724 218.741 128.832 225.31 134.995 220.097C138.195 221.659 132.938 223.794 131.354 223.974C124.015 224.815 119.537 219.583 111.617 221.174C110.529 221.393 106.491 223.207 106.106 222.654V222.657Z" fill="white" />
    <path d="M151.267 106.56C151.971 106.357 159.076 110.577 160.168 111.314C160.872 111.792 163.098 112.886 162.801 113.894C162.681 114.307 162.104 114.424 161.69 114.395C160.174 114.294 153.304 108.891 151.068 108.344C150.518 107.915 150.612 106.746 151.267 106.556V106.56Z" fill="white" />
    <path d="M171.94 125.525C172.237 125.322 173.058 125.531 173.4 125.839C174.101 126.464 176.747 134.499 176.747 135.56C176.747 136.438 175.548 137.175 174.925 136.084C174.433 135.223 173.749 131.828 173.325 130.495C173.061 129.667 171.207 126.029 171.943 125.525H171.94Z" fill="white" />
  </g>
  <defs>
    <clipPath id="clip0_484_3492">
      <rect width="198" height="273" fill="white" />
    </clipPath>
  </defs>
</svg>