<svg width="25" height="24" viewBox="0 0 25 24" fill="none" xmlns="http://www.w3.org/2000/svg">
<path d="M18.796 4.637C17.9831 3.78976 17.0073 3.11561 15.9272 2.65509C14.8472 2.19456 13.6852 1.95717 12.511 1.95717C11.3369 1.95717 10.1748 2.19456 9.09477 2.65509C8.0147 3.11561 7.0389 3.78976 6.22601 4.637C4.69601 6.637 4.22601 9.637 5.08601 12.717C5.96601 16.047 8.31601 18.457 10.206 20.387L11.126 21.387C11.3047 21.5766 11.5187 21.7295 11.756 21.837C11.9937 21.9426 12.2509 21.9971 12.511 21.9971C12.7711 21.9971 13.0283 21.9426 13.266 21.837C13.4989 21.7313 13.7094 21.582 13.886 21.397L14.816 20.397C16.706 18.467 19.056 16.057 19.936 12.727C20.746 9.637 20.326 6.637 18.796 4.637ZM12.506 12.887C11.7595 12.8872 11.0327 12.6473 10.4329 12.2027C9.83317 11.7582 9.39228 11.1326 9.17535 10.4182C8.95842 9.70391 8.97695 8.93876 9.2282 8.23577C9.47946 7.53279 9.95012 6.92924 10.5707 6.51424C11.1912 6.09925 11.9288 5.89481 12.6745 5.93112C13.4201 5.96744 14.1343 6.24257 14.7116 6.7159C15.2889 7.18923 15.6987 7.83566 15.8805 8.55974C16.0622 9.28381 16.0063 10.0471 15.721 10.737C15.4575 11.3721 15.0111 11.9146 14.4387 12.2956C13.8663 12.6766 13.1936 12.879 12.506 12.877V12.887Z" fill="#9BDFE8"/>
</svg>
