<svg width="321" height="135" viewBox="0 0 321 135" fill="none" xmlns="http://www.w3.org/2000/svg">
  <g clip-path="url(#clip0_542_1146)">
    <path d="M151.558 108.352L154.482 100.153H156.375L152.236 111.245C151.798 112.43 151.191 113.333 150.414 113.954C149.623 114.575 148.733 114.843 147.73 114.787V113.093C148.959 113.192 149.877 112.501 150.47 111.005L150.626 110.624L146.219 100.153H148.083L151.558 108.352Z" fill="#545354" />
    <path d="M164.893 105.163V100.167H166.659V110.624H164.893V106.856C164.074 107.223 163.156 107.392 162.153 107.392C160.839 107.392 159.836 107.068 159.13 106.433C158.423 105.798 158.07 104.852 158.07 103.639V100.167H159.836V103.526C159.836 104.288 160.034 104.852 160.429 105.191C160.825 105.53 161.446 105.699 162.266 105.699C163.198 105.699 164.074 105.516 164.879 105.163H164.893Z" fill="#545354" />
    <path d="M179.726 106.221H171.222C171.391 107.138 171.815 107.858 172.465 108.38C173.115 108.902 173.92 109.17 174.894 109.17C176.236 109.17 177.211 108.662 177.818 107.646L179.316 108.521C178.313 110.102 176.83 110.878 174.852 110.878C173.256 110.878 171.942 110.356 170.911 109.326C169.908 108.267 169.414 106.955 169.414 105.375C169.414 103.794 169.908 102.482 170.897 101.452C171.886 100.407 173.157 99.8853 174.725 99.8853C176.208 99.8853 177.423 100.421 178.355 101.522C179.302 102.58 179.782 103.879 179.782 105.403C179.782 105.671 179.768 105.939 179.726 106.221ZM174.739 101.607C173.807 101.607 173.03 101.875 172.394 102.425C171.758 102.976 171.377 103.709 171.222 104.641H178.002C177.847 103.681 177.479 102.933 176.886 102.411C176.293 101.889 175.572 101.621 174.739 101.621V101.607Z" fill="#545354" />
    <path d="M187.043 110.892C185.545 110.892 184.302 110.384 183.328 109.368C182.353 108.338 181.873 107.026 181.873 105.445C181.873 103.653 182.127 102.27 182.621 101.325C183.13 100.365 184.175 99.4901 185.743 98.714C185.828 98.6717 185.927 98.6294 186.04 98.5729C186.153 98.5165 186.294 98.4459 186.464 98.3754C186.633 98.3048 186.774 98.2343 186.902 98.1778L188.003 97.6698C189.091 97.1195 189.656 96.4421 189.727 95.666L191.153 96.4986C191.055 96.9925 190.899 97.3735 190.687 97.6698C190.687 97.698 190.631 97.7545 190.56 97.8532C190.49 97.9379 190.447 98.0085 190.419 98.0367C190.391 98.079 190.348 98.1214 190.292 98.1778C190.235 98.2343 190.165 98.3048 190.108 98.3613C190.052 98.4177 189.967 98.4741 189.868 98.5306C189.374 98.8551 189.006 99.0668 188.794 99.1515C188.71 99.1938 188.625 99.2361 188.54 99.2785C188.455 99.3208 188.385 99.349 188.328 99.3773C188.272 99.4055 188.229 99.4196 188.201 99.4337L187.537 99.73L186.887 99.9982C185.983 100.407 185.305 100.817 184.882 101.226C184.444 101.649 184.133 102.171 183.949 102.82C184.373 102.284 184.896 101.889 185.545 101.607C186.181 101.325 186.845 101.183 187.523 101.183C188.809 101.183 189.882 101.635 190.744 102.524C191.634 103.427 192.086 104.584 192.086 105.967C192.086 107.35 191.606 108.564 190.659 109.495C189.698 110.412 188.498 110.878 187.043 110.878V110.892ZM190.306 105.981C190.306 105.05 190.009 104.288 189.416 103.695C188.823 103.103 188.06 102.806 187.099 102.806C186.252 102.806 185.461 103.089 184.74 103.667C184.048 104.232 183.709 104.979 183.709 105.883C183.709 106.786 184.034 107.604 184.67 108.225C185.305 108.832 186.096 109.142 187.043 109.142C187.989 109.142 188.78 108.846 189.374 108.239C189.995 107.646 190.306 106.884 190.306 105.981Z" fill="#545354" />
    <path d="M201.607 104.514V100.167H203.373V110.624H201.607V106.249H196.352V110.624H194.586V100.167H196.352V104.514H201.607Z" fill="#545354" />
    <path d="M208.458 103.921H210.972C211.989 103.921 212.823 104.231 213.487 104.866C214.165 105.487 214.504 106.278 214.504 107.265C214.504 108.253 214.165 109.057 213.487 109.692C212.809 110.299 211.975 110.61 210.972 110.61H206.692V100.153H208.458V103.921ZM208.458 108.916H210.972C211.481 108.916 211.919 108.761 212.244 108.451C212.569 108.14 212.752 107.745 212.752 107.265C212.752 106.786 212.583 106.376 212.23 106.066C211.891 105.755 211.467 105.6 210.958 105.6H208.444V108.916H208.458ZM215.818 110.61V100.153H217.583V110.61H215.818Z" fill="#545354" />
    <path d="M222.683 107.505L228.305 100.167H229.732V110.624H227.98V103.286L222.358 110.624H220.931V100.167H222.683V107.505ZM228.079 98.6009H222.598V97.0063H228.079V98.6009Z" fill="#545354" />
    <path d="M247.29 100.167V108.888H248.957V113.418H247.22V110.61H238.786V100.153H240.552V108.874H245.539V100.153H247.304L247.29 100.167Z" fill="#545354" />
    <path d="M260.823 106.221H252.319C252.489 107.138 252.912 107.858 253.562 108.38C254.212 108.902 255.017 109.17 255.992 109.17C257.334 109.17 258.309 108.662 258.916 107.646L260.413 108.521C259.41 110.102 257.927 110.878 255.95 110.878C254.353 110.878 253.04 110.356 252.008 109.326C251.005 108.267 250.511 106.955 250.511 105.375C250.511 103.794 251.005 102.482 251.994 101.452C252.983 100.407 254.254 99.8853 255.822 99.8853C257.306 99.8853 258.521 100.421 259.453 101.522C260.399 102.58 260.88 103.879 260.88 105.403C260.88 105.671 260.865 105.939 260.823 106.221ZM255.837 101.607C254.904 101.607 254.127 101.875 253.492 102.425C252.856 102.976 252.475 103.709 252.319 104.641H259.1C258.944 103.681 258.577 102.933 257.984 102.411C257.39 101.889 256.67 101.621 255.837 101.621V101.607Z" fill="#545354" />
    <path d="M270.57 104.514V100.167H272.336V110.624H270.57V106.249H265.315V110.624H263.549V100.167H265.315V104.514H270.57Z" fill="#545354" />
    <path d="M274.525 100.167H283.213V101.917H279.766V110.61H278V101.917H274.525V100.167Z" fill="#545354" />
    <path d="M290.996 99.8852C292.423 99.8852 293.624 100.421 294.627 101.494C295.63 102.566 296.124 103.865 296.124 105.374C296.124 106.884 295.63 108.211 294.627 109.283C293.638 110.342 292.423 110.878 290.996 110.878C289.315 110.878 288.044 110.186 287.168 108.803V114.787H285.402V100.153H287.168V101.945C288.044 100.563 289.329 99.8711 290.996 99.8711V99.8852ZM290.77 109.128C291.787 109.128 292.635 108.775 293.327 108.056C294.019 107.322 294.358 106.433 294.358 105.374C294.358 104.316 294.019 103.427 293.327 102.722C292.635 102.002 291.787 101.635 290.77 101.635C289.753 101.635 288.877 102.002 288.199 102.722C287.507 103.427 287.168 104.316 287.168 105.374C287.168 106.433 287.507 107.308 288.199 108.056C288.892 108.761 289.753 109.128 290.77 109.128Z" fill="#545354" />
    <path d="M165.953 76.5879C160.33 76.5879 155.627 74.697 151.841 70.9152C148.111 67.1334 146.233 62.4626 146.233 56.8887C146.233 51.3148 148.097 46.644 151.841 42.8622C155.627 39.0804 160.33 37.1895 165.953 37.1895C169.583 37.1895 172.903 38.0643 175.883 39.8C178.864 41.5357 181.138 43.8782 182.678 46.8133L174.386 51.6675C173.637 50.1294 172.507 48.9017 170.982 48.0127C169.456 47.1237 167.761 46.6722 165.868 46.6722C162.986 46.6722 160.585 47.6317 158.692 49.5509C156.799 51.47 155.853 53.9112 155.853 56.9028C155.853 59.8944 156.799 62.2227 158.692 64.2124C160.585 66.1033 162.972 67.0488 165.868 67.0488C167.803 67.0488 169.541 66.6113 171.052 65.7364C172.578 64.8615 173.708 63.6621 174.457 62.1239L182.819 66.8935C181.181 69.8851 178.85 72.2417 175.841 73.9774C172.832 75.713 169.527 76.5879 165.939 76.5879H165.953Z" fill="#545354" />
    <path d="M197.538 75.5435H187.905V21.0742H197.538V75.5435Z" fill="#545354" />
    <path d="M211.128 33.7601C209.531 33.7601 208.147 33.1816 206.989 32.0104C205.816 30.8391 205.237 29.4562 205.237 27.8758C205.237 26.2953 205.816 24.8983 206.989 23.6989C208.161 22.4994 209.546 21.9067 211.128 21.9067C212.71 21.9067 214.179 22.4994 215.351 23.6989C216.524 24.8983 217.103 26.2812 217.103 27.8758C217.103 29.4703 216.524 30.8532 215.351 32.0104C214.179 33.1816 212.78 33.7601 211.128 33.7601ZM215.987 75.5434H206.353V38.2334H215.987V75.5434Z" fill="#545354" />
    <path d="M245.567 37.1895C249.706 37.1895 253.054 38.5582 255.653 41.2958C258.337 44.0757 259.693 47.8575 259.693 52.6412V75.5437H250.059V53.8266C250.059 51.3853 249.395 49.4944 248.081 48.1539C246.768 46.8133 244.96 46.136 242.671 46.136C240.128 46.136 238.123 46.9121 236.653 48.4925C235.184 50.0589 234.45 52.359 234.45 55.3929V75.5437H224.816V38.2337H234.45V42.4106C236.738 38.9251 240.453 37.1895 245.581 37.1895H245.567Z" fill="#545354" />
    <path d="M272.675 33.7601C271.079 33.7601 269.694 33.1816 268.536 32.0104C267.363 30.8391 266.784 29.4562 266.784 27.8758C266.784 26.2953 267.363 24.8983 268.536 23.6989C269.708 22.4994 271.093 21.9067 272.675 21.9067C274.257 21.9067 275.726 22.4994 276.899 23.6989C278.071 24.8983 278.65 26.2812 278.65 27.8758C278.65 29.4703 278.071 30.8532 276.899 32.0104C275.726 33.1816 274.328 33.7601 272.675 33.7601ZM277.534 75.5434H267.9V38.2334H277.534V75.5434Z" fill="#545354" />
    <path d="M304.119 76.5879C298.497 76.5879 293.793 74.697 290.007 70.9152C286.278 67.1334 284.399 62.4626 284.399 56.8887C284.399 51.3148 286.264 46.644 290.007 42.8622C293.793 39.0804 298.497 37.1895 304.119 37.1895C307.75 37.1895 311.069 38.0643 314.05 39.8C317.031 41.5357 319.305 43.8782 320.845 46.8133L312.553 51.6675C311.804 50.1294 310.674 48.9017 309.148 48.0127C307.623 47.1237 305.928 46.6722 304.035 46.6722C301.153 46.6722 298.751 47.6317 296.859 49.5509C294.966 51.47 294.019 53.9112 294.019 56.9028C294.019 59.8944 294.966 62.2227 296.859 64.2124C298.751 66.1033 301.139 67.0488 304.035 67.0488C305.97 67.0488 307.707 66.6113 309.219 65.7364C310.744 64.8615 311.875 63.6621 312.623 62.1239L320.986 66.8935C319.347 69.8851 317.016 72.2417 314.008 73.9774C310.999 75.713 307.693 76.5879 304.105 76.5879H304.119Z" fill="#545354" />
    <path d="M67.0704 134.5C104.112 134.5 134.141 104.503 134.141 67.5C134.141 30.4969 104.112 0.5 67.0704 0.5C30.0284 0.5 0 30.4969 0 67.5C0 104.503 30.0284 134.5 67.0704 134.5Z" fill="url(#paint0_radial_542_1146)" />
    <path d="M77.4954 111.964V23.0356H60.4594L60.4594 111.964H77.4954Z" fill="url(#paint1_linear_542_1146)" />
    <path d="M107.796 58.9907H26.5993V76.0088H107.782L107.796 74.0756V58.9907Z" fill="url(#paint2_linear_542_1146)" />
    <path d="M26.3451 76.0091V58.2995L59.061 23.0356H77.4954V26.5917L32.6877 76.0091H26.3451Z" fill="url(#paint3_linear_542_1146)" />
  </g>
  <defs>
    <radialGradient id="paint0_radial_542_1146" cx="0" cy="0" r="1" gradientUnits="userSpaceOnUse" gradientTransform="translate(67.0704 67.5) scale(67.0704 67)">
      <stop offset="0.01" stop-color="white" stop-opacity="0" />
      <stop offset="0.8" stop-color="white" stop-opacity="0" />
      <stop offset="1" stop-color="#DFDFDF" />
    </radialGradient>
    <linearGradient id="paint1_linear_542_1146" x1="69.0622" y1="39.2494" x2="68.893" y2="97.2041" gradientUnits="userSpaceOnUse">
      <stop offset="0.01" stop-color="#A22E16" />
      <stop offset="0.2" stop-color="#A62E16" />
      <stop offset="0.41" stop-color="#B52E16" />
      <stop offset="0.65" stop-color="#CC2E16" />
      <stop offset="0.89" stop-color="#ED2E16" />
      <stop offset="1" stop-color="#FF2F16" />
    </linearGradient>
    <linearGradient id="paint2_linear_542_1146" x1="26.5993" y1="67.4998" x2="107.796" y2="67.4998" gradientUnits="userSpaceOnUse">
      <stop offset="0.01" stop-color="#A22E16" />
      <stop offset="0.51" stop-color="#FF2F16" />
      <stop offset="1" stop-color="#A22E16" />
    </linearGradient>
    <linearGradient id="paint3_linear_542_1146" x1="25.9778" y1="70.8867" x2="68.4775" y2="25.1501" gradientUnits="userSpaceOnUse">
      <stop offset="0.02" stop-color="#FF8500" />
      <stop offset="0.52" stop-color="#FFAD2A" />
      <stop offset="1" stop-color="#FF8500" />
    </linearGradient>
    <clipPath id="clip0_542_1146">
      <rect width="321" height="134" fill="white" transform="translate(0 0.5)" />
    </clipPath>
  </defs>
</svg>