<svg width="414" height="63" viewBox="0 0 414 63" fill="none" xmlns="http://www.w3.org/2000/svg">
<g clip-path="url(#clip0_542_1193)">
<path d="M23.1844 20.4136H7.38276V47.1368H0V13.5713H30.5672V47.1368H23.1844V20.4136Z" fill="#FF4A37"/>
<path d="M37.7515 13.5715H45.1343V17.2508C46.6454 15.8307 48.2643 14.7334 49.9913 13.9588C51.7183 13.1842 53.6611 12.7969 55.8198 12.7969C58.2376 12.7969 60.4611 13.2487 62.4903 14.1524C64.5627 15.0131 66.3326 16.2395 67.8006 17.8317C69.2685 19.3809 70.4127 21.2314 71.233 23.3828C72.0533 25.4916 72.4634 27.7938 72.4634 30.2896C72.4634 32.8716 72.0102 35.2385 71.1035 37.3901C70.24 39.4986 69.0526 41.3276 67.5415 42.8768C66.0306 44.3829 64.2173 45.5663 62.1018 46.4271C60.0294 47.2876 57.8058 47.718 55.4312 47.718C53.3157 47.718 51.416 47.3953 49.7322 46.7497C48.0484 46.1042 46.5158 45.2005 45.1343 44.0388V60.0469H37.7515V13.5715ZM54.3304 40.8758C55.7983 40.8758 57.1582 40.6391 58.4103 40.1656C59.7055 39.6924 60.828 39.0039 61.7779 38.1002C62.7277 37.1535 63.4617 36.0346 63.9797 34.7435C64.541 33.4095 64.8217 31.9034 64.8217 30.2252C64.8217 28.676 64.5842 27.256 64.1093 25.9649C63.6344 24.6308 62.9436 23.512 62.0369 22.6083C61.1734 21.6616 60.1372 20.93 58.9284 20.4138C57.7195 19.8974 56.3811 19.6391 54.9131 19.6391C52.6681 19.6391 50.6821 20.1769 48.9551 21.2529C47.2713 22.3286 45.9978 23.6197 45.1343 25.1258V35.3245C45.9978 37.132 47.2281 38.5089 48.8256 39.4557C50.423 40.4025 52.258 40.8758 54.3304 40.8758Z" fill="#FF4A37"/>
<path d="M76.2994 30.2896C76.2994 27.7507 76.7312 25.427 77.5946 23.3185C78.4581 21.1668 79.6887 19.3163 81.2861 17.7672C82.8836 16.218 84.7833 15.0131 86.9851 14.1524C89.187 13.2487 91.6263 12.7969 94.3031 12.7969C96.9367 12.7969 99.3545 13.2487 101.556 14.1524C103.801 15.0131 105.723 16.218 107.32 17.7672C108.917 19.3163 110.148 21.1668 111.012 23.3185C111.918 25.427 112.371 27.7507 112.371 30.2896C112.371 32.8287 111.918 35.1739 111.012 37.3255C110.148 39.4343 108.917 41.263 107.32 42.8122C105.723 44.3614 103.801 45.5663 101.556 46.4271C99.3545 47.2876 96.9367 47.718 94.3031 47.718C91.6695 47.718 89.2517 47.2876 87.0498 46.4271C84.8479 45.5663 82.9483 44.3614 81.3508 42.8122C79.7534 41.263 78.5013 39.4343 77.5946 37.3255C76.7312 35.1739 76.2994 32.8287 76.2994 30.2896ZM83.9413 30.2896C83.9413 31.7959 84.1788 33.1945 84.6537 34.4854C85.1718 35.7763 85.8841 36.8952 86.7908 37.8419C87.6974 38.7887 88.7768 39.5418 90.0288 40.1013C91.3241 40.6175 92.7488 40.8758 94.3031 40.8758C95.8574 40.8758 97.2604 40.6391 98.5125 40.1656C99.8077 39.6492 100.909 38.9393 101.815 38.0357C102.722 37.0889 103.434 35.97 103.952 34.6791C104.471 33.388 104.73 31.9249 104.73 30.2896C104.73 28.6544 104.449 27.1914 103.888 25.9003C103.37 24.5663 102.636 23.4474 101.686 22.5438C100.736 21.597 99.635 20.8871 98.383 20.4138C97.1309 19.8974 95.771 19.6391 94.3031 19.6391C92.8352 19.6391 91.4536 19.8974 90.1584 20.4138C88.9063 20.8871 87.8055 21.597 86.8556 22.5438C85.949 23.4474 85.2365 24.5663 84.7184 25.9003C84.2003 27.1914 83.9413 28.6544 83.9413 30.2896Z" fill="#FF4A37"/>
<path d="M114.343 40.2946H118.242C119.758 38.3582 120.776 36.1419 121.296 33.6462C121.816 31.1502 122.075 28.3315 122.075 25.1902V13.5713H149.237V40.2946H153.98V54.8183H147.092V47.1368H121.231V54.8183H114.343V40.2946ZM141.829 40.2946V20.4136H129.093V28.9985C129.093 31.0641 128.812 33.1298 128.248 35.1952C127.685 37.2179 126.906 38.9177 125.909 40.2946H141.829Z" fill="#3981F1"/>
<path d="M155.483 30.2896C155.483 27.7507 155.917 25.427 156.783 23.3185C157.649 21.1668 158.884 19.3163 160.487 17.7672C162.089 16.218 163.996 15.0131 166.205 14.1524C168.414 13.2487 170.862 12.7969 173.548 12.7969C176.19 12.7969 178.616 13.2487 180.825 14.1524C183.078 15.0131 185.006 16.218 186.608 17.7672C188.211 19.3163 189.446 21.1668 190.312 23.3185C191.222 25.427 191.677 27.7507 191.677 30.2896C191.677 32.8287 191.222 35.1739 190.312 37.3255C189.446 39.4343 188.211 41.263 186.608 42.8122C185.006 44.3614 183.078 45.5663 180.825 46.4271C178.616 47.2876 176.19 47.718 173.548 47.718C170.905 47.718 168.479 47.2876 166.27 46.4271C164.06 45.5663 162.155 44.3614 160.552 42.8122C158.949 41.263 157.693 39.4343 156.783 37.3255C155.917 35.1739 155.483 32.8287 155.483 30.2896ZM163.151 30.2896C163.151 31.7959 163.389 33.1945 163.866 34.4854C164.385 35.7763 165.1 36.8952 166.01 37.8419C166.92 38.7887 168.003 39.5418 169.259 40.1013C170.559 40.6175 171.988 40.8758 173.548 40.8758C175.107 40.8758 176.515 40.6391 177.771 40.1656C179.071 39.6492 180.175 38.9393 181.085 38.0357C181.995 37.0889 182.71 35.97 183.229 34.6791C183.749 33.388 184.009 31.9249 184.009 30.2896C184.009 28.6544 183.728 27.1914 183.164 25.9003C182.645 24.5663 181.908 23.4474 180.955 22.5438C180.002 21.597 178.897 20.8871 177.641 20.4138C176.385 19.8974 175.02 19.6391 173.548 19.6391C172.075 19.6391 170.688 19.8974 169.389 20.4138C168.133 20.8871 167.028 21.597 166.075 22.5438C165.165 23.4474 164.45 24.5663 163.931 25.9003C163.411 27.1914 163.151 28.6544 163.151 30.2896Z" fill="#3981F1"/>
<path d="M196.261 13.5713H203.668V27.1912L218.288 13.5713H227.97L211.53 28.7404L228.556 47.1368H219.069L206.139 33.3233L203.668 35.7116V47.1368H196.261V13.5713Z" fill="#3981F1"/>
<path d="M230.894 13.5713H262.734V20.4136H250.517V47.1368H243.111V20.4136H230.894V13.5713Z" fill="#3981F1"/>
<path d="M264.353 30.2896C264.353 27.7507 264.787 25.427 265.654 23.3185C266.519 21.1668 267.754 19.3163 269.356 17.7672C270.959 16.218 272.865 15.0131 275.075 14.1524C277.283 13.2487 279.732 12.7969 282.417 12.7969C285.061 12.7969 287.486 13.2487 289.696 14.1524C291.949 15.0131 293.875 16.218 295.478 17.7672C297.08 19.3163 298.317 21.1668 299.182 23.3185C300.093 25.427 300.546 27.7507 300.546 30.2896C300.546 32.8287 300.093 35.1739 299.182 37.3255C298.317 39.4343 297.08 41.263 295.478 42.8122C293.875 44.3614 291.949 45.5663 289.696 46.4271C287.486 47.2876 285.061 47.718 282.417 47.718C279.775 47.718 277.348 47.2876 275.14 46.4271C272.93 45.5663 271.024 44.3614 269.421 42.8122C267.819 41.263 266.563 39.4343 265.654 37.3255C264.787 35.1739 264.353 32.8287 264.353 30.2896ZM272.022 30.2896C272.022 31.7959 272.26 33.1945 272.735 34.4854C273.256 35.7763 273.969 36.8952 274.88 37.8419C275.789 38.7887 276.873 39.5418 278.129 40.1013C279.428 40.6175 280.858 40.8758 282.417 40.8758C283.976 40.8758 285.386 40.6391 286.642 40.1656C287.941 39.6492 289.045 38.9393 289.956 38.0357C290.865 37.0889 291.58 35.97 292.099 34.6791C292.619 33.388 292.879 31.9249 292.879 30.2896C292.879 28.6544 292.597 27.1914 292.034 25.9003C291.515 24.5663 290.778 23.4474 289.826 22.5438C288.871 21.597 287.767 20.8871 286.512 20.4138C285.256 19.8974 283.89 19.6391 282.417 19.6391C280.944 19.6391 279.558 19.8974 278.259 20.4138C277.003 20.8871 275.897 21.597 274.945 22.5438C274.034 23.4474 273.321 24.5663 272.8 25.9003C272.282 27.1914 272.022 28.6544 272.022 30.2896Z" fill="#3981F1"/>
<path d="M305.073 13.5715H312.479V17.2508C313.995 15.8307 315.62 14.7334 317.353 13.9588C319.086 13.1842 321.035 12.7969 323.202 12.7969C325.627 12.7969 327.858 13.2487 329.895 14.1524C331.973 15.0131 333.749 16.2395 335.222 17.8317C336.694 19.3809 337.844 21.2314 338.666 23.3828C339.49 25.4916 339.9 27.7938 339.9 30.2896C339.9 32.8716 339.446 35.2385 338.536 37.3901C337.67 39.4986 336.479 41.3276 334.961 42.8768C333.445 44.3829 331.626 45.5663 329.505 46.4271C327.425 47.2876 325.193 47.718 322.812 47.718C320.688 47.718 318.782 47.3953 317.092 46.7497C315.403 46.1042 313.865 45.2005 312.479 44.0388V60.0469H305.073V13.5715ZM321.708 40.8758C323.18 40.8758 324.544 40.6391 325.8 40.1656C327.099 39.6924 328.227 39.0039 329.179 38.1002C330.131 37.1535 330.869 36.0346 331.389 34.7435C331.951 33.4095 332.233 31.9034 332.233 30.2252C332.233 28.676 331.994 27.256 331.519 25.9649C331.042 24.6308 330.348 23.512 329.439 22.6083C328.572 21.6616 327.533 20.93 326.321 20.4138C325.106 19.8974 323.764 19.6391 322.291 19.6391C320.04 19.6391 318.047 20.1769 316.314 21.2529C314.624 22.3286 313.347 23.6197 312.479 25.1258V35.3245C313.347 37.132 314.581 38.5089 316.184 39.4557C317.786 40.4025 319.628 40.8758 321.708 40.8758Z" fill="#3981F1"/>
<path d="M343.575 30.2896C343.575 27.7507 344.008 25.427 344.874 23.3185C345.741 21.1668 346.975 19.3163 348.578 17.7672C350.181 16.218 352.087 15.0131 354.295 14.1524C356.505 13.2487 358.954 12.7969 361.639 12.7969C364.281 12.7969 366.707 13.2487 368.917 14.1524C371.169 15.0131 373.097 16.218 374.7 17.7672C376.302 19.3163 377.536 21.1668 378.404 23.3185C379.313 25.427 379.768 27.7507 379.768 30.2896C379.768 32.8287 379.313 35.1739 378.404 37.3255C377.536 39.4343 376.302 41.263 374.7 42.8122C373.097 44.3614 371.169 45.5663 368.917 46.4271C366.707 47.2876 364.281 47.718 361.639 47.718C358.997 47.718 356.57 47.2876 354.36 46.4271C352.152 45.5663 350.246 44.3614 348.643 42.8122C347.04 41.263 345.785 39.4343 344.874 37.3255C344.008 35.1739 343.575 32.8287 343.575 30.2896ZM351.242 30.2896C351.242 31.7959 351.48 33.1945 351.957 34.4854C352.478 35.7763 353.191 36.8952 354.102 37.8419C355.011 38.7887 356.093 39.5418 357.351 40.1013C358.65 40.6175 360.079 40.8758 361.639 40.8758C363.198 40.8758 364.606 40.6391 365.862 40.1656C367.163 39.6492 368.267 38.9393 369.176 38.0357C370.086 37.0889 370.8 35.97 371.321 34.6791C371.841 33.388 372.101 31.9249 372.101 30.2896C372.101 28.6544 371.819 27.1914 371.255 25.9003C370.735 24.5663 370 23.4474 369.046 22.5438C368.093 21.597 366.989 20.8871 365.732 20.4138C364.476 19.8974 363.112 19.6391 361.639 19.6391C360.166 19.6391 358.78 19.8974 357.481 20.4138C356.223 20.8871 355.119 21.597 354.167 22.5438C353.256 23.4474 352.543 24.5663 352.022 25.9003C351.502 27.1914 351.242 28.6544 351.242 30.2896Z" fill="#3981F1"/>
<path d="M384.369 13.5713H398.794C403.516 13.5713 407.068 14.2383 409.452 15.5723C411.833 16.9063 413.026 19.2086 413.026 22.479C413.026 24.0282 412.679 25.3408 411.985 26.4165C411.293 27.4924 410.382 28.4607 409.257 29.3212C410.86 29.9238 412.05 30.935 412.831 32.3551C413.61 33.7322 414 35.3243 414 37.1318C414 40.4884 412.809 43.0058 410.426 44.684C408.044 46.3192 404.687 47.1368 400.354 47.1368H384.369V13.5713ZM391.778 33.2587V40.4883H399.64C401.848 40.4883 403.516 40.2086 404.644 39.6491C405.769 39.0898 406.333 38.1861 406.333 36.9381C406.333 35.6041 405.791 34.6573 404.709 34.098C403.668 33.5385 402.043 33.2587 399.835 33.2587H391.778ZM391.778 20.2199V26.8683H400.484C402 26.8683 403.193 26.5888 404.058 26.0293C404.926 25.4699 405.357 24.6092 405.357 23.4472C405.357 22.0703 404.774 21.1881 403.603 20.8009C402.477 20.4136 400.809 20.2199 398.599 20.2199H391.778Z" fill="#3981F1"/>
</g>
<defs>
<clipPath id="clip0_542_1193">
<rect width="414" height="63" fill="white"/>
</clipPath>
</defs>
</svg>
