<svg width="196" height="278" viewBox="0 0 196 278" fill="none" xmlns="http://www.w3.org/2000/svg">
  <g clip-path="url(#clip0_484_3507)">
    <path d="M194.167 277.237C193.79 276.824 193.786 276.049 193.739 275.503C193.121 268.337 193.88 260.286 193.415 252.871C192.589 239.732 190.358 226.697 189.077 213.615C187.552 198.036 186.919 182.316 186.063 166.717C184.889 145.291 186.899 123.229 164.687 111.822C152.96 105.798 127.409 101.477 120.767 90.0127C117.375 84.1626 116.589 73.5877 117.275 66.9651C118.429 55.7976 125.931 48.1761 126.586 35.983C128.607 -1.74827 79.2446 -10.2421 65.6114 22.5213C62.5141 29.9664 63.0426 37.2482 59.3767 44.923C58.2663 47.2471 55.0285 51.5623 55.1924 53.9063C55.4265 57.3026 61.999 55.2415 62.9389 57.1061C63.3135 57.8486 63.2734 64.0484 63.4373 65.59C64.3771 74.3835 65.7284 80.9529 76.2578 80.0206C77.6726 79.894 80.9103 78.712 81.6629 78.7486C82.071 78.7686 82.7399 79.2647 82.8001 79.6044C83.0309 80.9329 78.7228 81.4057 77.8532 81.7719C78.5389 87.8718 78.1174 92.7996 72.7658 96.4989C60.1393 105.229 40.7999 105.023 28.3507 115.484C14.3327 127.268 16.0821 142.694 14.6538 159.062C12.6838 181.631 9.0547 203.959 5.68986 226.311C3.19801 242.866 3.31173 258.122 1.95376 274.484C1.88017 275.386 1.75642 278.056 0.458648 277.647L0.000414769 277.101C-0.00627477 272.915 0.0673101 268.68 0.267996 264.502C1.93369 229.497 9.51293 195.289 12.6436 160.398C13.9046 146.333 12.3326 132.698 21.0591 120.545C32.147 105.106 51.8242 104.696 67.6717 97.0915C74.8931 93.6254 77.1909 90.4756 75.7995 82.0616C61.4036 83.5533 61.7314 68.2204 61.0959 58.1116C46.2017 58.398 57.0019 46.6111 59.4302 39.9919C62.1362 32.6134 61.1528 25.9642 65.3806 18.306C83.0142 -13.6317 131.48 -1.84483 128.252 38.65C127.352 49.9374 119.586 57.9452 118.904 69.5922C118.579 75.166 119.653 84.146 122.402 89.0538C128.543 100.008 157.188 104.889 168.66 111.862C190.321 125.027 186.866 151.551 188.07 173.37C188.615 183.209 189.274 193.151 190.074 202.973C191.689 222.811 195.171 242.606 195.763 262.504C195.877 266.293 196.211 272.622 195.763 276.172C195.639 277.144 194.947 278.1 194.154 277.237H194.167Z" fill="white" />
    <path d="M37.6755 155.607C40.1373 165.146 41.7996 174.938 43.0071 184.724C45.3986 204.099 47.1178 225.405 45.7197 244.887C44.9236 255.975 42.9636 267.119 40.8664 278L39.6857 277.84L39.3579 276.838C42.4619 259.364 44.7765 241.714 44.3985 223.917L42.7094 199.151L42.1408 200.074C36.565 225.275 33.6919 250.947 29.6213 276.428C29.3069 277.371 27.6981 277.188 27.668 276.159C29.2333 266.276 30.8187 256.391 32.2971 246.495C33.2169 240.355 33.809 234.149 34.7957 228.026C36.5784 216.978 41.047 202.927 41.7026 192.326C42.1241 185.487 39.3512 171.915 37.9297 164.823C37.515 162.749 36.0132 158.44 36.0132 156.722C36.0132 156.356 36.0098 155.946 36.341 155.716L37.6722 155.6L37.6755 155.607Z" fill="white" />
    <path d="M168.359 276.991L166.734 276.948L153.652 204.812L152.99 208.304C152.15 222.825 151.873 237.372 153.324 251.872C154.181 260.416 155.953 268.9 156.609 277.437L155.823 278.003L155.024 277.46C153.495 267.372 151.799 257.11 150.986 246.888C148.893 220.594 151.682 188.776 156.77 162.838C156.98 161.766 157.91 156.092 158.519 155.919C159.128 155.746 159.944 156.352 159.927 157.005C157.736 168.552 155.274 180.266 154.328 192.009C153.559 201.545 157.465 214.917 159.235 224.709C162.375 242.12 165.539 259.534 168.362 276.998L168.359 276.991Z" fill="white" />
    <path d="M110.819 140.37C134.7 139.122 133.754 175.947 109.718 173.533C90.2015 171.575 90.5494 141.429 110.819 140.37ZM110.143 142.365C91.1782 144.556 93.7771 173.73 113.688 171.509C132.827 169.374 129.362 140.147 110.143 142.365Z" fill="white" />
    <path d="M128.513 201.236C130.275 200.983 135.881 201.106 137.38 201.882C138.116 202.265 138.236 203.237 137.631 203.666C137.072 204.066 132.349 202.787 131.115 202.801C124.506 202.884 120.833 209.084 115.793 212.19C111.959 214.554 108.725 214.567 104.972 216.056C102.701 216.955 101.734 219.042 100.524 219.612C99.159 220.251 98.9985 219.029 99.4968 217.92C101.296 213.925 109.374 213.335 113.113 211.518C118.351 208.974 122.703 202.071 128.513 201.236Z" fill="white" />
    <path d="M126.844 218.197C129.61 217.794 132.3 218.29 134.835 219.382C135.618 219.718 140.474 222.349 138.076 223.075C137.29 223.311 134.059 221.014 132.604 220.604C123.125 217.94 120.914 225.635 113.241 227.273C110.806 227.793 107.177 227.773 104.796 226.997C103.518 226.581 102.902 225.782 104.077 224.786C106.448 225.372 108.883 225.938 111.345 225.718C117.502 225.166 120.998 219.046 126.841 218.197H126.844Z" fill="white" />
    <path d="M133.273 130.957L141.755 129.376C142.354 129.599 142.929 130.341 142.484 130.977L133.029 133.208C131.156 134.041 128.202 139.025 126.108 140.287C124.931 140.996 123.931 140.42 124.406 139.285C124.65 138.702 127.701 136.118 128.433 135.286C129.216 134.397 130.915 132.489 131.286 131.473C131.989 129.556 132.035 123.203 132.584 122.454C133.163 121.661 133.955 122.061 134.206 122.876C134.681 124.425 133.594 129.156 133.273 130.954V130.957Z" fill="white" />
    <path d="M94.5111 119.816C94.6549 119.353 95.8791 119.02 96.2169 119.51C97.0331 120.652 96.1735 127.035 96.5916 129.053C97.0097 131.07 100.431 135.069 101.043 137.27C101.502 138.912 100.471 139.614 99.3711 138.262C97.983 136.554 96.0263 130.827 94.8356 129.805C93.2869 128.48 87.9052 127.558 86.0254 126.269C84.9986 125.563 85.5639 124.564 86.5941 124.365L94.5111 127.634V119.816Z" fill="white" />
    <path d="M91.0025 156.242C91.9858 156.522 91.4908 158.014 90.2633 158.173C89.7248 158.243 89.2297 157.894 88.7013 157.937C87.1493 158.06 83.2827 158.07 82.2358 158.49C80.3628 159.239 76.0881 163.827 74.2987 163.92C73.5294 163.96 73.3956 162.922 73.7602 162.385C74.2218 161.713 81.1153 157.351 80.8143 156.912C79.7172 156.475 73.9274 152.653 73.8237 152.037C73.7033 151.314 74.5663 150.855 75.359 151.168C76.9444 151.794 82.2057 156.242 82.6506 156.242H91.0058H91.0025Z" fill="white" />
    <path d="M109.795 148.338C124.111 145.92 123.84 167.423 110.08 165.525C101.059 164.28 100.861 149.846 109.795 148.338ZM116.779 152.037C110.531 145.817 100.801 155.457 106.875 161.73C113.08 168.136 123.061 158.293 116.779 152.037Z" fill="white" />
  </g>
  <defs>
    <clipPath id="clip0_484_3507">
      <rect width="196" height="278" fill="white" />
    </clipPath>
  </defs>
</svg>