<svg width="24" height="24" viewBox="0 0 24 24" fill="none" xmlns="http://www.w3.org/2000/svg">
  <g clip-path="url(#clip0_489_12927)">
    <path d="M10.6347 15.0822C10.249 14.2845 9.80375 13.5215 9.299 12.7932C8.54975 11.643 7.71375 10.352 7.18825 8.80273H0V16.8357H7.98425V24.82H9.053C9.46525 24.2587 9.82425 23.6655 10.1302 23.04C10.4365 22.4147 10.6845 21.767 10.8747 21.0972C11.4855 19.0007 11.398 16.8085 10.6347 15.0822Z" fill="white" />
    <path d="M24.0015 8.8026H16.0175V0.818604H15.8335C15.2283 1.0416 14.6745 1.3556 14.1728 1.76085C12.649 2.9986 11.82 4.8551 12.3613 6.7851C12.633 7.75385 13.241 8.68685 13.9445 9.76735C14.6165 10.7431 15.2035 11.7674 15.7055 12.8404C15.9813 13.4751 16.2058 14.1276 16.3788 14.7976C16.5518 15.4676 16.6715 16.1471 16.7378 16.8359H24.0015V8.8026Z" fill="white" />
    <path d="M12.2387 0.339473C12.3797 0.190723 12.4157 0.139223 12.4117 0.121473C12.4082 0.104223 12.3627 0.115473 12.3575 0.107473L12.3405 0.0802233L12.328 0.0599733C12.324 0.0537234 12.3257 0.0452233 12.3062 0.0462233C12.2792 0.0502233 12.2532 0.0574734 12.2282 0.0679733C12.186 0.0844733 12.1447 0.103223 12.1045 0.123973C12.0545 0.149223 11.984 0.189223 11.9392 0.207473C11.9035 0.221723 11.8982 0.218223 11.894 0.212973C11.8847 0.201473 11.9077 0.174973 11.8975 0.164973C11.8872 0.154723 11.8142 0.178223 11.719 0.221723C11.646 0.253223 11.568 0.295973 11.4972 0.335723C11.4377 0.366223 11.385 0.405973 11.339 0.454473C11.297 0.506723 11.4037 0.518973 11.4445 0.526473C11.468 0.531223 11.453 0.566973 11.3927 0.620473C11.2915 0.711473 11.1222 0.803973 11.1077 0.892223C11.096 0.980724 11.2207 0.965474 11.2592 1.00497C11.284 1.02972 11.3187 1.04222 11.341 1.06972C11.365 1.10047 11.3827 1.13397 11.3942 1.17097C11.4037 1.19922 11.4127 1.23147 11.4435 1.22947C11.4867 1.22547 11.5405 1.16472 11.594 1.08572C11.646 1.00547 11.7095 0.918224 11.757 0.852223C11.8605 0.721723 11.9722 0.598973 12.0925 0.483973L12.2387 0.339473Z" fill="white" />
    <path d="M11.1517 1.81864C11.244 1.65789 11.218 1.56514 11.1622 1.50914C11.1047 1.46714 11.0437 1.43089 10.979 1.40064L10.8677 1.30589L10.7855 1.23539C10.7622 1.20914 10.734 1.19014 10.701 1.17839C10.665 1.17264 10.632 1.18014 10.602 1.20089C10.561 1.22614 10.524 1.25639 10.4915 1.29189C10.4497 1.33314 10.4095 1.40839 10.363 1.43539C10.3267 1.45714 10.3122 1.44989 10.2977 1.43989C10.2647 1.41739 10.2587 1.36864 10.2255 1.34764C10.1917 1.32614 10.1172 1.36964 10.0425 1.45114C9.91849 1.55864 9.83524 1.69139 9.79224 1.84964C9.79099 1.92839 9.95349 1.93214 10.0225 1.94114C10.0625 1.94664 10.0787 1.99714 10.0467 2.07364C9.99599 2.20414 9.83999 2.33864 9.89824 2.44839C9.95524 2.55389 10.1195 2.52089 10.209 2.56439C10.2652 2.59114 10.327 2.60314 10.3817 2.63339C10.4382 2.66464 10.4907 2.70164 10.5392 2.74439C10.57 2.78114 10.609 2.80189 10.6567 2.80689C10.7865 2.79789 10.7902 2.52839 10.8435 2.38564C10.891 2.23814 10.959 2.10114 11.048 1.97439C11.084 1.92464 11.1182 1.87489 11.1517 1.81864Z" fill="white" />
    <path d="M10.5974 3.44622C10.6027 3.43022 10.6062 3.41397 10.6082 3.39747C10.6102 3.38097 10.6104 3.36422 10.6092 3.34772C10.6079 3.33097 10.6049 3.31472 10.6002 3.29872C10.5957 3.28272 10.5897 3.26722 10.5819 3.25247C10.5742 3.23747 10.5652 3.22372 10.5547 3.21072C10.5442 3.19772 10.5327 3.18572 10.5197 3.17497C10.5069 3.16447 10.4932 3.15497 10.4784 3.14722C10.4637 3.13922 10.4484 3.13272 10.4324 3.12797C10.3252 3.09122 10.2159 3.06147 10.1047 3.03872L9.88666 2.95422L9.72541 2.89172C9.67666 2.86722 9.62516 2.85147 9.57116 2.84422C9.52641 2.84197 9.48791 2.85647 9.45541 2.88747C9.41991 2.92222 9.39291 2.96297 9.37441 3.00922C9.34941 3.06272 9.34416 3.15072 9.30166 3.18922C9.29141 3.20072 9.27891 3.20822 9.26391 3.21172C9.24891 3.21497 9.23441 3.21372 9.22016 3.20747C9.16366 3.19072 9.12366 3.13997 9.06716 3.12447C9.00791 3.10822 8.94766 3.17272 8.90091 3.27472C8.83166 3.42922 8.75991 3.63047 8.81966 3.74447C8.86166 3.82547 9.06566 3.79222 9.15841 3.78647C9.21141 3.78272 9.26041 3.83122 9.25741 3.91522C9.25391 4.05697 9.12641 4.22772 9.24291 4.32247C9.36066 4.41397 9.55091 4.34372 9.68316 4.36697C9.76541 4.38047 9.84916 4.37872 9.93116 4.39622C10.0144 4.41397 10.0957 4.43847 10.1747 4.46972C10.2294 4.49872 10.2874 4.51022 10.3489 4.50472C10.4314 4.48597 10.4532 4.41322 10.4519 4.32472C10.4489 4.23622 10.4357 4.13372 10.4364 4.05847C10.4389 3.90522 10.4707 3.75822 10.5317 3.61747C10.5582 3.56222 10.5799 3.50497 10.5974 3.44622Z" fill="white" />
    <path d="M10.4767 5.12711C10.4772 4.95211 10.3407 4.88736 10.1735 4.86336C10.0082 4.83936 9.81622 4.86161 9.73422 4.85361L9.43447 4.82286L9.21247 4.80011C9.14347 4.78811 9.07447 4.78486 9.00472 4.79061C8.95297 4.79711 8.91097 4.82061 8.87872 4.86136C8.84947 4.90361 8.83297 4.95036 8.82947 5.00136C8.82347 5.06061 8.84447 5.14811 8.80872 5.19686C8.79897 5.21161 8.78597 5.22261 8.76972 5.22961C8.75347 5.23661 8.73647 5.23861 8.71897 5.23561C8.64522 5.23361 8.57747 5.19361 8.50397 5.19286C8.42647 5.19186 8.38347 5.27136 8.36572 5.38411C8.33722 5.55461 8.33297 5.77186 8.43922 5.86786C8.51722 5.93586 8.74247 5.84861 8.84922 5.81836C8.86647 5.81411 8.88372 5.81361 8.90097 5.81636C8.91847 5.81911 8.93472 5.82511 8.94972 5.83436C8.96472 5.84386 8.97722 5.85561 8.98772 5.86986C8.99797 5.88436 9.00497 5.90011 9.00897 5.91711C9.04947 6.05586 8.95497 6.25661 9.11947 6.31636C9.28097 6.37261 9.48197 6.25211 9.64197 6.23836C9.74097 6.22886 9.83747 6.20436 9.93722 6.19861C10.038 6.19311 10.1385 6.19436 10.2392 6.20236C10.3105 6.21461 10.381 6.20986 10.45 6.18811C10.6335 6.10936 10.4727 5.88861 10.4412 5.74411C10.426 5.67086 10.4172 5.59661 10.415 5.52161C10.4162 5.44836 10.4247 5.37586 10.4405 5.30436C10.4582 5.24661 10.4705 5.18736 10.4767 5.12711Z" fill="white" />
    <path d="M10.7341 6.73912C10.7043 6.57312 10.5253 6.55212 10.3313 6.57612C10.1371 6.59987 9.92508 6.67512 9.83033 6.69087L9.48208 6.74662L9.22408 6.78762C9.14308 6.79537 9.06383 6.81212 8.98658 6.83762C8.93258 6.85662 8.89283 6.89137 8.86683 6.94237C8.84583 6.99112 8.84058 7.04137 8.85033 7.09362C8.86133 7.15312 8.91283 7.23187 8.88708 7.28962C8.87908 7.30762 8.86708 7.32262 8.85108 7.33412C8.83508 7.34562 8.81708 7.35237 8.79758 7.35412C8.71483 7.37387 8.62808 7.35437 8.54608 7.37512C8.46033 7.39662 8.43133 7.48837 8.44908 7.60387C8.46083 7.69637 8.48308 7.78612 8.51583 7.87312C8.54608 7.95437 8.60008 8.01437 8.67733 8.05337C8.78158 8.09612 9.00283 7.94337 9.11158 7.88187C9.12808 7.87237 9.14583 7.86637 9.16483 7.86387C9.18383 7.86112 9.20258 7.86187 9.22108 7.86637C9.23958 7.87087 9.25683 7.87862 9.27258 7.88962C9.28808 7.90037 9.30133 7.91387 9.31183 7.92987C9.39108 8.05312 9.34308 8.27462 9.53708 8.28212C9.72583 8.28787 9.91008 8.11162 10.0791 8.05012C10.1831 8.01112 10.2808 7.95862 10.3868 7.92312C10.4936 7.88762 10.6021 7.85862 10.7123 7.83637C10.7923 7.82687 10.8666 7.80137 10.9353 7.75962C10.9531 7.74862 10.9678 7.73437 10.9796 7.71712C10.9916 7.69987 10.9991 7.68087 11.0028 7.66012C11.0066 7.63962 11.0058 7.61912 11.0006 7.59887C10.9956 7.57862 10.9866 7.56037 10.9736 7.54387C10.9353 7.46962 10.8653 7.39412 10.8308 7.33112C10.7941 7.26737 10.7681 7.19962 10.7531 7.12737C10.7363 7.05787 10.7301 6.98712 10.7341 6.91562C10.7423 6.85687 10.7423 6.79787 10.7341 6.73912Z" fill="white" />
    <path d="M11.3535 8.23173C11.2233 7.90723 10.5813 8.34698 10.3875 8.43648L10.0305 8.59173L9.76579 8.70648C9.68179 8.73748 9.60154 8.77648 9.52529 8.82373C9.47379 8.85573 9.43954 8.90098 9.42254 8.95898C9.41179 9.01098 9.41804 9.06073 9.44129 9.10823C9.46379 9.16373 9.53804 9.22198 9.52354 9.28448C9.51829 9.30473 9.50854 9.32248 9.49454 9.33773C9.48029 9.35298 9.46329 9.36398 9.44354 9.37048C9.36054 9.41198 9.26454 9.41823 9.18254 9.46073C9.09554 9.50573 9.08979 9.59748 9.12979 9.70148C9.18804 9.86198 9.29079 10.0397 9.45129 10.0615C9.56704 10.076 9.77229 9.87673 9.87504 9.79023C9.88979 9.77698 9.90679 9.76698 9.92529 9.75973C9.94379 9.75248 9.96304 9.74898 9.98304 9.74873C10.003 9.74848 10.0223 9.75173 10.041 9.75848C10.0598 9.76548 10.0768 9.77523 10.092 9.78823C10.197 9.88898 10.1838 10.1107 10.3833 10.079C10.5798 10.0455 10.746 9.83323 10.9123 9.73648C11.0148 9.67623 11.1085 9.60298 11.2135 9.54573C11.3188 9.48848 11.4273 9.43773 11.539 9.39373C11.6213 9.36898 11.6948 9.32848 11.7595 9.27198C11.9275 9.09598 11.665 8.95473 11.574 8.83398C11.4745 8.71148 11.4135 8.57223 11.391 8.41598C11.3855 8.35298 11.373 8.29173 11.3535 8.23173Z" fill="white" />
    <path d="M12.2687 9.72304C12.1757 9.55279 11.9799 9.61204 11.7809 9.72604C11.5827 9.84079 11.3832 10.0145 11.2877 10.0735L10.9367 10.29L10.6764 10.4503C10.5932 10.4958 10.5147 10.5485 10.4412 10.6085C10.3927 10.6475 10.3624 10.6973 10.3497 10.7583C10.3437 10.809 10.3554 10.8555 10.3852 10.8975C10.4157 10.9445 10.4944 10.9913 10.4849 11.0533C10.4759 11.098 10.4509 11.1298 10.4097 11.1488C10.3279 11.202 10.2302 11.2235 10.1494 11.2778C10.1309 11.2905 10.1157 11.3065 10.1034 11.3258C10.0914 11.3448 10.0837 11.3655 10.0802 11.3878C10.0767 11.41 10.0777 11.4323 10.0834 11.454C10.0889 11.476 10.0987 11.496 10.1124 11.5138C10.1852 11.6505 10.2932 11.8063 10.4582 11.8055C10.5767 11.8045 10.7772 11.5898 10.8777 11.4933C10.8919 11.4788 10.9082 11.4668 10.9264 11.4578C10.9444 11.4488 10.9637 11.443 10.9839 11.4405C11.0042 11.4383 11.0242 11.4393 11.0442 11.4438C11.0639 11.4483 11.0824 11.4558 11.0997 11.4668C11.2144 11.552 11.2032 11.7745 11.4067 11.7265C11.6067 11.6795 11.7699 11.4573 11.9367 11.348C12.0397 11.281 12.1329 11.2008 12.2384 11.1363C12.3442 11.0718 12.4537 11.0143 12.5669 10.964C12.6509 10.9353 12.7249 10.8898 12.7887 10.8278C12.9547 10.6355 12.6704 10.4838 12.5644 10.3613C12.4509 10.2335 12.3727 10.0865 12.3299 9.92079C12.3182 9.85229 12.2977 9.78629 12.2687 9.72304Z" fill="white" />
    <path d="M13.3334 11.3212C13.2331 11.1299 13.0309 11.1934 12.8296 11.3137C12.6281 11.4352 12.4269 11.6179 12.3296 11.6797L11.9731 11.9074L11.7089 12.0762C11.6244 12.1244 11.5449 12.1794 11.4699 12.2417C11.4216 12.2807 11.3906 12.3304 11.3766 12.3909C11.3696 12.4394 11.3804 12.4834 11.4089 12.5232C11.4381 12.5677 11.5156 12.6107 11.5044 12.6707C11.4934 12.7144 11.4671 12.7457 11.4259 12.7642C11.3419 12.8172 11.2429 12.8409 11.1599 12.8952C11.1414 12.9062 11.1259 12.9204 11.1134 12.9377C11.1006 12.9552 11.0921 12.9747 11.0876 12.9957C11.0831 13.0167 11.0831 13.0377 11.0874 13.0589C11.0919 13.0799 11.1001 13.0992 11.1126 13.1169C11.1751 13.2419 11.2736 13.3854 11.4384 13.3842C11.5546 13.3834 11.7721 13.1834 11.8774 13.0919C11.8921 13.0779 11.9089 13.0669 11.9274 13.0584C11.9459 13.0502 11.9651 13.0449 11.9854 13.0432C12.0054 13.0412 12.0254 13.0427 12.0451 13.0474C12.0649 13.0524 12.0831 13.0602 12.1004 13.0712C12.2081 13.1594 12.1801 13.3734 12.3876 13.3384C12.5901 13.3059 12.7729 13.0979 12.9474 13.0009C13.0554 12.9417 13.1546 12.8682 13.2651 12.8117C13.3761 12.7549 13.4904 12.7062 13.6081 12.6654C13.6951 12.6447 13.7729 12.6052 13.8409 12.5469C14.0184 12.3622 13.7401 12.1677 13.6331 12.0267C13.5209 11.8797 13.4424 11.7167 13.3979 11.5372C13.3854 11.4624 13.3639 11.3904 13.3334 11.3212Z" fill="white" />
    <path d="M14.3468 13.1525C14.2666 12.9325 14.0578 12.9653 13.8448 13.0653C13.6323 13.1648 13.4143 13.326 13.3113 13.3765L12.9333 13.5643L12.6533 13.703C12.5646 13.742 12.4796 13.788 12.3983 13.841C12.3468 13.8738 12.3096 13.9185 12.2871 13.9755C12.2736 14.0203 12.2786 14.0633 12.3018 14.104C12.3251 14.1485 12.3961 14.197 12.3773 14.2523C12.3601 14.2928 12.3301 14.3193 12.2878 14.3315C12.1983 14.372 12.0978 14.3845 12.0091 14.4265C11.9903 14.434 11.9736 14.4445 11.9591 14.4588C11.9443 14.473 11.9333 14.4895 11.9256 14.5083C11.9181 14.527 11.9143 14.5468 11.9148 14.567C11.9153 14.5873 11.9196 14.6068 11.9281 14.625C11.9353 14.6593 11.9473 14.692 11.9636 14.7228C11.9801 14.7538 12.0006 14.7818 12.0248 14.807C12.0491 14.832 12.0766 14.8533 12.1068 14.8708C12.1373 14.8883 12.1693 14.901 12.2033 14.9095C12.3166 14.926 12.5591 14.7705 12.6776 14.6988C12.6941 14.6878 12.7121 14.6798 12.7311 14.6745C12.7503 14.6695 12.7698 14.6678 12.7898 14.669C12.8096 14.6705 12.8286 14.6753 12.8468 14.683C12.8651 14.691 12.8816 14.7015 12.8963 14.715C12.9863 14.8185 12.9243 15.019 13.1311 15.0223C13.3313 15.0285 13.5436 14.8603 13.7278 14.798C13.8421 14.7603 13.9503 14.7068 14.0666 14.6723C14.1831 14.6375 14.3016 14.6118 14.4221 14.5948C14.5096 14.5915 14.5913 14.5678 14.6668 14.523C14.8693 14.372 14.6328 14.1173 14.5533 13.9498C14.4626 13.7743 14.4076 13.588 14.3883 13.3915C14.3836 13.3103 14.3696 13.2305 14.3468 13.1525Z" fill="white" />
    <path d="M15.0318 15.2259C15.0015 14.9949 14.794 14.9849 14.5735 15.0401C14.3528 15.0951 14.1158 15.2101 14.0085 15.2391L13.6143 15.3474L13.3225 15.4276C13.2308 15.4479 13.1418 15.4761 13.055 15.5116C13 15.5336 12.9575 15.5701 12.9268 15.6206C12.9063 15.6624 12.9038 15.7054 12.919 15.7494C12.9333 15.7976 12.993 15.8594 12.9658 15.9099C12.9428 15.9459 12.91 15.9659 12.8675 15.9696C12.7755 15.9914 12.6778 15.9834 12.5863 16.0071C12.5665 16.0106 12.5485 16.0181 12.5323 16.0296C12.516 16.0409 12.5028 16.0554 12.4928 16.0726C12.4828 16.0899 12.4768 16.1084 12.4748 16.1281C12.4728 16.1481 12.4753 16.1674 12.4818 16.1861C12.483 16.2219 12.489 16.2566 12.4998 16.2906C12.5105 16.3246 12.5255 16.3564 12.545 16.3864C12.5643 16.4164 12.5875 16.4431 12.614 16.4666C12.6408 16.4904 12.67 16.5101 12.702 16.5259C12.809 16.5644 13.0588 16.4579 13.181 16.4109C13.1988 16.4031 13.2175 16.3989 13.237 16.3976C13.2563 16.3964 13.2755 16.3986 13.2943 16.4039C13.3128 16.4091 13.3303 16.4174 13.346 16.4284C13.362 16.4396 13.3758 16.4531 13.387 16.4689C13.4545 16.5884 13.364 16.7751 13.5563 16.8176C13.7443 16.8614 13.9655 16.7356 14.149 16.7091C14.2618 16.6934 14.3715 16.6614 14.4855 16.6491C14.5995 16.6369 14.714 16.6336 14.8285 16.6394C14.9105 16.6524 14.9903 16.6441 15.068 16.6146C15.2818 16.5056 15.119 16.2159 15.0693 16.0394C15.0215 15.8516 15.0063 15.6614 15.023 15.4684C15.0348 15.3879 15.0378 15.3071 15.0318 15.2259Z" fill="white" />
    <path d="M15.2789 17.3595C15.2919 17.131 15.1007 17.0848 14.8899 17.099C14.6772 17.1133 14.4392 17.183 14.3357 17.1923L13.9547 17.2275L13.6724 17.2535C13.5847 17.257 13.4979 17.2685 13.4122 17.2883C13.3574 17.3 13.3132 17.328 13.2792 17.3728C13.2559 17.412 13.2479 17.4543 13.2549 17.4993C13.2614 17.55 13.3069 17.6223 13.2747 17.6678C13.2492 17.6998 13.2162 17.7138 13.1757 17.71C13.0882 17.7155 12.9994 17.69 12.9122 17.6973C12.8197 17.705 12.7877 17.7708 12.7937 17.859C12.7964 17.9305 12.8077 18.0008 12.8272 18.0698C12.8477 18.1418 12.8894 18.1983 12.9524 18.239C13.0444 18.296 13.2847 18.231 13.4024 18.2048C13.4204 18.2008 13.4384 18.1998 13.4567 18.202C13.4749 18.2045 13.4924 18.2098 13.5087 18.2183C13.5252 18.2268 13.5394 18.2378 13.5519 18.2513C13.5644 18.2648 13.5742 18.28 13.5814 18.297C13.6304 18.4268 13.5179 18.5983 13.6849 18.6713C13.8462 18.7445 14.0629 18.6553 14.2312 18.6583C14.3344 18.6608 14.4377 18.6468 14.5414 18.653C14.6452 18.659 14.7477 18.6738 14.8489 18.6975C14.9202 18.723 14.9927 18.7275 15.0664 18.711C15.0894 18.7015 15.1104 18.6885 15.1292 18.6723C15.1479 18.6558 15.1634 18.6368 15.1759 18.615C15.1882 18.5935 15.1967 18.5705 15.2014 18.546C15.2059 18.5215 15.2064 18.4968 15.2029 18.4723C15.2062 18.3643 15.1717 18.2433 15.1677 18.153C15.1589 17.9633 15.1782 17.7763 15.2259 17.5925C15.2514 17.5165 15.2692 17.4388 15.2789 17.3595Z" fill="white" />
    <path d="M15.1258 19.4653C15.2201 19.025 14.5051 19.1775 14.3228 19.1623L13.9808 19.1395L13.7276 19.1225C13.6493 19.1125 13.5711 19.111 13.4926 19.1173C13.4688 19.1178 13.4461 19.1233 13.4246 19.1333C13.4031 19.1433 13.3843 19.1573 13.3688 19.175C13.3531 19.1928 13.3418 19.2133 13.3346 19.2358C13.3276 19.2585 13.3253 19.2815 13.3278 19.3053C13.3286 19.357 13.3568 19.436 13.3226 19.4768C13.3111 19.4898 13.2971 19.4988 13.2803 19.5038C13.2638 19.5088 13.2471 19.5093 13.2303 19.5048C13.1533 19.4978 13.0791 19.4593 13.0016 19.4538C12.9198 19.4483 12.8836 19.51 12.8778 19.6003C12.8653 19.6715 12.8671 19.7425 12.8833 19.813C12.8998 19.8835 12.9291 19.9483 12.9716 20.007C13.0431 20.0765 13.2576 20.043 13.3626 20.0325C13.3793 20.0315 13.3958 20.0338 13.4118 20.039C13.4278 20.0443 13.4423 20.0523 13.4553 20.063C13.4683 20.0738 13.4788 20.0865 13.4871 20.1015C13.4953 20.1163 13.5003 20.132 13.5026 20.1488C13.5268 20.2845 13.4103 20.4418 13.5386 20.535C13.6636 20.6275 13.8608 20.566 14.0031 20.5903C14.0901 20.6058 14.1801 20.605 14.2668 20.624C14.3536 20.643 14.4378 20.6703 14.5193 20.706C14.5753 20.74 14.6358 20.7533 14.7011 20.7463C14.7968 20.725 14.8416 20.6373 14.8616 20.5328C14.8793 20.4278 14.8753 20.3068 14.8876 20.2188C14.9018 20.127 14.9208 20.0363 14.9453 19.9465C14.9686 19.8563 14.9993 19.7685 15.0376 19.6833C15.0738 19.6135 15.1033 19.5408 15.1258 19.4653Z" fill="white" />
    <path d="M14.606 21.4816C14.7732 21.0696 14.145 21.1316 13.997 21.0963L13.716 21.0346L13.508 20.9886C13.4445 20.9698 13.3797 20.9593 13.3135 20.9568C13.2672 20.9558 13.2282 20.9723 13.1967 21.0063C13.169 21.0416 13.1532 21.0813 13.1495 21.1258C13.1422 21.1778 13.1592 21.2611 13.1232 21.2978C13.1135 21.3093 13.1012 21.3166 13.0865 21.3201C13.0717 21.3233 13.0575 21.3221 13.0437 21.3163C12.982 21.3011 12.927 21.2548 12.8645 21.2413C12.7982 21.2271 12.7602 21.2858 12.7442 21.3768C12.7062 21.5201 12.7137 21.6611 12.767 21.7996C12.814 21.8766 12.9885 21.8596 13.074 21.8583C13.1222 21.8578 13.169 21.9061 13.1672 21.9866C13.1642 22.1241 13.0475 22.2716 13.1337 22.3733C13.2157 22.4731 13.379 22.4256 13.4862 22.4598C13.5512 22.4811 13.622 22.4866 13.6865 22.5116C13.7512 22.5363 13.812 22.5688 13.8687 22.6088C13.906 22.6456 13.9507 22.6631 14.0032 22.6608C14.1645 22.6346 14.2092 22.3421 14.2615 22.1788C14.3182 22.0038 14.3952 21.8381 14.4922 21.6821C14.537 21.6188 14.5747 21.5521 14.606 21.4816Z" fill="white" />
    <path d="M13.7605 23.3488C13.8757 23.1605 13.807 23.0698 13.6965 23.0225C13.594 22.9913 13.4897 22.9668 13.384 22.949L13.1825 22.8738L13.0332 22.818C12.9885 22.7963 12.9412 22.7825 12.8917 22.7768C12.8525 22.775 12.8205 22.7893 12.7957 22.8198C12.769 22.8545 12.7507 22.8933 12.7412 22.936C12.735 22.9948 12.7185 23.0505 12.6917 23.1033C12.6852 23.1138 12.6762 23.1203 12.6645 23.1233C12.6525 23.1263 12.6415 23.1248 12.631 23.1188C12.5887 23.1015 12.556 23.0538 12.5127 23.0383C12.4667 23.0215 12.4322 23.0798 12.4065 23.169C12.3582 23.3028 12.3392 23.4405 12.3497 23.5825C12.3677 23.658 12.4892 23.6448 12.5492 23.646C12.5827 23.6465 12.6055 23.694 12.5862 23.7708C12.5495 23.8993 12.4382 24.0398 12.4665 24.135C12.4927 24.2288 12.6152 24.1868 12.6782 24.2205C12.716 24.241 12.7625 24.2478 12.7987 24.2718C12.8357 24.2963 12.8667 24.3268 12.8915 24.3635C12.9095 24.3898 12.9247 24.4195 12.9662 24.4133C13.089 24.3963 13.222 24.1343 13.3095 23.9828C13.404 23.8255 13.508 23.6748 13.6215 23.5308C13.6712 23.4728 13.7175 23.412 13.7605 23.3488Z" fill="white" />
  </g>
  <defs>
    <clipPath id="clip0_489_12927">
      <rect width="24" height="24" fill="white" />
    </clipPath>
  </defs>
</svg>