<svg width="28" height="29" viewBox="0 0 28 29" fill="none" xmlns="http://www.w3.org/2000/svg">
  <path d="M7.72333 13.0379C9.40333 16.4575 12.11 19.2487 15.4117 21.0008L17.9783 18.3425C18.2933 18.0163 18.76 17.9075 19.1683 18.0525C20.475 18.4996 21.8867 18.7413 23.3333 18.7413C23.975 18.7413 24.5 19.285 24.5 19.9496V24.1667C24.5 24.8313 23.975 25.375 23.3333 25.375C12.3783 25.375 3.5 16.1796 3.5 4.83333C3.5 4.16875 4.025 3.625 4.66667 3.625H8.75C9.39167 3.625 9.91667 4.16875 9.91667 4.83333C9.91667 6.34375 10.15 7.79375 10.5817 9.14708C10.71 9.57 10.6167 10.0413 10.29 10.3796L7.72333 13.0379Z" fill="#43A4A4" />
</svg>