<svg width="16" height="20" viewBox="0 0 16 20" fill="none" xmlns="http://www.w3.org/2000/svg">
<path d="M14.4241 2.67449C13.5947 1.82894 12.5991 1.15614 11.497 0.696529C10.395 0.236923 9.20936 0 8.01134 0C6.81331 0 5.62766 0.236923 4.52563 0.696529C3.4236 1.15614 2.42796 1.82894 1.59853 2.67449C0.0374191 4.6705 -0.442138 7.66452 0.43535 10.7384C1.33324 14.0617 3.73103 16.4669 5.65947 18.3931L6.59817 19.3911C6.78049 19.5803 6.99885 19.7329 7.24098 19.8402C7.48352 19.9456 7.74595 20 8.01134 20C8.27672 20 8.53915 19.9456 8.78169 19.8402C9.01932 19.7347 9.23407 19.5857 9.4143 19.4011L10.3632 18.4031C12.2916 16.4769 14.6894 14.0717 15.5873 10.7484C16.4138 7.66452 15.9853 4.6705 14.4241 2.67449ZM8.00624 10.908C7.24452 10.9082 6.50293 10.6688 5.89099 10.2251C5.27905 9.78147 4.82919 9.15709 4.60785 8.44419C4.38651 7.73129 4.40541 6.96767 4.66178 6.26609C4.91814 5.5645 5.39837 4.96215 6.03155 4.54799C6.66473 4.13382 7.4173 3.92979 8.17811 3.96603C8.93893 4.00227 9.66766 4.27686 10.2567 4.74925C10.8457 5.22163 11.2639 5.86677 11.4493 6.5894C11.6348 7.31203 11.5777 8.07384 11.2866 8.76233C11.0177 9.39617 10.5623 9.93758 9.97827 10.3178C9.39422 10.6981 8.70784 10.9 8.00624 10.8981V10.908Z" fill="white"/>
</svg>
