<svg width="71" height="71" viewBox="0 0 71 71" fill="none" xmlns="http://www.w3.org/2000/svg">
<circle cx="35.5" cy="35.5" r="35.5" fill="url(#paint0_linear_111_1678)"/>
<path d="M49.321 38.7793C49.7454 38.4509 50.0889 38.0296 50.3252 37.5479C50.5616 37.0661 50.6845 36.5366 50.6845 36C50.6845 35.4634 50.5616 34.9339 50.3252 34.4521C50.0889 33.9703 49.7454 33.5491 49.321 33.2207C43.825 28.9695 37.6888 25.618 31.1417 23.2913L29.9445 22.866C27.6565 22.0538 25.2383 23.6012 24.9285 25.9643C24.0632 32.6268 24.0632 39.3732 24.9285 46.0357C25.2402 48.3988 27.6565 49.9462 29.9445 49.134L31.1417 48.7087C37.6888 46.382 43.825 43.0305 49.321 38.7793Z" fill="white"/>
<defs>
<linearGradient id="paint0_linear_111_1678" x1="20.5" y1="9" x2="55" y2="68" gradientUnits="userSpaceOnUse">
<stop stop-color="#43A4A4"/>
<stop offset="1" stop-color="#8DA3DD"/>
</linearGradient>
</defs>
</svg>
