<svg width="321" height="295" viewBox="0 0 321 295" fill="none" xmlns="http://www.w3.org/2000/svg">
<g clip-path="url(#clip0_483_1173)">
<path d="M176.784 130.946C173.144 114.862 159.952 107.019 143.819 109.73C141.723 110.083 137.133 112.113 135.871 112.044C135.304 112.015 134.951 111.699 134.655 111.256V109.615C135.469 107.97 144.168 106.489 146.178 106.342C164.518 104.98 175.934 114.214 180.479 131.57C196.477 133.694 211.866 138.067 227.235 142.735C234.283 144.877 241.215 147.576 248.292 149.61C268.617 155.456 282.634 154.931 296.943 172.832C304.759 182.607 318.648 208.98 320.502 221.101C321.952 230.602 320.054 256.178 316.922 265.297C313.208 276.11 296.988 294.151 285.017 294.975C276.667 295.55 275.549 285.93 280.756 281.086C277.612 282.382 274.156 284.478 270.684 284.769C262.046 285.495 263.291 277.812 267.392 272.873C276.203 262.261 295.624 256.469 284.134 239.351C278.935 231.607 271.547 225.552 266.71 216.954C262.005 208.594 260.571 195.517 252.109 190.508C240.147 183.424 205.887 184.605 191.352 184.663C168.299 184.753 131.429 188.888 111.17 177.779C96.5899 169.784 85.4124 149.955 75.4554 136.722C57.333 112.638 38.7504 88.9408 19.798 65.5099C14.1805 58.5651 7.97119 51.7433 2.56324 44.5852C1.1414 42.7024 -2.40089 38.4526 2.54681 39.2689C22.9088 64.2956 43.62 89.2444 63.1232 114.989C74.5883 130.13 85.4289 146.977 97.494 161.49C108.236 174.416 119.911 180.905 137.141 181.803C160.487 183.022 179.069 162.282 178.046 139.331C177.997 138.252 177.697 134.105 176.941 133.867C165.344 132.021 149.424 132.476 139.841 124.957C132.642 119.304 128.175 111.318 123.856 103.585C104.098 68.2459 79.1086 35.4089 54.7976 3.11335C53.3469 -1.13639 56.1167 -0.537492 58.422 1.95246C64.2532 8.24503 71.3625 19.4724 76.6882 26.7905C92.5463 48.5929 107.233 70.3544 121.48 93.2439C128.29 104.184 135.987 122.328 148.931 126.553C157.557 129.367 167.826 129.531 176.784 130.946ZM281.286 290.401C284.31 294.073 292.053 289.786 295.024 287.739C315.447 273.694 317.625 254.931 318.164 231.668C318.517 216.347 309.587 200.386 302.334 187.136C286.34 157.925 273.227 160.038 244.178 151.661C236.662 149.496 229.364 146.649 221.889 144.376C208.344 140.254 194.549 136.549 180.479 134.646C181.699 139.093 181.444 143.798 180.832 148.326C179.866 155.452 176.332 165.022 171.298 169.78C165.796 174.982 154.08 181.652 153.772 182.222L219.333 181.795C231.941 182.911 254.637 182.439 261.384 195.607C264.433 201.555 265.49 208.869 268.765 214.903C273.749 224.1 289.977 238.642 290.98 247.695C292.509 261.486 268.904 269.6 267.622 278.448C266.648 285.167 277.694 279.502 280.308 277.976C297.082 268.181 305.724 256.178 299.351 236.472C298.685 234.416 295.163 226.865 295.591 225.568C295.928 224.551 297.082 224.777 297.834 225.273C300.469 227.012 304.224 242.157 304.533 245.656C306.271 265.297 293.557 268.283 284.109 281.361C282.65 283.379 279.383 288.096 281.286 290.406V290.401Z" fill="white"/>
<path d="M206.24 11.6417C207.756 11.9001 207.756 13.3235 207.514 14.5541C207.049 16.9333 203.462 23.2259 202.024 25.4902C198.49 31.0444 194.019 34.3343 189.724 39.0558C187.85 41.1191 186.433 43.646 184.189 45.4181C189.7 49.1017 203.91 45.9062 201.247 56.3009C200.17 60.5014 190.624 70.0674 187.542 74.2064C185.968 76.3189 179.323 87.2714 178.041 87.7022C175.621 88.5103 175.641 86.6602 176.439 84.8594C177.77 81.8526 183.042 74.8217 185.249 71.9174C188.742 67.319 193.488 62.9421 196.677 58.3027C202.361 50.0288 193.665 51.2799 187.875 49.9344C180.881 48.3059 178.115 47.2599 183.56 40.6966C189.005 34.1333 195.58 30.3143 200.01 22.2496C201.165 20.1494 204.132 11.8222 206.236 11.6376L206.24 11.6417Z" fill="white"/>
<path d="M116.668 237.308C119.068 240.254 114.31 246.345 112.604 248.807C107.467 256.219 102.803 259.956 100.149 269.19C99.5363 271.315 98.3693 279.441 97.0584 280.081C94.2517 281.459 95.353 274.789 95.5338 273.608C97.7447 259.337 105.051 254.369 112.44 243.716C113.171 242.662 114.914 240.557 113.956 239.413C111.906 236.952 95.4023 242.736 99.7295 233.075C103.054 225.65 109.752 216.556 113.989 209.16C114.741 207.852 118.908 199.459 119.467 199.459L121.152 201.707C115.879 213.34 108.252 223.817 101.998 234.95C102.047 237.411 110.414 235.778 112.473 235.967C113.537 236.066 116.027 236.517 116.672 237.308H116.668Z" fill="white"/>
<path d="M192.442 104.246C191.328 102.617 195.82 100.521 196.904 99.959C200.225 98.2485 217.969 92.1692 218.935 90.3479C219.74 88.8219 214.801 87.5831 213.712 86.9104C207.272 82.9437 211.628 79.3749 216.539 77.3074C222.724 74.7067 229.944 73.554 236.359 70.8385C239.387 69.5545 246.258 64.9766 248.917 65.2884C249.373 65.3417 249.829 65.3007 250.166 65.6945C250.433 66.0637 250.437 66.6749 250.294 67.1015C249.924 68.2255 235.492 74.3621 233.293 75.1662C228.53 76.9095 223.159 77.9186 218.59 79.7687C207.087 84.4245 219.264 84.5065 221.511 88.141C222.354 89.507 222.572 90.8524 221.581 92.1938C219.436 95.0981 205.559 99.5037 201.449 101.218C199.682 101.957 196.169 104.205 194.862 104.516C194.25 104.664 192.721 104.656 192.433 104.242L192.442 104.246Z" fill="white"/>
<path d="M157.512 82.5048C155.601 81.2291 160.134 65.0259 158.934 61.1946C157.512 56.6618 149.051 60.9567 148.825 54.4344C148.714 51.1979 152.108 44.5607 152.832 40.7868C153.522 37.1852 153.456 33.4852 153.382 29.8179C153.337 27.6028 151.919 25.1662 154.442 23.5007C156.177 23.9232 156.427 25.9127 156.6 27.4264C157.812 38.1 155.408 41.8862 152.527 51.1527C150.58 57.4125 153.3 55.222 157.57 56.4034C162.464 57.7571 162.661 61.9207 162.349 66.2935C162.213 68.2296 160.052 81.4219 159.333 82.1521C158.934 82.5541 157.907 82.7756 157.508 82.513L157.512 82.5048Z" fill="white"/>
<path d="M98.0855 189.692L99.8649 191.095C100.785 195.796 84.7013 207.544 80.9946 210.28C75.488 214.345 69.176 217.959 63.9982 222.439C60.1231 225.79 56.9465 229.921 53.3262 233.522C51.744 234.404 50.429 234.093 50.6345 232.103C50.9098 229.441 61.6394 220.617 64.2324 218.574C75.8702 209.41 89.9736 202.572 98.0855 189.696V189.692Z" fill="white"/>
</g>
<defs>
<clipPath id="clip0_483_1173">
<rect width="321" height="295" fill="white"/>
</clipPath>
</defs>
</svg>
