<svg width="273" height="319" viewBox="0 0 273 319" fill="none" xmlns="http://www.w3.org/2000/svg">
<g clip-path="url(#clip0_483_1239)">
<path d="M13.9592 204.439C18.4665 180.619 6.56031 165.122 2.08168 142.825C-7.8981 93.1542 18.7324 54.4254 66.3653 40.914C101.749 30.8785 142.604 36.8541 165.018 68.2513C166.098 69.7666 169.623 76.1792 170.413 76.7347C171.312 77.3678 172.466 76.9756 173.521 77.3024C177.693 78.5972 184.278 86.7457 187.804 89.9724C201.129 102.16 208.904 107.952 217.706 124.58C222.549 133.729 229.293 147.98 230.299 158.113C231.756 172.793 231.351 188.216 232.353 202.989C233.15 214.789 233.841 228.325 239.94 238.667C249.392 254.686 262.713 269.77 272.468 285.765C273.945 287.811 272.1 289.134 269.936 288.277C263.278 279.005 256.566 269.737 250.157 260.29C242.795 249.438 233.244 237.544 230.843 224.494C226.745 202.242 229.801 177.225 226.516 154.956C225.171 145.819 213.972 124.212 208.569 116.158C201.37 105.428 192.9 99.9793 183.914 91.4019C181.309 88.9145 177.538 83.5966 174.711 81.8198C170.752 79.3365 166.531 83.4904 168.106 87.6075C169.415 91.0303 181.01 100.041 184.343 103.214C188.344 107.025 192.904 111.399 196.597 115.459C205.456 125.213 209.886 137.765 217.453 148.499C217.784 149.332 217.796 150.39 217.052 151.006C216.393 151.595 215.677 151.341 215.027 150.917C214.005 150.247 208.683 141.62 207.657 139.913C204 133.823 201.068 126.01 196.593 120.765C187.538 110.15 175.235 101.192 165.529 90.9853C163.918 89.2944 159.84 82.9022 157.038 83.6905C154.482 84.4094 154.596 89.6701 155.324 91.79C159.611 104.199 176.973 115.541 186.38 124.837C196.708 135.04 201.591 149.07 207.027 162.181C206.908 163.717 204.745 163.313 203.837 162.692C199.366 153.661 196.094 143.487 190.339 135.163C184.364 126.516 175.513 120.569 167.971 113.433C165.3 110.909 156.016 100.184 153.59 99.6321C150.887 99.0154 149.459 101.311 149.815 103.802C150.093 105.771 153.893 110.954 155.308 112.613C162.49 121.022 172.683 127.974 178.572 137.532C185.186 148.266 190.454 169.644 191.836 182.232C193.362 196.127 191.084 210.688 193.17 224.563C195.174 237.915 205.362 247.518 211.714 259.089C219.604 273.458 227.011 290.638 233.637 305.746C234.083 306.763 235.972 310.631 235.437 311.346C234.807 312.187 232.349 311.864 231.993 310.651C222.393 291.156 215.142 269.97 203.006 251.864C199.464 246.579 195.558 242.531 193.1 236.457C186.765 220.789 189.857 206.935 189.039 190.732C188.511 180.267 183.235 153.245 178.347 144.283C178.004 143.65 177.758 142.637 176.769 142.805C169.312 156.19 178.785 169.06 183.206 181.46C184.924 186.28 186.634 191.692 183.652 196.401C180.793 200.923 167.398 200.343 165.378 204.268C163.472 207.96 167.685 219.527 159.202 217.477C159.079 218.392 159.999 218.629 160.314 219.417C162.576 225.086 154.596 227.712 152.584 232.295C150.195 237.736 154.314 243.732 150.388 250.504C143.774 261.907 124.129 256.3 114.244 253.191C108.047 251.239 107.278 248.792 100.644 252.652C93.9692 256.536 89.9364 265.461 86.8034 272.29C81.9321 282.91 74.6314 300.399 80.2634 311.607C81.0732 313.216 84.0508 315.888 84.059 317.248C82.1857 322.194 77.6785 315.353 76.5864 312.832C72.8522 304.206 75.1549 295.057 77.6826 286.443C80.7092 276.125 88.8689 254.948 98.5869 249.785C99.1268 249.499 102.415 248.98 101.585 248.094C94.5459 244.687 86.8607 240.909 80.6192 236.18C79.1223 235.044 75.8829 233.231 77.0282 231.123C79.1264 228.611 83.6541 234.007 85.5232 235.363C96.6114 243.429 123.749 254.943 137.336 253.796C141.921 253.408 147.218 251.439 148.4 246.485C150.093 239.39 145.848 234.362 151.447 227.496C153.32 225.196 159.275 222.178 155.803 218.428C152.33 214.679 142.96 220.279 141.684 218.253C139.275 214.426 150.686 213.253 152.817 213.458C155.202 213.691 160.372 216.656 161.153 213.115C161.66 210.819 160.989 207.576 161.288 205.089C162.155 197.822 171.91 197.357 177.583 196.675C177.619 196.074 176.114 195.956 175.697 195.911C171.971 195.527 163.664 194.771 160.314 195.551C159.083 195.837 154.977 198.374 154.335 196.417C153.692 194.461 155.259 193.403 156.821 192.88C159.57 191.965 168.249 192.165 171.615 192.231C175.317 192.304 182.392 195.106 181.636 189.163C180.879 183.225 174.826 171.894 172.674 165.469C170.642 159.4 169.57 155.871 170.83 149.328C171.513 145.77 172.679 142.094 175.501 139.697C175.57 139.3 171.84 134.342 171.272 133.819C169.758 132.426 168.588 133.259 166.805 132.974C157.267 131.442 150.666 125.054 140.203 125.683C137.627 125.838 134.072 127.321 132.007 127.329C130.232 127.337 130.154 125.356 130.976 124.216C132.747 121.758 142.224 121.754 145.095 122.011C150.171 122.464 158.057 127.002 163.173 128.848C164.682 129.391 166.294 129.547 167.775 130.163C167.955 129.396 167.349 129.191 166.961 128.734C161.852 122.648 147.668 113.466 146.568 105.44C145.991 101.233 148.474 95.2046 153.472 96.6995C152.056 93.244 150.453 90.3155 151.12 86.3903C151.697 83.0043 155.095 80.0472 158.58 80.3617C161.235 80.6026 162.682 83.0942 164.912 84.0499C164.993 81.8321 166.167 80.3167 167.775 78.9484C166.421 78.5931 167.451 78.0703 166.924 76.9838C165.75 74.5658 159.987 67.3486 157.979 65.0654C122.87 25.1194 47.6737 35.8493 17.9021 76.9838C1.93035 99.0521 0.331128 123.065 6.99794 148.931C10.7935 163.664 18.671 176.232 18.671 191.978" fill="white"/>
<path d="M186.912 27.1494L206.27 26.1854L208.106 27.5374C208.209 28.048 207.284 29.0037 206.892 29.4285C200.769 36.0862 186.834 45.3701 179.177 51.4723C177.386 52.9019 171.607 58.8856 169.676 58.2648C167.132 57.4438 170.519 54.1149 171.304 53.3716C178.335 46.7221 189.987 38.0916 197.951 32.0671C198.748 31.4626 199.566 30.903 200.531 30.5967C200.478 29.841 199.808 30.1637 199.247 30.1351C195.116 29.9227 187.844 30.9275 184.188 30.1188C183.325 29.9268 182.715 29.6368 182.13 28.9629L181.779 27.3618C187.325 20.5244 193.738 13.9403 200.442 8.20976C202.797 6.19613 207.918 1.45407 210.413 0.347186C212.528 -0.592238 213.922 0.50648 212.515 2.40984C203.926 10.5379 193.722 17.3344 186.907 27.1494H186.912Z" fill="white"/>
<path d="M182.9 66.352C182.352 64.4691 187.252 63.8687 188.45 63.6767C192.123 63.0845 210.794 62.8231 212.271 61.3976C213.506 60.2049 209.22 57.501 208.398 56.5289C203.539 50.7821 208.766 48.7521 214.054 48.3192C220.709 47.7718 227.899 48.9155 234.807 48.3273C238.071 48.0496 245.989 45.844 248.411 46.959C248.824 47.151 249.27 47.2531 249.466 47.731C249.601 48.1639 249.417 48.7399 249.151 49.1034C248.452 50.051 232.897 51.3947 230.57 51.4764C225.523 51.6562 220.132 50.9455 215.232 51.2804C202.909 52.1259 214.402 55.9734 215.396 60.1069C215.772 61.659 215.559 63.0028 214.205 63.9626C211.273 66.0498 196.782 65.9231 192.364 66.2744C190.463 66.4255 186.442 67.463 185.113 67.3568C184.487 67.3078 183.043 66.8299 182.904 66.3438L182.9 66.352Z" fill="white"/>
</g>
<defs>
<clipPath id="clip0_483_1239">
<rect width="273" height="319" fill="white"/>
</clipPath>
</defs>
</svg>
