<svg width="319" height="295" viewBox="0 0 319 295" fill="none" xmlns="http://www.w3.org/2000/svg">
<g clip-path="url(#clip0_483_1255)">
<path d="M116.531 10.769C123.242 22.4162 137.302 20.0716 148.443 20.709C167.297 21.7877 187.725 25.0372 205.064 32.6504C214.886 36.9607 222.159 41.2889 232.814 44.5294C257.782 52.1159 290.269 59.7515 310.509 77.2512C326.32 90.9221 317.443 102.115 304.939 113.561C286.405 130.522 265.479 143.528 244.075 156.437C233.197 162.998 217.783 169.39 211.21 180.565C204.155 192.56 203.282 206.668 196.981 218.881C195.898 220.98 194.356 222.843 193.282 224.952C197.761 232.57 198.242 240.985 200.35 249.343C203.91 263.468 209.445 277.264 209.699 292.125C209.726 293.64 209.556 295.076 207.698 295.004C206.272 294.563 206.312 285.332 206.049 283.277C204.77 273.413 201.517 264.917 199.111 255.485C196.713 246.084 195.283 236.412 191.856 227.337C186.268 231.785 174.98 242.862 167.921 243.726C160.862 244.591 160.715 238.012 164.704 234.023C161.17 235.663 150.76 240.062 148.331 235.476C145.582 230.296 155.595 225.518 158.683 222.87C160.047 221.702 161.361 220.285 162.48 218.881C160.336 218.966 158.153 218.756 156.005 218.859C151.495 219.068 146.023 221.43 142.89 216.871C139.788 212.351 145.261 208.468 149.566 208.629C144.811 203.663 151.272 200.904 155.194 198.898C159.231 196.839 163.616 195.457 167.337 192.787C178.781 184.577 180.902 169.39 191.424 160.672C191.263 141.086 197.386 122.378 198.982 102.868C199.877 91.9116 199.231 79.4131 201.78 68.7064C202.212 66.8833 202.538 65.2073 204.726 66.179C204.338 72.7582 203.113 79.3462 202.551 85.9521C201.909 93.4851 201.941 101.13 201.21 108.654C199.561 125.614 194.392 142.138 193.647 159.196C203.857 152.087 214.681 145.565 223.923 137.159C235.817 126.341 243.883 112.144 255.523 101.081C253.322 99.3956 251.553 98.2902 248.852 97.5146C241.668 95.4553 233.42 94.7332 225.956 92.8076C220.71 91.4525 210.969 88.8405 206.308 86.6296C205.613 86.2998 203.451 84.9759 204.757 84.1468C206.588 82.9835 217.395 87.5523 220.167 88.3546C229.766 91.1271 241.709 91.876 250.532 94.9427C253.219 95.8787 255.572 97.4611 257.533 99.5204C261.183 95.8029 269.342 88.3769 274.52 87.6192C275.403 87.4899 276.37 87.949 275.951 88.992C275.599 89.8657 267.27 94.6307 265.559 95.9679C248.946 108.926 239.699 126.965 224.374 140.716C213.277 150.669 193.34 159.107 186.165 171.075C183.104 176.188 181.25 181.528 177.547 186.498C170.96 195.332 161.918 199.161 152.048 203.293C149.499 207.875 152.315 207.332 155.809 206.614C162.997 205.143 169.672 203.258 176.139 199.785C177.912 198.831 183.465 194.806 184.708 194.575C185.47 194.436 186.058 194.967 186.517 195.475C177.529 203.828 165.091 208.103 153.247 210.724C151.05 211.21 142.993 211.036 145.341 215.743C146.526 218.119 156.241 215.988 158.705 215.743C160.296 215.582 162.008 215.908 163.59 215.729C173.024 214.686 179.579 209.075 187.391 204.359C188.322 204.069 188.999 203.904 189.632 204.827C189.597 206.249 175.791 214.749 173.634 215.979C166.74 219.919 165.292 220.918 159.133 225.968C157.694 227.149 149.45 231.749 150.952 233.956C157.48 236.024 163.264 231.219 168.71 228.42C173.875 225.768 177.533 224.323 182.284 220.624C184.414 218.966 192.248 211.178 193.964 210.911C196.277 210.55 195.154 212.44 194.325 213.523C188.064 221.689 174.668 228.157 167.369 235.543C164.035 238.917 163.732 241.85 169.53 240.374C174.102 239.211 187.377 228.259 190.457 224.35C204.365 206.721 199.463 182.629 219.329 168.178C229.708 160.627 241.976 154.636 252.992 147.968C270.955 137.092 290.559 123.524 305.625 108.881C312.279 102.418 320.746 93.5921 313.393 84.1647C303.896 71.9915 269.899 57.8571 254.868 53.1946C244.427 49.9541 232.948 48.1087 222.796 44.3065C216.334 41.8862 210.474 38.0929 204.182 35.316C190.604 29.3163 170.858 24.9837 156.018 23.8203C137.739 22.385 111.264 27.2703 110.805 -0.0045166" fill="white"/>
<path d="M47.8782 39.3722C53.3684 36.4927 60.0394 33.27 64.0724 28.4828C65.0572 27.3149 67.3834 22.4207 69.0011 23.5796C72.1027 25.7994 62.7712 33.6444 61.1179 34.8791C48.8541 44.0257 33.2704 47.5694 21.5815 57.6788C-0.56182 76.8189 6.28306 98.4105 7.98537 124.241C9.8793 152.987 8.2171 177.645 4.36685 206.11C3.97024 209.039 3.40429 214.646 2.5264 217.183C1.88469 219.041 0.538885 219.523 0.0442358 217.651C-0.240968 216.563 1.07364 210.951 1.25635 209.235C4.1173 182.495 7.25453 157.551 5.78395 130.455C4.62532 109.113 -2.46466 81.2005 12.0094 63.2461C20.2491 53.0252 32.8471 45.9112 44.9281 41.173" fill="white"/>
<path d="M53.0387 142.842C66.1313 172.47 76.8621 202.576 73.8763 235.561C72.7935 247.546 69.9548 267.074 66.3764 278.378C65.6054 280.812 64.175 282.845 63.2169 279.274C64.9103 269.049 67.6331 259.015 69.2863 248.786C72.1072 231.335 72.9762 216.144 69.2863 198.747C65.6233 181.465 58.9165 164.456 52.5039 148.071" fill="white"/>
<path d="M148.154 99.1861C148.551 100.144 162.321 96.2844 164.42 96.6142C165.872 96.846 166.478 97.7731 166.024 99.2129L142.775 135.715L141.02 134.738L163.101 99.4536C162.686 98.7805 151.318 102.409 149.464 102.288C147.61 102.168 145.828 101.754 145.556 99.614C145.044 95.5979 151.447 81.2718 153.404 76.7253C154.215 74.8442 158.542 64.5655 159.322 64.0796C159.838 63.7587 160.217 63.8122 160.739 64.0484L161.483 65.1226C156.884 76.3954 151.563 87.4186 148.15 99.1906L148.154 99.1861Z" fill="white"/>
<path d="M86.5017 118.335L82.8699 108.043L83.3066 106.835C83.565 106.697 84.229 107.045 84.5231 107.187C89.1042 109.42 96.3591 115.442 100.887 118.594C101.947 119.329 106.109 121.487 106.083 122.628C106.047 124.134 103.708 122.842 103.177 122.539C98.4535 119.815 91.9206 114.916 87.3841 111.591C86.9295 111.257 86.4928 110.905 86.1764 110.437C85.7798 110.588 86.0606 110.896 86.1319 111.203C86.68 113.468 88.3912 117.23 88.5427 119.334C88.5784 119.828 88.5204 120.207 88.2486 120.631L87.442 121.076C82.8565 119.182 78.2665 116.784 74.0954 114.087C72.6293 113.138 69.2469 111.141 68.2443 109.973C67.3976 108.984 67.7674 108.052 69.0197 108.507C74.7906 111.836 80.1025 116.245 86.5017 118.344V118.335Z" fill="white"/>
<path d="M131.301 121.179C129.808 120.662 129.394 119.414 128.716 118.175C126.497 114.096 124.71 108.351 122.602 103.893C121.582 101.74 116.6 93.191 116.689 91.8315C116.715 91.3902 116.68 90.9712 117.148 90.7216L118.404 90.4586C119.385 90.7662 124.518 101.303 125.365 103.073C126.666 105.783 132.054 117.319 131.943 119.512C131.911 120.158 131.648 120.653 131.301 121.179Z" fill="white"/>
</g>
<defs>
<clipPath id="clip0_483_1255">
<rect width="319" height="295" fill="white"/>
</clipPath>
</defs>
</svg>
