<svg width="290" height="298" viewBox="0 0 290 298" fill="none" xmlns="http://www.w3.org/2000/svg">
<g clip-path="url(#clip0_483_1275)">
<path d="M106.993 298C109.065 280.673 115.234 263.361 121.447 247.179C116.951 239.086 113.978 229.896 111.901 220.875C109.178 209.024 110.629 203.233 98.4771 196.809C84.5158 189.43 68.0095 183.74 53.519 176.828C40.6767 170.703 9.31625 155.452 2.07301 143.988C-3.08572 135.822 2.39619 128.261 7.66804 121.906C28.0646 97.324 58.4959 88.0533 83.8977 70.6975C100.816 59.1364 108.98 51.9264 129.32 45.1397C137.202 42.5105 157.005 38.9579 162.418 34.6714C171.427 27.5339 166.413 10.6217 163.456 1.42768C163.488 0.65344 164.426 -0.197412 165.221 0.0485689C165.662 0.225998 165.718 0.645375 165.888 1.01233C167.262 3.93184 169.665 13.4848 169.908 16.739C171.794 42.0912 155.199 40.2282 136.394 45.7607C129.64 47.7487 122.881 49.9585 116.474 52.8659C100.327 60.1889 89.0443 71.8549 73.7055 80.2706C52.9494 91.6624 16.4423 109.095 4.75539 130.289C-0.322548 139.5 4.12519 143.935 11.324 149.653C36.1522 169.372 70.0011 179.316 97.9237 193.736C113.101 201.576 111.319 206.144 114.725 221.278C119.027 240.408 126.779 255.546 144.744 265.035C145.702 265.539 147.039 266.357 148.101 266.14C153.369 265.067 147.006 259.958 145.467 258.264C144.506 257.208 143.71 255.502 142.656 254.627C141.092 253.336 137.428 251.909 135.376 250.615C131.902 248.421 121.807 240.505 120.316 237.045C119.835 235.932 119.54 234.872 120.045 233.678C120.486 232.884 121.661 234.452 121.879 234.682C131.7 245.098 136.301 248.84 149.572 254.982C151.361 255.808 159.586 259.684 160.81 259.692C161.78 259.7 162.757 259.305 162.47 258.24C162.184 257.175 156.677 250.917 155.575 250.199C153.381 248.772 147.225 247.703 144.263 246.586C138.713 244.493 134.839 241.723 130.536 237.727C129.017 236.315 124.574 232.388 124.857 230.452C125.454 226.363 128.008 231.484 128.929 232.485C135.566 239.719 141.601 243.114 150.929 245.973C154.003 246.913 167.282 250.683 169.504 249.207L169.839 248.054C169.706 247.566 162.786 242.275 161.933 241.836C158.891 240.271 152.69 239.445 148.917 237.908C143.427 235.674 136.398 230.94 132.778 226.222C131.769 224.907 131.268 224.057 131.542 222.274L133.166 221.778C138.268 230.622 149.467 236.489 159.315 238.408C168.631 240.227 165.811 237.448 160.745 233.759C150.396 226.222 144.688 226.113 138.882 213.282C131.886 197.813 132.31 193.249 116.749 183.809C103.648 175.86 91.5934 170.719 79.8944 160.166C68.5468 149.928 60.1926 135.112 44.4659 131.475C43.5126 131.253 35.3159 130.669 39.3032 128.902C44.4094 126.644 53.6523 132.241 58.2374 134.491C62.9315 131.62 68.4498 130.451 73.5439 128.435C82.8474 124.745 92.3408 120.535 100.901 115.41L97.0309 97.5135C97.8065 96.707 98.6993 96.6385 99.4668 97.5216C104.464 127.68 119.463 154.912 124.384 185.046C135.235 192.595 137.166 204.648 142.506 215.298C146.619 223.5 153.401 225.246 160.342 230.126C163.42 232.291 172.218 237.578 166.122 240.892L165.868 241.723C168.74 243.15 174.367 247.143 171.931 250.812C170.021 253.695 163.517 251.494 160.616 251.405C162.988 254.014 168.356 260.805 162.24 262.502C159.174 263.353 149.075 256.974 148.509 257.446C150.735 259.998 154.904 264.075 151.6 267.378C148.719 270.261 144.946 268.107 142.042 266.515C134.564 262.41 128.399 256.337 123.087 249.788M86.5639 162.368C97.1319 170.683 109.506 176.55 121.055 183.329C118.688 160.715 107.235 140.411 102.089 118.47C101.685 118.128 94.1788 122.265 92.9548 122.846C82.3424 127.858 71.3624 132.394 60.1199 135.798C69.0356 144.548 76.6989 154.609 86.5639 162.372V162.368Z" fill="white"/>
<path d="M236.907 219.226C237.489 219.169 237.561 220.173 237.715 220.625C241.997 233.101 245.976 244.9 250.63 257.284C251.817 260.446 256.273 274.914 257.627 276.285C258.838 277.515 259.735 277.253 259.901 275.466C252.524 254.252 243.54 234.093 238.64 212.048C231.477 179.82 225.547 144.387 223.184 111.454C222.921 107.82 223.075 103.816 222.772 100.183C222.699 99.2957 222.517 96.3318 221.362 96.3318C219.77 96.6826 219.908 98.0496 219.924 99.3803C220.332 131.926 227.87 164.686 233.142 196.583C233.764 200.354 234.673 204.781 234.879 208.548" fill="white"/>
<path d="M213.076 39.9135L212.478 36.6835L211.302 36.3125C209.383 36.8811 210.781 41.6676 211.391 43.0024C215.742 52.5029 243.778 59.1283 253.707 63.6083C289.483 79.7463 282.729 102.687 280.075 135.995C278.62 154.242 278.055 171.284 279.271 189.567C280.527 208.523 283.359 227.351 287.443 245.868C288.182 247.497 290.202 247.679 289.992 245.356C289.527 240.178 287.201 232.851 286.255 227.315C281.202 197.7 280.042 167.166 282.498 137.205C285.403 101.764 292.105 77.347 253.711 60.7896C240.433 55.0635 224.435 52.765 213.892 42.5306" fill="white"/>
<path d="M164.247 214.75C165.597 215.806 166.223 209.757 166.255 209.306C166.841 201.301 165.14 189.744 164.191 181.566C161.561 158.956 155.057 132.306 159.517 109.925C160.806 103.465 163.952 96.5415 164.942 90.3638C165.205 88.7105 165.282 87.2386 163.407 88.8315C162.054 89.9807 159.323 99.5498 158.705 101.864C150.266 133.572 161.626 168.795 163.452 201.237C163.706 205.729 162.712 210.459 164.247 214.75Z" fill="white"/>
<path d="M70.6114 249.401L64.0105 261.982C63.6066 262.861 64.1156 264.224 65.1659 264.321L100.481 255.651C103.248 253.828 101.342 252.748 98.6916 253.062C94.7246 253.53 88.56 256.143 84.2576 257.183C78.8 258.502 73.205 259.212 67.7877 260.679C67.4968 260.385 69.0238 257.357 69.3308 256.788C70.2923 255.014 76.0045 248.231 73.0312 246.784C72.0617 246.308 62.5522 246.497 60.7262 246.59C55.0343 246.872 48.2556 247.558 42.5394 248.175C40.7417 248.368 40.7982 249.461 42.1354 250.231C44.5067 251.594 55.6281 249.558 59.0901 249.388C62.9077 249.203 66.7899 249.558 70.6074 249.409L70.6114 249.401Z" fill="white"/>
<path d="M81.9146 215.963C82.1448 216.891 81.7328 216.625 81.4056 216.883C77.9678 219.589 71.278 220.076 68.8824 221.98C68.1108 222.593 68.0341 224.036 68.7006 224.722C69.5611 225.601 77.3214 228.678 79.0989 229.444C85.0494 232 92.2846 235.251 98.3603 237.21C99.9722 237.731 101.887 238.755 103.527 237.739L103.689 236.533L72.6313 224.016C72.4697 222.984 72.7242 223.391 73.1968 223.177C77.1033 221.407 85.005 220.403 85.3685 215.161L57.2803 201.237C56.4602 202.168 56.8602 202.963 57.7166 203.66C60.4475 205.89 67.9492 209.576 71.4032 211.35C74.6835 213.036 78.4889 214.75 81.9146 215.967V215.963Z" fill="white"/>
<path d="M71.0188 294.516C71.5642 295.089 74.5576 292.838 75.1797 292.431C81.1868 288.516 88.426 283.12 93.9766 278.563C94.8572 277.842 97.6972 276.035 97.071 274.785C96.6064 273.854 95.4672 273.789 94.6795 274.43C89.7025 278.487 84.6004 282.39 79.4457 286.217C78.1085 287.209 71.3541 291.512 71.0915 292.379C70.8895 293.04 71.039 293.826 71.0188 294.516Z" fill="white"/>
</g>
<defs>
<clipPath id="clip0_483_1275">
<rect width="290" height="298" fill="white"/>
</clipPath>
</defs>
</svg>
