<svg width="466" height="466" viewBox="0 0 466 466" fill="none" xmlns="http://www.w3.org/2000/svg">
<path d="M312.489 147.953C312.723 147.939 312.957 147.927 313.191 147.917C319.038 147.69 324.407 150.696 327.93 155.249C329.639 157.46 330.986 159.938 332.749 162.112C334.064 163.732 335.934 164.968 337.452 166.401C339.239 168.088 340.728 170.394 340.742 172.924C340.751 174.645 340.103 176.371 339.183 177.807C334.89 184.515 327.471 182.109 323.682 185.269C320.573 187.86 320.009 192.721 317.002 195.692C314.907 197.762 312.059 199.321 309.051 199.228C305.681 199.124 303.59 197.319 301.424 194.989C299.67 195.908 297.463 197.113 296.624 199.005C295.281 202.035 298.306 204.717 299.193 207.416C299.715 209.006 299.574 210.586 298.795 212.064C296.875 215.7 291.87 216.395 288.956 219.036C285.688 221.998 285.577 226.334 280.809 227.843C275.349 229.57 273.281 228.218 269.79 224.112C269.267 223.496 268.682 222.728 267.925 222.399C267.366 222.155 266.862 222.109 266.293 222.373C265.023 222.962 264.036 224.865 263.513 226.114C261.087 231.906 268.615 231.927 270.82 237.971C271.423 239.624 271.546 241.432 271.4 243.177C270.822 250.081 265.461 250.107 262.467 254.869C260.976 257.241 261.175 260.406 259.906 262.95C258.779 265.207 257.046 266.892 254.624 267.681C249.222 269.438 245.361 266.226 240.856 263.894C240.266 267.429 240.183 270.72 240.636 274.275C244.061 276.52 248.768 276.492 251.949 279.064C255.148 281.65 255.585 285.991 254.45 289.721C253.833 291.744 252.783 293.774 252.497 295.875C252.228 297.85 252.709 299.877 252.912 301.845C253.177 304.419 252.824 306.945 251.082 308.957C247.781 312.769 245.19 311.257 240.988 311.637C240.314 311.698 240.156 311.641 239.719 312.145C239.516 313.368 239.584 314.915 239.995 316.101C241.587 320.709 249.771 315.201 253.958 317.298C258.047 319.346 257.103 325.589 257.86 329.349C258.296 331.509 259.148 333.533 259.864 335.61C260.689 338.006 261.329 340.835 260.086 343.205C258.562 346.113 254.913 346.943 252.022 347.844C254.243 350.977 256.045 354.038 257.275 357.695C261.44 370.076 259.334 384.48 253.507 395.981C247.354 408.123 237.351 417.034 224.351 421.191C222.233 421.868 214.968 423.813 213.081 422.49C212.608 422.159 212.602 421.875 212.497 421.353C213.372 420.004 217.261 419.047 218.812 418.428C223.279 416.507 227.327 413.729 230.726 410.252C237.044 403.819 240.557 394.856 241.692 386.019C242.01 383.547 242.25 380.866 241.815 378.395C241.167 374.714 238.974 371.325 238.904 367.548C238.834 363.732 241.718 360.612 241.578 357.026C241.494 354.854 240.179 353.551 238.674 352.181C235.252 353.357 229.998 354.326 226.498 353.21C224.967 352.721 223.755 351.653 223.024 350.224C221.419 347.081 222.142 343.184 220.809 339.909C219.325 336.265 216.094 333.898 214.375 330.459C213.301 328.309 213.187 326.028 213.996 323.771C215.847 318.611 218.424 320.724 221.904 318.862C222.845 318.358 223.435 317.538 223.7 316.512C224.394 313.836 223.305 311.117 221.934 308.863C218.845 308.961 215.773 309.633 212.679 309.394C209.286 309.133 206.295 307.685 204.098 305.055C201.414 301.844 200.773 297.044 202.275 293.155C203.225 290.694 205.268 288.189 205.082 285.45C204.981 283.95 204.294 282.589 203.698 281.236C202.28 278.015 201.294 274.992 201.626 271.421C201.883 268.369 203.37 265.553 205.746 263.62C211.119 259.316 214.517 263.458 219.062 263.726C220.12 263.788 221.108 263.498 221.887 262.764C223.69 261.063 224.027 257.972 224.15 255.623C219.858 252.719 213.744 252.481 210.669 247.832C207.253 242.665 209.752 233.205 213.95 229.09C216.271 226.815 219.732 225.595 221.425 222.701C222.908 220.167 222.462 217.174 223.026 214.406C223.594 211.617 225.138 209.249 227.536 207.696C230.509 205.771 234.479 205.3 237.898 206.093C242.792 207.229 244.903 210.69 247.345 214.625C250.971 214.427 253.762 213.099 256.25 210.442C254.032 208.67 251.397 207.5 249.353 205.478C247.119 203.266 245.688 200.229 245.728 197.05C245.794 191.936 251.799 191.541 254.896 188.722C256.837 186.955 258.168 184.596 260.072 182.793C262.391 180.597 265.231 179.481 268.431 179.627C274.648 179.908 277.882 184.623 281.702 188.811C282.838 188.461 283.993 188.094 285.048 187.54C287.178 186.42 287.83 184.648 288.497 182.498C285.915 179.583 283.631 176.656 282.895 172.723C282.477 170.492 282.852 168.177 284.184 166.309C287.26 161.99 291.538 163.134 295.953 162.239C301.35 161.145 301.882 156.846 304.533 153.007C306.554 150.08 309.029 148.609 312.489 147.953Z" fill="white"/>
<path d="M233.056 208.692C234.086 208.632 235.09 208.596 236.117 208.732C238.067 208.99 239.9 209.729 241.367 211.056C243.002 212.536 244.019 214.482 245.116 216.359C247.581 220.573 249.821 224.584 253.67 227.712C257.502 230.827 264.673 233.671 267.401 237.427C268.615 239.099 269.024 241.521 268.662 243.536C267.818 248.234 262.506 249.43 260.191 253.221C258.115 256.619 258.92 262.312 255.284 264.552C253.27 265.793 250.678 265.282 248.526 264.73C243.442 263.098 239.738 258.785 234.999 256.419C230.499 254.173 225.655 252.762 220.965 250.984C219.171 250.304 217.196 249.65 215.547 248.678C213.808 247.652 212.843 246.052 212.343 244.149C210.975 238.938 213.641 233.727 217.415 230.239C219.624 228.197 222.312 226.558 223.726 223.808C225.569 220.223 224.835 215.938 226.902 212.509C228.345 210.114 230.481 209.31 233.056 208.692Z" fill="#43A4A4"/>
<path d="M210.683 264.431C210.822 264.423 210.96 264.413 211.099 264.408C212.701 264.349 214.305 264.805 215.756 265.45C219.599 267.158 223.008 270.023 226.759 271.993C232.481 274.997 238.9 276.948 244.959 279.177C246.972 279.918 249.276 280.626 250.83 282.177C254.953 286.292 249.735 291.669 249.447 296.141C249.279 298.749 250.486 301.267 250.376 303.86C250.313 305.338 249.854 307.042 248.655 308.008C247.155 309.217 244.877 309.119 243.065 308.944C239.154 308.1 235.605 306.063 231.591 305.678C228.677 305.4 225.631 305.561 222.721 305.814C218.382 306.192 213.383 307.641 209.322 305.48C207.516 304.532 206.07 303.017 205.209 301.168C202.038 294.404 208.127 291.618 208.019 285.678C207.957 282.266 205.675 279.441 204.806 276.247C204.124 273.742 204.205 270.183 205.562 267.895C206.704 265.971 208.566 264.939 210.683 264.431Z" fill="#43A4A4"/>
<path d="M313.219 150.92C315.92 150.787 318.603 151.429 320.951 152.771C325.83 155.533 327.319 160.439 330.807 164.426C332.972 166.902 336.886 168.575 337.738 171.971C338.141 173.578 337.644 175.251 336.824 176.644C334.505 180.584 330.23 180.129 326.42 181.227C319.483 183.226 319.611 186.84 316.608 192.007C315.135 194.541 313.174 195.607 310.425 196.307C308.87 196.442 307.151 196.278 305.807 195.423C303.085 193.689 301.959 190.015 299.786 187.659C295.184 182.668 287.115 179.908 285.678 172.39C285.384 170.856 285.55 169.186 286.465 167.883C288.714 164.687 293.338 165.528 296.672 164.906C303.365 163.656 303.374 159.098 306.68 154.492C308.359 152.154 310.477 151.326 313.219 150.92Z" fill="#43A4A4"/>
<path d="M266.201 182.521C267.83 182.42 269.413 182.37 270.973 182.948C277.615 185.407 282.302 196.144 287.522 200.971C288.305 201.695 289.17 202.428 290.091 202.966C292.076 204.124 294.858 204.801 296.06 206.906C296.161 207.083 296.251 207.267 296.327 207.456C296.7 208.378 296.874 209.553 296.447 210.486C295.238 213.134 290.807 214.137 288.515 215.662C284.104 218.598 284.286 223.376 278.9 225.586C277.534 225.911 276.227 226.095 274.913 225.465C271.651 223.902 269.289 218.173 266.755 215.412C264.991 213.489 262.918 211.654 260.823 210.098C256.662 207.006 250.354 204.11 248.816 198.663C248.584 197.842 248.463 197.002 248.953 196.25C250.047 194.569 254.217 193.229 256.02 191.788C260.215 188.433 260.072 184.172 266.201 182.521Z" fill="#43A4A4"/>
<path d="M250.446 319.745C250.774 319.722 251.107 319.691 251.436 319.716C252.214 319.775 252.917 320.096 253.429 320.689C253.883 321.215 254.157 321.846 254.312 322.518C254.945 325.25 254.828 328.152 255.497 330.931C256.282 334.189 258.263 337.685 257.953 341.088C257.874 341.959 257.39 342.519 256.744 343.062C253.474 345.806 247.633 345.416 243.657 346.565C238.738 347.985 234.419 351.528 228.983 350.913C227.436 350.738 226.544 350.281 225.574 349.076C224.28 345.54 224.817 341.575 223.151 338.049C221.628 334.825 218.602 332.518 217.129 329.335C216.492 327.959 216.129 326.298 216.736 324.845C217.42 323.209 218.79 322.483 220.339 321.846C222.719 322.014 225.028 322.537 227.435 322.626C235.151 322.909 242.945 321.4 250.446 319.745Z" fill="#43A4A4"/>
<path d="M245.71 348.837C246.376 348.791 247.067 348.74 247.71 348.956C250.578 349.918 252.421 353.205 253.682 355.77C258.569 365.705 257.255 378.297 253.787 388.518C249.501 400.912 240.474 411.099 228.686 416.845C226.957 417.632 225.172 418.28 223.393 418.945C224.527 418.114 225.715 417.35 226.858 416.529C230.347 414.028 233.54 411.259 236.145 407.826C242.092 399.989 245.369 388.215 244.219 378.419C243.796 374.813 241.645 371.315 241.653 367.741C241.661 364.358 243.612 361.694 244.076 358.454C244.535 355.246 243.063 353.114 241.243 350.686C242.713 349.97 244.127 349.264 245.71 348.837Z" fill="#43A4A4"/>
<path d="M226.76 256.388C229.627 257.048 235.441 259.162 237.571 261.21C237.917 261.542 238.055 261.808 238.118 262.285C238.357 264.099 237.827 266.321 237.669 268.154C237.522 269.86 237.544 271.576 237.556 273.287L234.818 272.423C230.402 270.758 225.725 269.085 222.317 265.694C225.219 262.876 225.995 260.247 226.76 256.388Z" fill="#43A4A4"/>
<path d="M258.608 211.999C261.645 213.661 264.345 216.555 266.076 219.529C265.751 219.693 265.429 219.864 265.111 220.042C261.796 221.925 260.945 225.042 259.988 228.462L258.135 227.366C254.116 224.763 251.193 222.18 249.199 217.748C252.722 215.885 255.588 214.688 258.608 211.999Z" fill="#43A4A4"/>
<path d="M290.708 184.391C294.364 186.152 297.83 188.812 299.599 192.549C297.998 193.962 295.94 195.166 294.733 196.958C293.907 198.184 293.824 200.081 292.77 201.087C288.49 199.132 285.814 195.227 283.34 191.387C287.481 189.046 288.436 188.856 290.708 184.391Z" fill="#43A4A4"/>
<path d="M225.292 308.314C229.357 308.094 233.232 308.468 237.036 309.958C237.056 313.519 237.119 315.673 238.189 319.134L238.006 319.413L237.039 319.523C233.156 319.852 229.536 320.066 225.665 319.495C226.942 315.235 226.401 312.454 225.292 308.314Z" fill="#43A4A4"/>
<path d="M393.065 31.8439C393.756 31.8358 394.057 31.8629 394.685 32.2097C394.963 32.6599 395.158 32.8598 394.994 33.4198C394.447 35.2976 391.156 37.0925 389.631 38.3347C377.638 48.109 364.987 57.4491 351.378 64.8718C322.312 80.724 302.003 76.2993 272.48 66.2303C266.103 64.0554 259.818 61.6745 253.344 59.785C226.794 52.0341 206.685 53.1909 180.196 60.6924C168.565 63.9858 156.858 68.3627 146.243 74.1873C142.682 76.1268 139.233 78.2657 135.913 80.5939C129.221 85.3617 123.104 90.8759 116.726 96.0442C112.519 99.4541 107.726 102.648 103.909 106.471C102.655 107.727 101.16 109.4 100.722 111.15C100.574 111.744 100.567 112.333 100.915 112.862C101.883 114.331 104.351 114.287 105.848 114.084C108.958 113.638 111.991 112.762 114.859 111.481C118.655 109.764 122.114 107.357 125.569 105.05C131.527 101.065 137.384 96.9316 143.134 92.653C146.931 89.8848 150.751 86.8057 155.107 84.969C160.258 82.7969 175.753 80.7218 181.639 79.9363C191.592 78.6079 201.745 77.356 211.744 78.9561C220.868 80.4159 231.291 84.4957 236.858 92.2762C240.023 96.6991 240.718 101.118 239.84 106.395C241.588 105.523 243.364 104.711 245.167 103.96C248.76 102.473 261.856 97.9223 265.137 99.2717C265.528 99.7695 265.523 99.7536 265.495 100.386C265.043 101.089 264.467 101.389 263.692 101.656C261.537 102.4 259 102.529 256.753 102.95C253.791 103.503 250.808 104.48 247.988 105.528C245.322 106.518 242.704 107.679 240.292 109.194C235.4 112.267 231.25 116.049 225.94 118.535C220.963 120.866 215.697 122.553 210.509 124.341C203.069 126.907 195.633 129.517 188.511 132.89C183.34 135.338 175.825 139.178 173.878 145.024C173.081 147.419 173.296 150.322 174.525 152.539C175.531 154.354 177.199 155.502 179.183 156.034C187.639 158.296 200.661 151.753 208.408 148.514C212.133 146.957 215.902 145.453 219.744 144.207C230.574 140.661 241.916 138.931 253.311 139.085C273.887 139.288 289.021 143.862 309.318 136.283C322.645 131.306 333.5 122.982 345.074 114.959C353.895 108.845 363.086 102.812 372.283 97.2966C376.563 94.5739 381.019 92.111 385.336 89.4438C388.492 87.4942 391.558 85.2835 394.835 83.5483C395.795 83.0399 397.021 82.3919 398.116 82.3705C398.646 82.36 398.712 82.4365 399.079 82.7733C399.202 83.2907 399.081 83.6233 398.937 84.1248C396.945 86.3456 393.587 87.6376 391.053 89.1689C384.188 93.3156 377.145 97.1633 370.284 101.324C362.857 105.828 355.438 110.654 348.321 115.631C337.975 122.865 328.004 130.257 316.684 135.996C310.057 139.357 302.421 141.685 295.037 142.71C286.592 143.883 277.519 142.951 269.046 142.362C256.936 141.521 245.2 141.128 233.215 143.373C226.69 144.628 220.3 146.501 214.129 148.963C205.414 152.472 196.455 157.137 187.156 158.801C183.165 159.515 178.593 159.601 175.157 157.12C172.89 155.483 171.493 153.052 171.097 150.297C167.761 127.113 224.515 123.313 235.342 108.603C235.397 108.527 235.451 108.451 235.505 108.376C230.951 107.465 226.126 107.608 221.502 107.195C207.871 105.977 194.87 103.611 181.362 107.536C175.851 109.138 170.589 111.814 165.716 114.826C157.421 119.954 145.792 130.575 135.578 129.643C132.028 129.319 130.65 127.654 128.493 125.074C125.209 126.223 121.853 127.171 118.338 126.876C115.614 126.648 112.797 125.58 111.035 123.411C109.459 121.47 109.238 119.476 109.503 117.102C107.404 117.03 105.227 117.056 103.147 116.787C101.446 116.566 99.6548 116.057 98.5972 114.609C97.7762 113.485 97.5792 112.051 97.7894 110.7C98.0752 108.864 99.0122 107.303 100.248 105.951C103.853 102.01 108.898 98.8375 113.07 95.4909C119.735 90.1437 126.204 84.3929 133.118 79.377C153.139 64.8527 189.961 52.7963 214.529 51.8876C226.503 51.4448 238.027 52.9957 249.592 56.0702C267.366 60.7962 284.161 68.7751 302.433 71.6671C323.493 75.0001 337.698 69.8135 355.458 59.3335C363.033 54.958 370.296 50.065 377.197 44.6895C380.228 42.3384 383.284 39.9883 386.223 37.5221C388.402 35.6935 390.49 33.6904 392.799 32.0325L393.065 31.8439Z" fill="white"/>
<path d="M196.78 80.8718C207.332 79.5812 221.216 82.3636 229.657 88.9344C233.951 92.2774 237.205 96.7436 237.732 102.292C237.809 103.1 237.756 104.11 237.134 104.717C236.495 105.341 235.266 105.328 234.427 105.343C231.371 105.401 228.193 104.971 225.155 104.675C217.505 103.931 209.839 102.775 202.16 102.444C197.299 102.235 192.235 102.396 187.433 103.184C180.622 104.302 174.287 106.776 168.285 110.135C162.819 113.193 157.797 116.96 152.564 120.387C150.057 122.028 147.542 123.77 144.784 124.966C142.233 126.072 139.031 126.908 136.238 126.626C133.92 126.392 132.348 125.46 130.907 123.669C143.586 113.91 161.308 99.8531 176.853 95.6928C182.247 94.2488 187.812 93.9112 193.366 93.7514C198.502 93.6745 203.622 93.9867 208.749 94.2325C211.547 94.3667 214.733 94.8404 217.503 94.3744C217.905 94.0204 217.886 94.0322 217.953 93.4984C217.558 92.8672 217.064 92.6256 216.371 92.4267C212.704 91.3737 201.428 91.1757 197.272 91.1634C190.718 91.1443 183.89 91.3905 177.49 92.8886C164.822 95.8544 152.117 104.901 141.612 112.318C136.862 115.671 132.055 119.495 126.899 122.201C123.951 123.748 120.125 124.957 116.847 123.835C114.906 123.17 113.397 121.658 112.546 119.808C112.091 118.819 112.184 117.522 112.559 116.53C114.44 114.919 117.071 113.811 119.164 112.442C123.254 109.767 127.231 106.872 131.244 104.081C136.059 100.691 140.856 97.2765 145.634 93.8356C148.195 92.0185 150.805 89.9297 153.599 88.4926C161.268 84.5493 187.228 81.6805 196.78 80.8718Z" fill="#43A4A4"/>
<path d="M375.174 208.026C376.72 208.07 378.28 208.632 379.4 209.726C382.021 212.286 381.811 216.241 381.801 219.609C382.888 219.195 383.995 218.77 385.112 218.445C387.261 217.821 389.644 217.619 391.651 218.783C395.7 221.13 394.46 236.058 394.606 240.685C395.117 256.963 400.091 272.443 396.959 288.827C394.513 301.626 389.176 316.062 383.64 327.834C379.784 336.035 374.862 343.81 370.483 351.753C367.487 357.185 364.278 362.852 362.816 368.921C361.808 372.946 361.771 377.152 362.707 381.193C366.706 398.371 393.512 410.547 395.004 416.222C394.825 416.821 394.722 416.828 394.206 417.201C393.401 417.322 392.901 417.102 392.237 416.682C389.274 414.809 386.705 411.702 383.911 409.492C372.631 400.572 359.291 391.306 359.296 375.292C359.3 361.645 373.211 342.574 379.511 330.047C385.785 317.575 393.832 297.017 395.178 283.09C396.35 270.951 393.507 259.148 392.354 247.139C391.999 243.703 391.825 240.251 391.833 236.797C391.864 232.709 392.491 227.25 391.578 223.299C391.349 222.307 390.944 221.128 389.973 220.63C388.74 219.998 387.124 220.608 385.929 221.067C383.678 221.93 381.653 223.265 380.429 225.404C375.356 234.276 378.689 259.026 378.033 270.023C377.572 277.764 375.909 285.144 372.725 292.231C366.408 306.296 353.608 318.83 342.071 328.859C339.076 331.464 335.438 335.026 331.665 336.359C330.551 336.752 329.184 336.964 328.085 336.407C325.613 335.154 325.399 331.803 325.351 329.368C325.167 319.889 328.143 311.477 331.488 302.779C332.929 299.029 334.409 295.268 335.27 291.333C336.177 287.186 336.477 282.374 335.165 278.276C334.418 275.939 332.948 273.218 330.665 272.109C329.731 271.655 328.987 271.679 328.018 272.026C325.703 272.854 324.002 274.763 322.697 276.775C319.478 281.739 316.987 289.357 314.317 294.903C310.622 302.575 306.231 309.916 302.55 317.596C297.212 328.734 294.043 340.308 294.159 352.725C294.283 365.89 298.468 377.948 306.988 388.037C310.501 392.195 314.489 395.947 318.315 399.809C324.883 406.44 331.299 413.163 336.898 420.651C338.879 423.301 343.812 429.577 344.698 432.436C344.917 433.142 344.894 433.558 344.531 434.192C344.238 434.288 343.996 434.441 343.684 434.351C341.675 433.767 338.968 428.388 337.843 426.619C332.763 419.424 327.346 412.738 321.264 406.364C307.711 392.16 296.056 384.163 292.514 362.97C291.716 358.193 291.528 353.294 291.695 348.457C292.432 327.175 302.929 312.391 311.978 294.037C315.172 287.558 317.052 280.087 321.277 274.212C322.937 271.905 325.246 269.584 328.19 269.191C330.178 268.925 332.015 269.632 333.543 270.884C335.682 272.636 337.082 275.324 337.805 277.957C341.274 290.595 333.468 302.764 330.067 314.499C328.534 319.791 327.468 326.037 328.203 331.561C328.346 332.642 328.602 333.395 329.467 334.081C330.064 334.254 330.455 334.214 331.018 333.973C334.405 332.526 337.921 328.938 340.681 326.527C352.456 316.245 365.337 304.168 371.072 289.287C373.138 283.821 374.48 278.109 375.066 272.295C376.318 260.148 374.195 247.913 375.439 235.709C375.637 233.759 375.906 231.773 376.394 229.871C377.717 224.717 380.889 217.972 378.377 212.704C377.98 211.871 377.371 211.106 376.462 210.818C375.422 210.489 374.286 210.873 373.363 211.36C368.255 214.053 365.061 220.851 364.556 226.381C364.1 231.374 365.374 236.978 366.047 241.942C367.726 254.321 368.672 264.461 367.107 276.889C366.732 279.869 366.41 282.979 365.485 285.847C365.175 286.807 364.804 288.102 363.855 288.595C363.492 288.455 363.53 288.541 363.347 288.255C363.032 287.762 362.891 287.198 362.879 286.615C362.837 284.576 363.5 282.246 363.853 280.219C364.352 277.382 364.761 274.53 365.079 271.667C366.251 260.883 364.298 250.033 362.976 239.36C362.503 235.539 361.86 231.594 361.924 227.741C361.966 225.244 362.457 222.809 362.814 220.346C361.033 220.97 359.587 221.507 358.274 222.958C351.05 230.945 354.578 245.444 355.719 254.958C356.414 260.538 356.863 266.147 357.063 271.767C357.229 276.81 356.341 302.616 353.314 305.85C352.768 306.007 352.791 306.011 352.281 305.765C351.828 305.039 351.788 304.324 351.824 303.486C351.919 301.235 352.494 298.922 352.875 296.695C353.351 293.992 353.699 291.269 353.916 288.533C354.721 279.772 354.687 270.955 353.815 262.2C352.875 252.642 351.191 243.104 351.089 233.492C349.693 234.137 347.972 234.794 346.867 235.873C340.142 242.439 345.759 267.202 346.556 276.12C347.093 282.133 347.054 288.098 346.815 294.127C346.658 298.082 345.874 314.604 343.204 316.785C342.918 317.019 343 316.953 342.622 316.909C342.395 316.689 342.282 316.477 342.174 316.181C341.23 313.591 343.06 307.185 343.401 304.228C344.284 296.555 344.772 288.6 344.289 280.887C343.558 269.229 337.802 248.097 342.601 237.653C344.398 233.744 347.402 232.12 351.241 230.702C352.644 227.958 353.479 225.023 355.279 222.47C357.136 219.836 359.22 218.639 362.223 217.697C362.968 217.463 363.723 217.281 364.348 216.789C368.474 213.548 368.292 209.205 375.174 208.026Z" fill="white"/>
<path d="M21.0588 64.6008C27.287 64.4288 39.6322 70.4394 45.3344 73.2313C66.0737 83.3841 82.1971 100.952 88.7088 123.31C90.4413 129.258 91.204 135.159 92.4314 141.198C93.3747 145.838 94.755 150.401 95.9773 154.972C99.0769 166.562 100.151 171.935 108.028 181.737C118.471 194.731 131.512 202.947 146.874 209.001C155.317 212.327 163.879 215.498 170.966 221.356C171.266 221.603 171.562 221.854 171.854 222.109C181.652 230.654 186.037 242.041 186.135 254.892C186.185 261.52 185.426 268.202 185.24 274.836C184.926 286.039 185.368 297.086 188.19 307.98C189.765 314.191 191.958 320.227 194.736 326C195.537 327.64 196.355 329.298 197.276 330.873C198.282 332.594 201.763 337.089 201.681 338.902C201.645 339.698 201.315 339.868 200.797 340.39C198.146 338.96 195.298 332.58 193.88 329.798C184.252 310.914 182.011 293.25 182.846 272.297C183.066 266.8 183.756 261.297 183.86 255.808C184.012 247.787 182.207 239.818 177.844 233.025C166.891 215.976 149.387 214.161 132.969 205.464C121.661 199.571 111.815 191.223 104.151 181.031C88.7329 160.306 92.2066 132.318 80.4328 109.967C70.0406 90.2381 51.8552 77.4772 31.2817 69.9074C28.5528 68.9035 25.5436 68.6724 22.7852 67.7586C21.8499 67.4487 20.8938 67.1365 20.4332 66.2027C20.38 65.5041 20.6861 65.1487 21.0588 64.6008Z" fill="white"/>
<path d="M363.337 122.221C363.931 122.244 364.45 122.329 365.013 122.53C366.092 122.913 367.138 123.711 367.586 124.791C368.296 126.502 367.902 128.469 367.173 130.1C364.128 136.913 357.459 141.338 350.736 143.889C352.352 145.579 353.803 147.32 354.583 149.567C355.498 152.26 355.24 155.213 353.872 157.707C352.708 159.869 350.752 161.472 348.364 162.08C344.716 163.009 341.614 161.487 338.548 159.709C335.139 157.651 331.806 154.002 329.944 150.492C328.67 148.088 328.252 145.482 329.129 142.869C329.938 140.456 331.711 138.335 334.052 137.286C337.779 135.615 341.696 137.072 345.27 138.36C349.522 131.173 355.018 124.705 363.337 122.221Z" fill="white"/>
<path d="M336.938 139.278C338.53 139.158 339.7 139.373 341.16 140.045C345.244 141.927 350.695 146.715 352.178 151.036C352.745 152.688 352.731 154.607 351.928 156.181C350.905 158.187 349.257 158.935 347.235 159.575C345.428 159.847 343.889 159.365 342.276 158.569C338.201 156.554 333.03 151.629 331.689 147.197C331.209 145.653 331.389 143.979 332.184 142.571C333.219 140.708 334.99 139.857 336.938 139.278Z" fill="#43A4A4"/>
<path d="M362.839 125.628C363.294 125.591 363.753 125.596 364.209 125.588C364.519 125.778 364.768 125.842 364.923 126.192C365.304 127.051 364.854 128.094 364.475 128.882C361.605 134.846 356.154 138.812 350.051 140.967C349.981 140.984 349.911 141.005 349.84 141.019C349.107 141.159 348.61 141.174 347.994 140.768C347.868 140.138 348.024 139.562 348.242 138.969C348.758 137.566 349.743 136.325 350.667 135.167C354.086 130.883 357.832 127.909 362.839 125.628Z" fill="#43A4A4"/>
</svg>
