<svg width="301" height="413" viewBox="0 0 301 413" fill="none" xmlns="http://www.w3.org/2000/svg">
<path d="M116.415 40.4205C126.587 40.368 136.993 42.3322 147.054 43.7059C157.436 45.124 169.921 46.192 179.786 49.4081C186.12 51.4731 192.03 54.8061 197.722 58.2162C208.746 64.8205 224.442 76.5426 236.681 79.1501C242.358 80.3597 248.006 79.9071 253.706 79.1662C258.496 78.5439 263.32 77.5396 268.003 76.3684C270.371 75.7767 272.77 74.9048 275.169 74.4897C275.925 74.3591 276.618 74.2953 277.319 74.6511C277.531 75.1697 277.552 75.2024 277.423 75.7437C275.942 77.6131 266.391 79.4066 263.582 79.9967C256.314 81.5224 248.587 82.9607 241.14 82.394C229.649 81.52 219.724 74.9257 210.216 69.0014C200.949 63.2266 191.668 56.8114 181.409 52.923C170.378 48.7422 157.697 47.8291 146.063 46.2226C137.673 45.0643 129.14 43.5849 120.676 43.1655C116.837 42.9751 112.981 43.0142 109.18 43.6547C105.686 44.2734 102.265 45.2466 98.9683 46.5594C89.3817 50.2962 48.7597 69.633 44.0066 76.7528C43.2496 77.8865 42.618 79.3687 42.9144 80.7565C43.1443 81.8314 43.9021 82.6461 44.8253 83.1942C53.412 88.2922 68.3433 76.1671 75.9725 72.3291C81.248 69.7217 86.7811 67.6728 92.4825 66.2168C109.456 61.7952 126.384 62.6737 143.07 67.9015C148.885 69.7237 154.616 71.9803 159.873 75.0899C162.314 76.5342 171.073 82.367 171.366 84.8571C171.406 85.1947 171.334 85.3895 171.13 85.6419C166.59 91.2586 137.172 80.6525 130.758 78.5709C127.63 77.5481 124.471 76.6221 121.286 75.7945C116.969 74.7007 112.323 73.744 107.855 74.209C105.667 74.4365 103.312 75.1488 101.917 76.9625C101.285 77.7841 100.788 78.8379 100.945 79.895C101.26 82.0282 103.323 83.9113 104.99 85.1366C111.681 90.0559 119.914 91.7349 127.687 94.1496C131.715 95.3866 135.649 96.9087 139.462 98.7039C158.96 108.034 170.106 123.188 193.18 125.801C198.081 126.356 203.1 126.489 207.992 125.788C217.478 124.428 226.497 120.857 235.947 119.381C239.275 118.877 242.629 118.551 245.992 118.404C250.379 118.189 276.49 117.716 278.631 119.283C278.745 119.753 278.722 119.854 278.592 120.325C277.297 121.778 273.716 121.062 271.914 120.964C259.771 120.306 246.315 119.924 234.355 122.247C229.934 123.106 225.612 124.407 221.258 125.545C217.187 126.608 213.084 127.543 208.955 128.35C209.743 134.011 210.381 139.57 210.287 145.297C209.983 163.728 202.476 180.585 190.476 194.357C178.995 207.535 168.825 214.217 167.79 233.624C167.398 240.979 168.795 248.191 171.312 255.083C178.419 274.54 188.058 280.284 203.025 293.009C209.749 298.726 215.932 304.954 221.136 312.1C230.991 325.632 234.936 341.668 246.445 354.345C255.994 364.862 268.829 370.926 282.895 372.454C284.47 372.625 286.044 372.556 287.621 372.652C288.582 372.709 289.681 372.783 290.351 373.552C290.406 374.033 290.433 374.25 290.103 374.663C289.829 375.007 289.323 375.16 288.905 375.234C287.15 375.545 284.999 375.159 283.23 374.985C272.433 373.919 262.071 370.373 253.25 363.956C243.323 356.735 236.577 346.303 231.158 335.48C227.007 327.193 223.357 319.093 217.65 311.705C212.631 305.209 206.86 299.612 200.567 294.358C192.477 287.605 183.885 281.62 177.756 272.866C171.851 264.431 167.477 254.029 165.896 243.831C165.057 238.299 165.079 232.671 165.961 227.146C169.009 208.47 183.359 200.34 193.687 186.277C206.509 168.82 209.593 149.918 206.368 128.808C197.322 129.37 188.344 128.714 179.753 125.595C165.405 120.386 153.13 108.301 139.266 101.472C135.3 99.542 131.192 97.9186 126.978 96.6159C118.412 93.9419 109.084 92.3169 102.109 86.2179C100.192 84.5413 98.5121 82.3012 98.4076 79.6615C98.3387 77.9216 99.3002 76.22 100.498 75.0229C102.649 72.8724 105.748 71.8423 108.728 71.6278C120.068 70.8127 138.103 78.5963 149.355 81.6709C155.283 83.291 161.279 84.3344 167.438 84.2864C164.899 82.2645 162.597 80.0491 159.887 78.2325C151.961 72.922 141.729 69.7164 132.459 67.7676C126.847 66.5375 121.127 65.8667 115.382 65.7659C100.388 65.6486 83.5727 69.9193 71 78.1833C57.0205 87.3726 43.4323 104.256 39.9085 120.753C38.1568 128.952 39.8451 132.759 34.9222 140.469C32.806 143.783 30.2473 146.684 27.539 149.516C24.2003 153.006 12.4601 162.97 11.7684 166.895C10.967 171.439 22.6048 172.826 25.4397 174.125C26.4803 174.602 27.4305 175.323 28.071 176.281C31.0519 180.739 25.1723 186.18 24.4863 190.394C23.5393 196.211 37.8386 194.841 39.8778 198.479C40.1392 198.945 40.1291 199.236 40.0222 199.738C38.1468 201.148 31.6126 196.808 27.2797 198.313C26.3952 198.62 25.614 199.169 25.2538 200.062C24.3379 202.331 26.8727 205.56 27.5051 207.778C27.8302 208.918 27.8697 210.103 27.8217 211.28C27.5898 216.978 23.7401 222.503 26.4553 228.198C27.877 231.18 30.9003 232.905 33.9034 233.943C48.1672 238.876 83.5816 230.957 97.1699 224.313C108.919 218.568 114.354 210.351 117.486 197.871C117.87 196.344 118.258 194.799 118.536 193.249C118.768 191.952 118.817 190.511 119.277 189.28C119.496 188.694 119.74 188.354 120.321 188.076C121.618 188.003 122.613 189.53 123.554 190.27C124.737 191.201 127.06 191.352 128.502 191.202C136.366 190.387 143.467 183.324 148.256 177.513C154.082 170.441 158.838 161.662 157.856 152.194C157.438 148.166 155.837 143.866 152.6 141.261C146.555 136.399 138.487 138.808 133.162 143.442C131.045 145.283 129.82 147.176 127.961 148.971C127.654 149.269 127.212 149.626 126.762 149.61C126.152 149.589 125.974 149.406 125.546 149.028C125.397 148.373 125.428 148.109 125.765 147.525C126.366 146.486 127.283 145.573 128.092 144.688C131.334 141.14 135.082 138.037 139.779 136.695C143.92 135.512 148.413 135.809 152.195 137.955C156.074 140.156 158.527 144.119 159.65 148.356C161.764 156.332 159.419 164.95 155.336 171.902C150.532 180.082 140.652 191.009 131.306 193.366C127.595 194.303 124.55 193.872 121.248 191.922C120.29 199.136 117.682 207.427 113.677 213.465C103.601 228.657 82.0655 232.778 65.3806 236.088C68.6483 237.096 71.92 238.846 74.1717 241.47C78.1783 246.138 78.9829 253.62 80.6999 259.367C81.2722 261.283 82.0268 263.132 82.8492 264.953C86.5258 273.092 90.6558 278.177 92.9765 287.447C97.5369 305.664 91.0805 316.148 82.2902 331.108C77.6617 338.985 73.0811 346.992 69.6743 355.489C68.3163 358.875 66.2945 363.796 66.1218 367.369C66.0964 367.891 66.0763 368.171 66.4336 368.576C68.1772 368.497 70.9262 365.551 72.1354 364.377C77.2067 359.457 81.7812 353.982 86.5625 348.779C96.9944 337.427 107.939 326.165 120.257 316.852C135.335 305.451 152.784 297.089 172.214 299.859C182.209 301.283 191.31 305.311 199.576 311.01C200.827 311.873 203.091 313.179 203.841 314.499C204.105 314.964 203.994 315.324 203.869 315.814C202.476 316.877 200.694 315.048 199.592 314.167C190.271 306.717 176.781 302.184 164.918 301.875C135.937 301.117 109.157 327.955 90.8462 347.749C84.9593 354.112 79.4334 361.009 73.1441 366.972C71.3315 368.69 68.5474 371.199 65.8746 371.045C65.1914 371.005 64.607 370.72 64.167 370.194C62.4436 368.136 64.0532 364.007 64.7574 361.772C67.9416 351.668 72.9791 342.111 78.3352 333.011C81.5839 327.491 85.1025 322.048 87.864 316.263C89.8157 312.174 91.3213 307.971 91.8484 303.453C92.4821 298.024 91.767 292.362 90.3178 287.112C87.9262 278.446 83.0682 272.041 79.7492 263.985C77.2624 257.95 76.3488 248.242 72.4262 243.401C64.9022 234.115 49.6111 238.884 39.322 237.709C34.2926 237.135 28.7284 235.593 25.4768 231.422C21.8147 226.724 22.8661 221.389 24.2943 216.07C24.8166 214.125 25.4256 212.185 25.2703 210.145C25.0114 206.744 21.9724 203.628 22.483 200.297C22.7641 198.464 24.0995 197.254 25.5002 196.196C24.6819 195.736 23.8555 195.227 23.2066 194.54C18.5873 189.654 26.1778 184.395 26.2214 179.393C26.2298 178.412 25.8197 177.534 25.0126 176.962C23.7881 176.094 22.1236 175.827 20.6999 175.451C17.529 174.614 12.884 173.402 10.5608 170.935C9.5828 169.896 9.16012 168.602 9.21376 167.188C9.27466 165.589 10.0111 164.225 10.9198 162.949C13.0102 160.013 15.881 157.513 18.4639 155.009C22.3822 151.211 26.2875 147.446 29.7851 143.247C37.7398 133.697 35.0311 130.714 37.5938 119.852C40.7381 106.527 48.9957 94.1093 58.9335 84.8236C56.5156 85.8218 53.9734 86.5385 51.3627 86.7773C48.1616 87.0705 44.7257 86.643 42.2041 84.4663C41.0135 83.4386 40.2238 82.0588 40.1549 80.4678C40.0637 78.3673 41.2196 76.3664 42.5962 74.8632C49.2832 67.5611 65.6786 59.9162 74.7327 55.3223C83.4106 50.9197 92.3643 46.1081 101.613 43.0416C106.472 41.4308 111.32 40.6427 116.415 40.4205Z" fill="white"/>
<path d="M145.103 146.639C146.39 146.591 147.574 146.567 148.773 147.133C150.388 147.896 151.417 149.294 151.942 150.975C153.468 155.854 151.685 162.909 149.39 167.303C146.556 172.728 141.359 177.002 135.549 178.848C133.724 179.243 131.373 179.469 129.739 178.404C128.888 177.849 128.154 176.883 127.952 175.878C127.379 173.022 130.397 170.461 131.609 168.119C132.683 166.046 132.699 163.587 133.069 161.321C133.514 158.595 134.593 155.842 136.07 153.51C138.203 150.141 141.156 147.539 145.103 146.639Z" fill="white"/>
<path d="M145.74 149.065C146.405 149.044 147.015 149.048 147.617 149.369C148.635 149.912 149.244 150.953 149.559 152.029C150.82 156.332 149.092 162.563 147.032 166.387C144.531 171.027 139.848 174.922 134.791 176.419C133.734 176.603 132.347 176.899 131.34 176.366C130.814 176.087 130.691 175.737 130.503 175.217C130.67 173.213 132.921 171.22 133.888 169.436C135.755 165.988 134.753 160.441 137.817 155.377C139.611 152.41 142.318 149.915 145.74 149.065Z" fill="#68C0CB"/>
<path d="M59.382 128.73C60.0612 128.669 60.7436 128.651 61.4252 128.676C67.4943 128.862 72.9497 131.632 77.798 135.083C79.0902 136.003 80.4772 136.964 81.544 138.15C82.0607 138.725 82.3369 139.079 82.3035 139.844C81.9364 140.353 81.8618 140.415 81.2867 140.665C79.5677 140.481 77.1752 137.93 75.7515 136.894C70.4721 133.241 62.9457 129.539 56.4434 132.173C55.423 132.587 53.7411 134.267 52.6606 133.942C52.173 133.796 52.0633 133.583 51.8516 133.172C51.8572 132.575 52.0597 132.129 52.4307 131.673C53.8783 129.893 57.2081 129.024 59.382 128.73Z" fill="white"/>
<path d="M73.983 146.216C74.5706 146.142 75.1792 146.051 75.6386 146.527C76.0294 146.933 75.9721 147.149 75.9149 147.653C75.2909 148.541 74.3363 148.936 73.3409 149.299C66.7986 151.687 58.2099 152.685 51.7358 149.652C51.3353 149.405 50.8296 149.138 50.5315 148.767C50.0624 148.184 49.9201 147.743 50.0019 147.02C50.1451 146.877 50.2609 146.742 50.4504 146.648C51.7068 146.026 53.4144 147.518 54.5389 148.02C59.7671 150.352 68.9164 148.171 73.983 146.216Z" fill="white"/>
</svg>
