<svg width="404" height="422" viewBox="0 0 404 422" fill="none" xmlns="http://www.w3.org/2000/svg">
<g clip-path="url(#clip0_368_13480)">
<path d="M328.741 135.579C331.049 139.429 332.067 144.592 328.22 147.838C319.144 155.494 301.798 141.308 293.736 136.54C287.609 152.012 269.259 139.163 260.516 133.067C252.642 127.575 235.919 112.238 227.138 111.422C221.417 110.891 210.381 112.359 204.568 113.514C191.041 116.209 178.928 123.996 165.184 127.71C117.4 140.627 98.8324 115.291 64.3337 90.2941C47.7361 78.2665 31.8241 69.4607 13.3341 60.684C9.77123 58.9933 5.2139 57.5974 1.87797 55.728C1.12002 55.3029 0.0531045 54.8537 0 53.8297C0.439319 51.3082 5.17528 53.8538 6.57531 54.4142C26.2674 62.3021 47.1182 74.1172 64.3337 86.4346C92.4743 106.572 115.029 133.69 153.583 127.213C176.843 123.305 193.576 110.78 217.946 108.548C226.491 107.766 245.719 108.645 251.995 102.529C255.404 99.2061 254.911 93.5498 250.658 91.2843C241.935 86.6423 222.914 86.8307 213.176 87.8548C198.21 89.4295 181.482 95.4046 166.777 95.5495C164.359 95.5737 163.76 95.308 164.18 92.6803C168.612 91.7963 173.27 91.748 177.794 91.0911C195.483 88.5214 212.886 82.8843 231 83.9132C251.397 85.0676 271.205 95.7911 288.145 106.413C299.225 113.359 321.968 132.246 333.859 133.589C341.187 134.415 347.637 133.13 341.279 125.208C321.654 107.118 305.071 88.0432 281.271 75.1702C267.787 67.8764 250.832 58.9016 236.856 52.9699C216.816 44.4636 199.007 49.6128 178.354 51.6029C147.129 54.6122 125.655 57.4186 97.1716 41.5557C76.3305 29.9532 57.6908 14.4622 36.6614 3.11568C35.6814 2.05783 35.9469 -0.415312 37.767 0.0580634C58.3764 11.4722 77.1947 26.6782 97.6496 38.1793C117.429 49.294 133.447 51.714 156.166 50.661C186.493 49.2602 212.355 38.5851 241.529 51.6753C254.989 57.7133 270.365 65.5433 283.366 72.586C303.478 83.4785 316.02 97.0373 332.106 112.654C335.5 115.948 339.637 118.701 342.717 122.315C354.212 135.786 340.308 139.366 328.732 135.574L328.741 135.579ZM257.291 94.0763C257.654 98.4139 257.316 101.887 253.917 104.93C259.797 109.041 266.15 112.591 272.117 116.649C284.486 125.049 296.405 135.97 309.585 142.897C313.833 145.128 323.493 150.195 327.027 144.723C330.074 140.013 323.561 134.313 320.196 131.801C309.86 124.092 296.005 114.876 284.949 108.157C282.477 106.655 258.31 92.9025 257.287 94.0714L257.291 94.0763ZM235.084 111.441C246.057 117.349 255.288 125.976 265.629 132.787C271.06 136.366 281.961 143.298 288.353 139.361C293.658 136.096 287.754 132.028 285.027 129.802C274.719 121.387 262.795 114.301 251.503 107.297L235.084 111.441Z" fill="white"/>
<path d="M70.3635 275.664C97.7172 273.384 116.758 294.034 136.44 308.255C155.616 322.103 176.297 322.195 195.647 333.522C209.57 341.676 219.042 354.211 231.748 363.548C260.318 384.54 298.105 385.565 328.408 403.495C330.981 405.016 339.174 409.992 340.801 411.856C342.061 413.305 340.405 414.904 338.875 414.305C308.248 389.429 266.387 389.752 233.868 368.668C219.544 359.379 209.546 345.163 194.686 336.416C181.381 328.586 168.172 326.658 154.216 321.374C121.745 309.071 95.2406 263.269 54.5239 283.475C53.2735 284.093 47.7989 287.735 47.0651 287.585C46.0754 287.383 46.1672 285.726 46.7803 284.9C47.2148 284.306 51.608 281.605 52.5976 281.064C57.9419 278.118 64.2662 276.176 70.3732 275.669L70.3635 275.664Z" fill="white"/>
<path d="M247.95 293.059C260.936 305.898 264.021 323.582 275.39 336.807C293.856 358.298 315.354 360.423 339.84 370.344C361.169 378.991 391.482 397.303 402.808 417.909C403.421 419.03 404.623 420.31 403.614 421.517L401.625 421.996C389.411 401.215 367.932 386.246 346.295 376.436C320.858 364.905 295.02 362.925 275.139 340.913C262.254 326.644 258.518 306.361 244.001 293.382C233.959 284.403 217.666 281.147 210.545 269.878C209.695 268.535 207.238 263.893 208.093 262.536L209.507 262.212C211.622 266.55 213.239 269.883 216.99 273.085C226.119 280.881 238.43 283.644 247.945 293.054L247.95 293.059Z" fill="white"/>
<path d="M204.187 208.923C206.557 207.928 208.537 206.281 210.951 205.315C217.323 202.765 224.371 202.069 228.238 208.769C232.883 216.816 226.573 226.487 217.535 226.264C212.722 226.144 208.532 223.018 204.187 221.477C206.046 233.515 198.196 230.708 189.945 231.612C185.658 232.08 178.933 233.669 174.994 233.563C172.165 233.486 168.95 231.375 168.491 228.443C167.743 223.661 170.393 215.889 170.427 210.624C170.456 205.924 167.912 198.432 175.93 198.789C180.831 199.007 187.247 200.567 192.364 201.204C198.239 201.934 205.428 200.011 204.192 208.928L204.187 208.923ZM194.083 220.468C192.074 217.526 201.155 212.459 202.024 210.358C202.294 209.701 201.599 206.073 201.049 205.537L173.608 202.146C172.247 202.465 172.918 213.464 172.797 215.43C172.614 218.454 170.557 226.791 171.885 228.897C173.57 231.568 181.328 229.419 184.147 229.192C189.414 228.766 194.71 228.539 199.977 228.129C202.647 226.704 200.407 223.864 201.015 221.463C202.681 214.879 210.753 221.733 214.296 222.695C229.305 226.767 231.608 205.813 217.922 206.489C212.384 206.764 204.568 211.45 200.547 215.179C199.354 216.285 195.396 222.395 194.078 220.463L194.083 220.468Z" fill="white"/>
<path d="M208.083 177.043C223.966 178.989 221.427 196.012 205.167 191.085C204.375 198.229 202.758 198.166 196.221 197.823C191.828 197.591 179.73 195.799 176.051 193.852C170.412 190.867 174.83 185.419 176.186 181.182C177.78 176.217 178.156 172.169 179.286 167.392C180.937 160.412 188.545 164.706 193.16 165.643C196.134 166.247 206.755 167.45 208.252 169.382C209.748 171.314 207.726 174.797 208.073 177.043H208.083ZM205.568 171.348C202.019 171.082 184.543 165.711 182.525 167L176.394 190.099C177.813 192.804 197.25 195.157 200.967 194.949C202.517 193.442 201.57 188.254 203.221 187.433C205.008 186.544 208.078 189.09 210.231 189.162C211.665 189.21 215.223 188.37 215.682 186.872C217.564 180.69 206.326 180.873 205.384 179.018C204.443 177.163 206.311 173.594 205.568 171.353V171.348Z" fill="white"/>
<path d="M214.325 141.124L215.122 141.776C222.088 140.926 229.247 145.327 226.245 153.046C223.744 159.475 216.724 158.349 211.428 156.809C211.163 161.112 210.323 164.648 205.384 164.561C201.918 164.503 189.646 162.117 186.315 160.919C179.112 158.325 185.311 147.718 186.204 142.453C186.561 140.342 186.72 129.884 187.256 129.512L189.192 129.329C190.331 134.536 189.554 139.989 188.41 145.143C187.802 147.872 184.06 156.422 186.827 157.992C189.916 158.166 205.046 162.165 206.77 161.586C208.493 161.006 208.088 155.108 209.213 153.862C211.25 152.191 220.152 158.127 223.227 153.403C224.903 150.829 223.715 145.694 220.234 145.346L198.703 143.704C197.279 143.25 197.964 140.878 198.63 140.878H210.217C210.386 140.878 210.753 141.733 211.424 140.636V132.435C211.424 132.348 212.442 131.314 212.698 131.27C213.195 131.121 214.32 132.314 214.32 132.435V141.12L214.325 141.124Z" fill="white"/>
<path d="M204.052 236.562C205.891 238.441 207.156 246.083 207.899 248.88C208.517 251.198 210.907 253.72 208.812 256.256C207.832 257.439 197.824 259.811 195.372 260.68C191.046 262.212 182.95 266.974 178.861 266.318C174.516 265.622 174.096 258.285 172.928 254.879C170.828 248.749 164.875 240.277 174.139 238.007C178.875 236.847 197.008 234.867 201.493 235.49C202.072 235.572 203.675 236.176 204.047 236.558L204.052 236.562ZM194.913 238.504C189.728 238.813 183.066 239.538 177.934 240.354C175.815 240.692 171.354 240.939 171.924 243.789C173.763 245.996 177.707 262.695 178.591 263.221C179.542 263.791 181.4 263.463 182.486 263.236L206.398 254.295L202.019 238.842C200.943 237.891 196.55 238.412 194.913 238.509V238.504Z" fill="white"/>
</g>
<defs>
<clipPath id="clip0_368_13480">
<rect width="404" height="422" fill="white"/>
</clipPath>
</defs>
</svg>
