<svg width="412" height="322" viewBox="0 0 412 322" fill="none" xmlns="http://www.w3.org/2000/svg">
<g clip-path="url(#clip0_368_13490)">
<path d="M301.164 226.997C309.3 222.162 325.721 214.051 334.598 220.101C340.614 224.205 338.025 230.47 333.675 234.64C346.08 231.273 362.232 240.56 349.229 252.813C326.73 267.777 303.926 285.783 280.853 299.633C275.11 303.081 270.865 304.965 264.27 306.472C247.237 310.36 229.266 312.689 212.143 316.491C190.769 321.24 183.696 326.084 161.709 316.429C137.895 305.97 115.143 291.914 90.4335 283.019C61.4456 272.588 45.279 278.518 19.8852 293.028C14.549 296.079 9.4377 299.791 4.02011 302.521C2.68007 302.426 2.55564 301.173 3.05337 300.101C4.0919 297.878 27.1597 285.338 30.9214 283.511C58.8804 269.948 75.4442 272.98 103.063 284.721C123.379 293.358 142.82 304.702 162.81 313.401C183.542 322.421 190.08 318.103 210.224 313.617C227.989 309.662 246.764 307.333 264.356 303.21C279.073 299.762 299.714 283.081 312.861 274.276C323.567 267.108 337.274 259.781 346.802 251.34C350.344 248.198 353.905 243.975 349.401 239.695C340.873 231.589 322.222 240.981 313.579 245.372C294.842 254.893 279.939 267.916 259.001 273.009C254.574 274.085 245.309 274.688 241.982 276.036C241.585 276.199 238.249 280.828 236.091 282.129C219.872 291.909 188.18 275.558 172.186 269.633C158.201 264.453 144.121 260.594 129.008 261.182L128.625 258.585C143.097 256.586 158.311 261.235 171.836 266.161C190.032 272.789 207.955 283.511 228.185 281.397C238.422 280.331 245.093 268.992 237.809 260.431C228.984 250.058 192.554 242.139 178.106 235.525C148.945 222.177 138.139 198.356 101.561 196.395C76.8991 195.075 36.6501 215.654 12.1417 224.133C9.63392 225.003 5.22615 226.897 2.93372 227.361C2.07227 227.533 1.22039 227.648 0.392435 227.256L-0.00479126 225.391L1.02895 224.496C12.1752 220.517 23.422 216.744 34.4821 212.54C67.6576 199.934 92.9222 184.238 129.199 199.829C146.06 207.074 155.789 220.101 171.094 228.676C187.658 237.959 206.414 241.756 224.05 248.404C235.459 245.19 246.706 240.068 257.01 234.243C265.127 229.652 279.35 218.289 288.008 217.442C294.469 216.811 301.6 219.432 301.155 226.993L301.164 226.997ZM228.965 250.876C233.287 252.435 236.943 255.367 240.264 258.432C261.365 252.311 280.652 241.665 298.025 228.399C300.992 221.699 293.914 219.757 288.491 220.307C280.7 221.096 263.342 234.334 255.268 238.705C247.194 243.076 238.407 247.328 229.659 249.91C228.975 250.111 228.817 249.618 228.96 250.867L228.965 250.876ZM243.308 272.378C243.643 272.622 250.415 271.469 251.525 271.278C277.886 266.653 295.302 250.742 318.681 239.484C324.792 236.538 331.129 235.902 334.728 229.245C336.948 225.137 334.613 221.871 330.353 220.996C315.326 217.911 295.967 234.448 283.907 242.005C271.057 250.058 257.288 256.476 242.83 261.163L242.408 262.024C244.069 265.176 244.758 269.016 243.308 272.383V272.378Z" fill="white"/>
<path d="M219.403 168.231C218.924 168.848 223.102 180.924 223.815 182.693C225.285 186.342 230.118 193.917 229.936 197.122C229.582 203.473 220.255 204.816 215.402 207.002C209.664 209.585 204.547 213.602 199.163 216.098C184.729 222.784 184.476 209.116 180.551 199.173C178.431 193.807 175.359 188.025 173.616 182.693C171.874 177.361 172.75 173.654 178.149 171.21C187.414 167.011 199.9 164.472 209.592 161.038C214.253 160.943 223.241 166.873 228.156 168.805C258.829 180.852 284.792 160.397 300.399 135.711C327.166 93.3623 337.838 38.0919 389.621 17.0397C394.168 15.1937 405.367 11.3917 409.952 11.5064C411.225 11.5399 412.689 12.5347 411.636 13.7111C410.65 14.8159 403.969 15.4472 401.94 15.9684C372.277 23.6107 351.641 45.6529 336.934 71.4062C314.574 110.56 296.484 179.422 239.226 174.945C232.468 174.415 225.677 170.55 219.408 168.241L219.403 168.231ZM208.769 164.018C199.666 168.14 188.122 170.044 179.245 174.214C177.053 175.242 175.861 176.313 175.847 178.977C175.832 181.641 181.556 193.257 182.939 196.777C184.734 201.349 186.27 208.341 188.429 212.315C189.276 213.879 190.994 215.06 192.813 215.013C196.632 214.917 208.458 206.71 213.009 204.611C216.249 203.119 222.595 201.588 224.997 199.871C229.472 196.672 224.045 190.885 222.332 187.04C220.37 182.631 218.632 177.643 217.244 173.013C216.794 171.507 216.392 167.724 215.789 166.825C215.186 165.926 210.147 163.783 208.764 164.027L208.769 164.018Z" fill="white"/>
<path d="M167.634 54.1514C168.792 53.9122 170.156 53.9888 171.348 54.0462C177.455 54.3427 184.811 56.0069 191.013 56.8439C196.244 57.5517 206.672 57.2073 210.314 60.9711C214.225 65.0122 211.252 70.9807 210.803 75.787C210.281 81.3442 210.693 86.9874 210.338 92.5207C209.836 100.306 207.917 103.31 199.977 104.625C191.674 105.998 178.13 106.399 169.458 106.614C162.887 106.777 157.641 104.262 157.708 96.8201C157.751 91.6407 159.498 84.118 160.111 78.6421C160.762 72.8219 160.403 60.9328 163.954 56.6813C164.82 55.6387 166.289 54.4287 167.634 54.1514ZM205.371 99.2687C206.093 98.5226 206.778 96.8488 206.926 95.8062C207.735 90.0912 206.873 82.3054 207.453 76.2653C208.127 69.1777 212.971 62.8697 203.322 61.2676C194.507 59.8042 180.57 57.8243 171.822 57.3938C165.926 57.1021 165.28 58.9481 164.476 64.3762C163.853 68.5847 163.959 73.4006 163.456 77.6904C162.8 83.2715 161.288 89.9238 161.078 95.3758C160.924 99.2591 161.642 102.865 166.069 103.276C173.679 103.989 183.116 101.555 190.951 102.291C194.842 101.335 202.423 102.315 205.375 99.2687H205.371Z" fill="white"/>
<path d="M199.709 110.067C203.834 110.039 207.433 111.062 209.137 115.18C210.123 121.545 210.228 128.068 211.415 134.405C213.081 143.324 219.953 152 207.347 156.418C197.072 160.02 184.916 161.349 174.564 165.261C171.047 165.328 167.969 163.296 166.572 160.106C164.978 148.704 159.771 135.175 158.742 123.975C158.134 117.346 160.594 113.96 167.098 112.851C175.469 111.425 191.2 110.12 199.714 110.062L199.709 110.067ZM198.264 113.425C189.491 113.774 178.182 114.62 169.496 115.734C162.355 116.648 160.977 118.073 162.245 125.247C164.275 136.724 167.457 148.264 169.931 159.608C171.032 161.072 172.597 162.186 174.555 161.918C184.844 158.169 196.766 156.705 206.969 153.181C215.627 150.187 209.855 142.765 208.553 136.304C207.228 129.723 206.917 122.894 206.17 116.227C204.835 112.731 201.322 113.3 198.259 113.425H198.264Z" fill="white"/>
<path d="M181.02 0.167435C182.188 -0.071686 183.504 -0.014297 184.686 0.110046C190.257 0.683936 198.058 3.49121 204.088 4.60552C208.501 5.42331 213.234 5.53809 217.503 6.48979C221.772 7.44149 224.787 8.99577 224.136 14.113C223.543 18.8045 220.207 26.136 219.068 31.5018C218.048 36.3129 218.034 40.0815 217.479 44.7252C216.785 50.5167 214.239 53.1327 208.161 53.1231C199.489 53.1136 181.69 50.3637 173.392 47.7046C168.113 46.0117 166.634 43.8739 167.404 38.1685C168.477 30.2154 173.382 18.3837 175.746 10.1962C176.742 6.76239 176.469 1.10479 181.015 0.172217L181.02 0.167435ZM180.8 3.52947L170.161 41.3393C170.51 44.2613 174.023 44.6056 176.364 45.213C184.241 47.2599 197.211 49.4646 205.275 49.7659C216.661 50.1915 213.387 46.3799 214.679 37.6233C215.555 31.7027 217.115 25.959 218.795 20.2344C219.369 18.2832 221.848 13.0991 221.078 11.5209C219.948 9.2062 207.472 8.58927 204.476 8.03929C198.087 6.8676 189.003 3.49121 183.183 3.03688C182.365 2.97471 181.537 3.19949 180.8 3.52947Z" fill="white"/>
</g>
<defs>
<clipPath id="clip0_368_13490">
<rect width="412" height="322" fill="white"/>
</clipPath>
</defs>
</svg>
