<svg width="382" height="399" viewBox="0 0 382 399" fill="none" xmlns="http://www.w3.org/2000/svg">
<g clip-path="url(#clip0_469_3830)">
<g clip-path="url(#clip1_469_3830)">
<path d="M323.721 118.744C322.529 123.189 318.724 125.069 314.33 124.968C297.526 124.587 281.906 95.2963 269.197 85.6616C264.886 82.3933 259.562 80.5868 254.506 78.7527C246.546 75.8706 228.413 69.7294 220.531 70.543C211.637 71.4623 193.159 77.1715 184.049 80.0168C181.983 80.6604 172.831 83.4736 172.486 85.4869C173.935 88.3185 178.311 89.2838 181.182 90.0147C194.526 93.4162 218.12 93.4116 228.537 101.948C240.523 111.766 240.997 128.08 222.114 125.625C220.209 130.696 222.289 141.861 214.978 142.049C209.479 142.192 196.058 139.664 190.463 138.156C188.144 137.531 185.286 136.915 184.882 134.07C184.546 131.693 188.25 118.395 187.628 117.806C181.302 117.246 174.925 116.211 168.584 115.963C144.088 115.021 123.843 118.147 101.528 104.853C90.5125 98.2934 84.6092 88.7828 75.4714 80.3662C65.5099 71.1911 52.5302 61.8828 40.5396 55.5669C35.7913 53.0617 28.862 50.9058 24.7394 48.3914C21.3391 46.3137 23.3222 44.0705 27.3252 45.353C41.0688 49.7383 61.6312 63.5928 72.7107 73.0252C85.8653 84.2182 93.7424 97.5257 110.086 105.028C133.676 115.857 158.402 110.916 183.193 113.734C189.496 114.451 196.196 115.729 202.416 117.03C209.12 118.432 217.412 121.525 223.821 122.284C234.468 123.543 236.124 115.885 230.143 108.618C217.646 93.4254 189.648 99.2862 173.057 91.2512C165.741 87.7071 168.133 82.1037 174.626 79.3411C182.282 76.0774 193.168 73.7101 201.404 71.6508C206.907 70.2764 218.668 66.6404 223.715 66.8105C233.166 67.1276 260.952 76.0774 269.119 81.1614C282.343 89.3895 298.672 119.898 313.386 121.433C316.731 121.783 319.897 121.093 320.73 117.384C321.563 113.674 318.038 109.496 315.857 106.577C307.428 95.2825 289.079 70.6717 278.137 63.4365C265.631 55.167 240.307 43.6339 225.542 42.048C220.273 41.4826 214.31 42.1951 209.433 41.6113C206.585 41.2711 207.257 38.2511 209.898 37.888C222.169 36.201 238.742 40.3104 249.992 45.1783C258.702 48.9477 269.786 54.2431 277.861 59.1248C295.566 69.8351 306.558 92.3406 320.845 107.11C322.69 108.402 323.744 114.419 324.599 115.297C326.288 117.025 332.472 116.68 333.829 114.4C335.187 112.12 333.673 110.093 332.615 108.208C318.765 93.9035 307.083 67.5643 291.655 55.9071C276.577 44.5118 258.5 34.6795 242.952 23.7439L236.525 21.896C204.179 23.4773 171.69 36.1044 139.11 34.2612C111.636 32.7029 90.6919 14.0632 67.9669 1.09128L66.2553 -0.912883L66.697 -2.30569L67.9117 -2.97681C86.5647 6.2442 102.733 21.4363 123.084 27.3155C158.039 37.4191 194.99 21.4133 229.747 18.6875C246.215 17.3958 252.9 25.9825 265.438 34.3439C275.998 41.3815 286.783 48.1248 297.034 55.5899C311.698 72.5012 323.707 91.6419 337.501 109.302C340.229 118.588 330.838 120.836 323.73 118.767L323.721 118.744ZM218.842 124.724L191.59 118.758C190.969 118.923 190.996 119.397 190.854 119.884C190.361 121.603 188.383 131.44 188.613 132.612C188.719 133.155 189.055 133.716 189.469 134.088C190.854 135.311 206.157 137.618 209.056 137.94C210.896 138.147 214.982 139.08 216.137 137.678C216.657 137.048 219.224 125.267 218.838 124.724H218.842Z" fill="white"/>
<path d="M371.374 388.171L369.313 388.447C368.655 388.217 368.494 387.647 368.379 387.045C367.877 384.374 368.093 380.453 367.753 377.543C364.035 346.12 357.594 316.95 327.76 300.852C307.952 290.165 284.335 282.566 263.611 273.092C247.986 265.949 225.44 256.333 218.865 239.27C217.857 236.659 215.856 226.463 214.729 225.493C214.379 225.195 213.942 224.992 213.496 224.891C210.684 224.252 200.672 226.932 196.991 227.488C194.493 227.865 187.127 227.35 186.326 230.177C186.114 231.956 187.03 233.887 187.619 235.592C199.246 269.158 219.288 298.76 188.323 330.418C186.804 331.972 184.955 334.288 182.581 334.077C180.708 332.748 187.499 326.437 188.535 325.118C214.402 292.238 194.93 268.707 184.067 235.923C181.09 226.946 183.013 225.861 191.608 224.404C197.576 223.393 206.359 221.862 212.221 221.577C213.473 221.517 215.465 221.347 216.574 221.811C219.288 222.947 220.061 232.159 221.051 235.248C226.517 252.315 247.185 261.398 262.24 268.491C287.491 280.387 331.947 293.116 349.661 313.406C363.543 329.306 370.951 362.204 371.945 382.986C372.004 384.227 372.188 387.321 371.379 388.153L371.374 388.171Z" fill="white"/>
<path d="M100.395 268.532C107.734 267.071 119.228 260.644 126.507 262.194C133.142 263.605 140.071 277.873 142.647 283.725C152.673 306.501 155.204 322.02 145.404 345.422C139.376 359.814 132.212 372.648 128.352 388.084C127.372 392.005 126.93 397.865 125.803 401.152C124.804 404.066 122.26 403.423 122.301 399.989C122.393 392.235 127.892 376.551 130.846 368.998C137.411 352.216 150.805 332.62 148.482 314.169C147.129 303.421 136.933 273.695 128.32 267.264C125.292 265.002 123.12 265.062 119.559 265.88C113.808 267.199 107.739 270.468 101.817 271.621C99.8846 271.64 99.3325 269.985 100.386 268.532H100.395Z" fill="white"/>
<path d="M215.663 195.408C221.879 190.944 236.165 191.188 234.974 201.618C233.966 210.435 222.132 208.311 216.118 207.346C216.178 211.303 216.178 215.647 211.641 216.879C208.789 217.656 202.6 218.047 199.338 218.364C195.468 218.745 188.691 219.577 185.07 219.302C176.48 218.644 179.157 207.198 178.904 201.126C178.72 196.7 176.742 189.188 179.24 185.424C181.522 181.981 186.85 183.466 190.131 183.484C194.419 183.507 198.763 183.277 203.042 183.447C205.462 183.544 210.795 183.705 212.819 184.242C218.005 185.617 215.695 191.468 215.667 195.408H215.663ZM212.548 198.051C210.809 196.304 213.804 190.908 211.793 188.476C209.644 185.874 201.675 187.952 198.441 186.66C194.125 187.005 189.312 186.265 185.07 186.66C179.033 187.217 181.918 194.282 182.098 198.396C182.226 201.296 181.918 204.243 182.084 207.134C182.162 208.55 182.493 212.6 182.912 213.652C184.021 216.452 189.298 215.744 191.981 215.606C196.278 215.385 204.353 214.631 208.416 213.657C215.566 211.947 211.462 205.029 213.666 203.636C215.649 202.381 221.216 204.969 224.143 205.07C234.96 205.433 233.764 194.498 223.365 195.987C220.581 196.387 215.005 200.515 212.552 198.051H212.548Z" fill="white"/>
<path d="M123.172 207.943C158.131 205.268 159.594 246.868 168.424 270.376C173.66 284.313 181.882 297.91 177.824 313.52C177.488 314.807 174.212 324.166 172.197 321.247C171.336 320.006 173.927 315.428 174.414 313.787C179.264 297.441 169.146 282.437 163.827 267.618C155.287 243.816 155.356 207.644 119.868 211.993C117.379 212.296 112.281 214.755 111.379 211.791C111.614 209.065 120.912 208.113 123.167 207.943H123.172Z" fill="white"/>
<path d="M214.595 177.352C213.79 178.083 212.382 178.34 211.314 178.437C206.713 178.864 200.819 177.697 196.14 177.476C192.905 177.32 184.711 178.17 182.387 176.98C180.873 176.203 179.281 173.794 178.992 172.107C178.255 167.791 180.215 159.512 180.717 154.764C181.117 150.958 179.889 147.142 183.468 144.196C186.427 141.76 194.12 144.334 198.026 144.83C202.835 145.446 208.374 145.607 213.022 146.384C221.29 147.768 217.54 157.605 217.043 163.043C216.693 166.881 217.802 174.456 214.6 177.361L214.595 177.352ZM186.56 146.825C183.073 147.855 184.191 154.401 183.933 157.058C183.593 160.56 181.527 170.08 182.995 172.7C183.133 172.944 184.168 173.946 184.407 174.047C186.353 174.856 193.821 174.139 196.595 174.268C200.267 174.438 204.956 175.32 208.535 175.238C215.161 175.086 212.948 169.947 213.362 165.336C213.638 162.275 215.594 153.707 214.305 151.528C213.574 150.287 211.535 149.928 210.229 149.629C205.706 148.595 200.783 148.609 196.177 148.053C193.559 147.735 188.884 146.145 186.56 146.83V146.825Z" fill="white"/>
<path d="M269.781 310.785C270.844 311.806 269.873 313.433 268.654 313.792C266.606 314.389 262.024 313.7 259.539 313.87C245.335 314.84 231.127 319.611 218.253 325.435C211.761 328.372 203.148 334.256 197.07 336.412C195.215 337.069 193.08 336.927 194.277 334.55C195.114 332.891 214.554 323.454 217.646 322.075C227.529 317.671 238.82 313.488 249.518 311.668C252.683 311.13 268.065 309.14 269.781 310.79V310.785Z" fill="white"/>
</g>
</g>
<defs>
<clipPath id="clip0_469_3830">
<rect width="382" height="399" fill="white"/>
</clipPath>
<clipPath id="clip1_469_3830">
<rect width="349" height="406" fill="white" transform="translate(23 -3)"/>
</clipPath>
</defs>
</svg>
