<svg width="370" height="369" viewBox="0 0 370 369" fill="none" xmlns="http://www.w3.org/2000/svg">
<path d="M180.701 101.874C190.669 101.237 200.085 102.856 207.763 109.574C218.83 109.443 227.497 111.991 236.667 118.18C243.85 123.028 251.161 129.75 252.844 138.577C258.661 142.435 262.898 148.358 265.089 154.956C267.488 162.18 267.009 170.867 263.517 177.674C260.299 183.949 253.862 187.775 247.339 189.862C247.48 192.282 247.527 194.697 247.166 197.103C246.227 203.359 242.832 208.554 237.766 212.278C226.815 220.328 209.992 222.518 196.809 220.472C199.876 227.807 206.651 234.343 213.9 237.537C215.069 238.052 218.261 238.73 218.959 239.319C219.359 239.656 219.335 239.775 219.38 240.265C219.132 240.682 219.08 240.75 218.567 240.86C217.914 240.998 217.029 240.718 216.392 240.555C212.505 239.557 209.305 237.734 206.05 235.42C200.675 231.411 196.956 226.118 194.496 219.931C187.129 218.657 180.351 215.494 172.79 215.05C164.858 214.584 158.317 217.321 150.295 214.236C143.246 211.527 139.458 206.317 136.533 199.649C127.597 196.035 117.392 198.182 108.591 194.221C102.235 191.362 98.0388 186.096 95.6638 179.656C92.2597 170.426 93.2953 160.281 97.3927 151.441C101.289 143.033 107.498 137.002 116.206 133.783C118.842 124.746 124.732 118.324 132.939 113.814C141.006 109.381 149.717 107.273 158.697 109.892C165.007 104.023 172.365 102.523 180.701 101.874Z" fill="white"/>
<path d="M181.238 104.037C183.44 103.816 185.85 103.901 188.05 104.055C194.654 104.517 199.941 106.134 205.261 110.091C204.048 110.388 202.84 110.694 201.659 111.105C198.933 112.054 195.389 113.418 194.112 116.206C191.364 122.202 195.575 131.3 197.771 136.982C199.799 142.23 200.812 147.798 198.451 153.092C192.434 153.659 186.393 153.652 180.372 154.332C165.799 155.977 151.654 161.45 142.313 173.266C137.496 179.36 134.973 189.432 135.901 197.085C132.463 196.04 128.755 195.43 125.186 195.027C118.659 194.291 111.995 194.217 106.286 190.521C101.05 187.131 97.8682 181.405 96.6126 175.402C94.5639 165.607 96.9837 155.259 102.473 146.985C106.177 141.792 110.334 138.332 116.322 136.047C116.66 140.889 118.052 145.057 120.592 149.204C123.153 153.386 126.656 157.004 131.616 158.099C133.253 158.461 135.253 158.548 136.701 157.556C138.151 156.562 138.919 154.762 139.154 153.079C139.761 148.728 137.692 144.373 135.082 141.02C130.765 135.475 125.898 133.594 119.126 132.757C119.314 132.102 119.514 131.45 119.726 130.802C122.193 123.473 129.197 118.129 135.9 114.829C142.417 111.62 150.167 109.335 157.294 111.726C154.267 116.132 151.621 121.725 152.071 127.204C152.386 131.042 154.247 135.436 157.304 137.898C158.969 139.24 160.954 139.969 163.108 139.704C165.544 139.405 167.652 137.859 169.102 135.943C171.033 133.391 171.759 130.295 171.319 127.144C170.455 120.953 165.402 114.603 160.558 110.921C165.54 105.735 174.404 104.514 181.238 104.037Z" fill="#8CA3DE"/>
<path d="M194.384 155.569C195.331 155.505 196.299 155.516 197.249 155.491C193.453 160.682 188.811 164.882 183.15 168.004C176.562 171.637 168.626 172.636 164.502 179.588C162.952 182.202 161.614 185.579 162.496 188.655C163.059 190.619 164.505 192.516 166.282 193.515C175.299 198.586 187.906 187.795 194.618 182.571C197.106 180.613 199.658 178.738 202.27 176.948C206.335 174.212 210.544 172.031 215.305 170.756C221.734 169.035 227.355 169.212 233.189 172.618C239.022 176.095 243.239 181.731 244.922 188.296C237.071 189.596 229.158 190.236 221.294 191.4L220.417 191.52C212.096 192.694 202.448 194.831 197.162 201.944C193.729 206.562 192.821 212.003 193.683 217.601C186.421 215.825 179.476 213.233 171.904 213.027C168.147 212.925 164.443 213.479 160.7 213.679C154.386 214.017 149.019 212.192 144.297 207.956C140.911 204.918 138.302 200.2 138.07 195.61C137.954 193.32 138.269 190.914 138.631 188.658C139.651 182.309 141.459 177.592 145.809 172.805C159.285 157.974 175.714 156.527 194.384 155.569Z" fill="#8CA3DE"/>
<path d="M210.131 111.543C218.811 111.485 226.062 113.992 233.361 118.55C240.152 122.791 248.358 129.206 250.237 137.345C246.579 137.279 243.218 137.436 239.811 138.895C236.779 140.193 233.448 142.468 232.244 145.658C231.497 147.635 231.4 150.243 232.321 152.181C232.936 153.473 234.01 154.435 235.384 154.858C237.864 155.622 240.882 154.598 243.077 153.416C248.01 150.76 251.003 146.281 252.551 141.005C257.326 144.141 261.015 149.366 262.951 154.688C265.376 161.353 265.109 169.54 262.036 175.962C259.223 181.843 252.967 185.707 246.985 187.797C245.001 180.796 241.704 175.853 235.698 171.669C234.902 171.183 234.104 170.689 233.277 170.257C228.152 167.584 222.646 167.139 217.041 168.391C203.787 171.351 195.387 180.37 184.474 187.366C181.708 189.139 178.797 190.939 175.635 191.903C173.083 192.68 169.797 193.11 167.382 191.743C166.013 190.968 164.948 189.528 164.556 188.011C164.087 186.192 164.574 183.667 165.415 182.024C168.605 175.798 173.315 174.878 179.289 172.399C181.407 171.521 183.413 170.418 185.366 169.224C191.426 165.523 195.985 161.185 199.79 155.223C203.185 154.488 206.528 153.649 209.437 151.663C213.498 148.889 215.588 144.437 216.477 139.725C218.383 129.626 215.862 119.954 210.131 111.543Z" fill="#8CA3DE"/>
<path d="M244.73 190.492L245.142 190.514C245.895 191.672 245.358 195.23 245.137 196.63C244.217 202.459 240.995 207.14 236.254 210.576C225.958 218.039 209.364 220.205 197.077 218.287L196.392 218.145C195.864 217.701 195.726 217.021 195.601 216.373C194.776 212.066 195.51 207.895 198 204.242C204.706 194.402 219.476 193.658 230.235 192.511C235.091 191.993 239.934 191.432 244.73 190.492Z" fill="#8CA3DE"/>
<path d="M207.118 111.944C207.379 111.904 207.536 111.952 207.79 112.009C210.482 114.44 212.767 120.261 213.801 123.699C215.713 130.06 215.688 139.288 212.397 145.215C210.215 149.145 206.676 151.135 202.481 152.368L200.76 152.749C204.29 141.204 198.046 136.032 195.852 125.501C195.312 122.907 194.641 118.846 196.281 116.528C198.277 113.707 203.937 112.507 207.118 111.944Z" fill="#8CA3DE"/>
<path d="M159.158 112.675C162.177 113.882 165.174 118.614 166.785 121.302C168.636 124.387 169.966 127.768 168.964 131.393C168.225 134.063 166.401 136.007 164.053 137.352C163.586 137.502 163.1 137.645 162.618 137.731C161.388 137.952 160.034 137.479 159.036 136.779C156.589 135.063 155.044 131.678 154.495 128.818C153.404 123.131 155.993 117.278 159.158 112.675Z" fill="#8CA3DE"/>
<path d="M119.982 135.203C124.5 135.333 128.476 137.166 131.699 140.304C134.53 143.059 137.062 147.439 137.013 151.488C136.992 153.254 136.414 154.901 135.136 156.142C134.418 156.267 133.665 156.381 132.935 156.322C129.71 156.061 126.65 153.847 124.597 151.478C121.452 147.849 119.64 143.287 118.773 138.612C118.588 137.613 118.348 136.586 118.422 135.566C118.835 135.189 119.45 135.242 119.982 135.203Z" fill="#8CA3DE"/>
<path d="M245.982 139.522C247.481 139.325 249.01 139.54 250.497 139.734C250.037 141.95 249.348 143.967 248.128 145.892C245.761 149.627 242.622 151.776 238.339 152.758C237.049 152.9 236.056 152.98 234.962 152.192C234.239 151.672 233.871 150.911 233.761 150.039C233.515 148.094 234.221 146.219 235.409 144.703C237.898 141.526 242.095 139.99 245.982 139.522Z" fill="#8CA3DE"/>
<path d="M147.401 240.016C155.124 239.633 166.151 250.204 172.208 254.842C174.669 256.726 177.226 258.487 179.976 259.925C180.944 258.803 182.001 257.366 183.383 256.74C187.796 254.741 197.309 254.963 202.463 254.683C206.894 254.443 211.395 254.155 215.747 253.245C223.798 251.561 230.42 246.745 238.162 244.259C245.171 242.008 252.336 241.514 259.622 242.426C270.959 243.845 281.458 249.208 290.355 256.182C293.317 258.505 296.099 261.079 298.969 263.513C303.518 267.371 308.261 271.09 313.262 274.35C319.695 278.508 326.494 282.073 333.576 285C336.5 286.211 339.84 286.947 342.606 288.43C343.232 288.766 343.588 289.073 343.795 289.756C343.598 290.171 343.524 290.199 343.127 290.446C341.407 290.523 336.521 288.354 334.769 287.686C321.93 282.792 310.666 275.828 300.093 267.087C293.66 261.768 287.783 256.138 280.513 251.91C269.321 245.401 256.287 242.224 243.432 245.036C239.813 245.827 236.25 247.165 232.837 248.592C230.365 249.627 228.032 250.962 225.601 252.086C222.57 253.471 219.386 254.493 216.114 255.131C209.515 256.477 202.644 256.546 195.943 256.967C192.616 257.175 189.041 257.302 185.812 258.174C183.933 258.682 182.678 259.59 181.71 261.272L181.584 261.496C181.549 262.201 181.461 263.029 181.663 263.71C182.368 266.082 185.302 267.33 187.441 268.089C193.426 270.214 200.485 270.748 206.809 270.642C214.982 270.506 223.169 269.105 231.299 268.297C233.755 268.053 236.365 267.605 238.825 267.63C239.452 267.636 239.967 267.664 240.521 267.972C240.641 268.416 240.626 268.407 240.429 268.825C240.09 269.095 239.789 269.271 239.373 269.406C238.353 269.739 237.24 269.763 236.19 269.995C234.405 270.388 232.627 271.006 230.888 271.566C227.754 272.573 224.604 273.694 221.581 274.999C217.359 276.822 213.839 278.658 209.379 280.111C206.121 281.178 202.767 281.932 199.364 282.361C189.403 283.61 175.689 282.415 166.625 277.988C162.393 275.92 158.454 272.911 154.739 270.041C149.866 266.469 140.767 260.223 135.187 258.373C133.232 257.725 131.117 257.437 129.06 257.44C127.78 257.443 126.007 257.556 125.095 258.574C124.739 258.971 124.6 259.463 124.636 259.986C124.781 262.084 127.078 263.825 128.575 265.052C132.462 268.238 136.821 270.946 140.851 273.972C147.405 278.892 155.147 285.667 162.363 289.33C169.085 292.742 176.869 294.068 184.158 295.737C192.172 297.571 200.376 299.553 208.569 300.298C212.57 300.665 216.6 300.595 220.586 300.091C233.09 298.531 245.062 293.796 257.628 292.594C261.907 292.185 266.128 292.396 270.281 293.552C283.778 297.307 301.076 311.692 312.681 320.112C315.794 322.36 318.952 324.547 322.15 326.672C324.241 328.031 326.629 329.301 328.548 330.875C328.695 331.351 328.677 331.403 328.536 331.884C327.435 332.734 326.516 331.904 325.509 331.29C316.535 325.815 308.094 319.425 299.648 313.182C292.692 308.04 285.632 302.777 277.908 298.821C273.967 296.803 269.702 295.181 265.283 294.646C259.196 293.911 253.026 295.082 247.09 296.359C234.782 299.007 222.205 303.382 209.485 302.438C201.811 301.869 194.173 299.962 186.671 298.328C178.315 296.508 168.95 295.197 161.337 291.166C154.221 287.398 146.453 280.796 139.807 275.977C135.245 272.669 127.794 267.988 124.354 263.948C123.267 262.672 122.38 261.026 122.574 259.299C122.691 258.257 123.21 257.198 124.043 256.544C126.089 254.94 129.473 255.187 131.904 255.528C130.366 254.144 128.834 252.647 128.266 250.584C127.88 249.166 128.083 247.653 128.83 246.386C129.636 244.996 131.059 244.09 132.597 243.7C136.968 242.592 141.277 245.403 144.827 247.576C144.484 246.906 144.167 246.206 143.955 245.483C143.614 244.317 143.591 242.915 144.261 241.858C144.978 240.728 146.16 240.313 147.401 240.016Z" fill="white"/>
<path d="M147.235 242.182C154.407 241.797 165.787 252.501 171.279 256.698C173.772 258.627 176.407 260.368 179.161 261.903C179.196 262.329 179.235 262.754 179.301 263.176C179.619 265.208 181.328 267.222 182.968 268.418C191.298 274.494 215.457 272.699 225.441 271.089C222.365 272.435 219.415 274.055 216.346 275.403C210.987 277.755 204.916 279.451 199.121 280.228C189.878 281.469 176.445 280.295 167.962 276.238C163.793 274.244 160.065 271.398 156.403 268.615C153.417 266.431 150.462 264.248 147.284 262.345C142.347 259.388 134.683 256.714 131.324 252.069C130.596 251.062 130.003 249.905 130.263 248.63C130.454 247.695 131.11 246.831 131.903 246.314C135.933 243.688 145.261 249.635 148.733 252.095C150.78 253.545 152.692 255.212 154.688 256.735C156.982 258.486 159.312 260.202 161.558 262.015C164.246 264.184 166.857 266.46 169.719 268.403C172.79 270.487 176.368 272.442 180.021 273.258C180.785 273.429 181.428 273.573 182.11 273.056C182.484 272.772 182.521 272.433 182.558 272.005C181.778 270.913 179.73 270.928 178.49 270.564C175.79 269.772 172.893 268.008 170.554 266.465C167.477 264.436 164.6 261.947 161.68 259.69C157.526 256.479 153.093 253.369 149.344 249.688C148.225 248.589 147.167 247.361 146.444 245.96C146.048 245.193 145.6 244.02 145.975 243.161C146.228 242.583 146.709 242.446 147.235 242.182Z" fill="#8CA3DE"/>
<path d="M21.3898 25.5186C24.2045 25.729 27.4383 27.0532 30.1657 27.8716C37.1825 29.9774 43.7091 32.5808 50.2047 35.9787C62.1611 42.2334 75.7517 52.1445 89.049 54.2381C97.4296 55.5578 105.325 54.2976 113.54 52.6872C129.942 49.4721 146.713 43.6546 163.59 45.1371C170.243 45.7216 176.998 46.6199 183.549 47.9468C186.251 48.4941 188.889 49.208 191.569 49.8274C197.634 51.2292 203.55 52.5639 209.148 55.4136C218.14 59.9904 226.127 66.3398 234.262 72.2413C238.412 75.2517 246.284 79.9143 249.282 83.5437C250.326 84.8075 251.116 86.433 250.903 88.1101C250.771 89.1422 250.25 90.2819 249.357 90.874C246.756 92.5979 242.258 91.9068 239.445 91.2138C239.972 91.9842 240.504 92.8066 240.769 93.7075C241.133 94.946 241.117 96.2814 240.482 97.4302C239.817 98.6327 238.65 99.3664 237.336 99.694C233.103 100.749 228.783 98.4385 225.274 96.36C225.179 96.7766 225.081 97.2086 224.898 97.5971C224.385 98.6846 223.139 99.5037 222.017 99.8453C214.098 102.258 199.559 92.2898 192.808 88.6665C190.596 87.4795 188.098 86.0323 185.552 85.8035C184.121 85.6752 182.301 86.3152 180.843 86.535C178.902 86.8186 176.955 87.0604 175.003 87.26C165.17 88.3389 155.646 89.4214 146.372 93.0754C142.293 94.6826 138.368 96.7485 134.367 98.5437C130.25 100.349 126.024 101.896 121.714 103.175C104.206 108.402 86.1746 104.47 70.5974 95.6411C64.0985 91.9572 58.0629 87.5148 51.5872 83.7819C47.0081 81.1423 42.2714 78.8822 37.4751 76.6697C35.223 75.6308 32.7168 74.7339 30.5699 73.5094C29.9007 73.1278 29.3165 72.7357 29.12 71.9725L29.3381 71.7354C31.8132 71.028 34.7941 73.0806 37.0372 74.0723C44.0271 77.1619 50.8244 80.5283 57.3504 84.5124C62.6539 87.7505 67.6872 91.3544 73.1079 94.4184C76.8212 96.5521 80.7131 98.3614 84.7394 99.8255C101.794 105.997 117.403 103.77 133.673 96.5827C139.916 93.8246 145.74 90.6686 152.338 88.7685C157.173 87.406 162.115 86.4554 167.111 85.926C172.401 85.3318 177.782 85.0172 183.016 84.0234C185.116 83.6248 188.163 83.0144 189.392 81.0912C190.005 80.1305 190.345 79.0354 190.059 77.9042C189.274 74.798 185.192 73.9501 182.513 73.3346C175.064 71.6229 166.156 71.2853 158.568 72.0453C153.426 72.5602 148.22 73.6323 143.164 74.6885C136.854 76.0059 130.529 78.0296 124.17 78.9943C122.067 79.3136 119.956 79.3698 117.836 79.4617C116.872 79.5035 115.496 79.7373 114.647 79.2447C114.391 78.8307 114.391 78.8058 114.429 78.3201C114.685 77.9554 114.92 77.7796 115.328 77.616C117.339 76.8098 120.193 77.3821 122.368 77.1396C126.342 76.6963 130.423 75.5036 134.328 74.6268C140.366 73.2715 146.219 70.7725 152.182 69.0861C156.504 67.8641 161.033 66.466 165.459 65.7416C172.347 64.6141 187.279 64.5143 194.144 65.6105C197.135 66.0649 200.052 66.916 202.816 68.1416C214.715 73.4031 224.821 83.2547 236.942 88.131C239.911 89.3249 244.646 90.6214 247.729 89.1955C248.246 88.9569 248.651 88.5717 248.783 87.9988C249.005 87.0334 248.394 85.9271 247.845 85.1794C245.493 81.9755 239.483 78.6062 236.116 76.2127C232.933 73.9079 229.77 71.575 226.628 69.2144C220.89 64.9464 214.962 60.5519 208.483 57.4582C195.361 51.1935 167.231 46.0391 152.797 47.1079C143.635 47.7864 134.495 50.0952 125.559 52.1333C114.332 54.6943 100.207 58.3281 88.7725 56.3249C70.1609 53.0645 55.4635 39.4371 38.123 32.7608C35.069 31.5765 31.9669 30.5192 28.8248 29.5916C26.6769 28.9688 24.3469 28.4951 22.2673 27.6842C21.7903 27.4981 21.4344 27.3698 21.1305 26.9371C21.0091 26.3737 21.1827 26.0286 21.3898 25.5186Z" fill="white"/>
<path d="M180.26 67.1075C186.733 66.9482 194.101 67.034 200.171 69.4804C208.482 72.8295 215.746 78.3998 223.361 83.0379C226.976 85.2396 231.801 87.6032 235.025 90.0284C236.462 91.1091 237.995 92.4215 238.677 94.1158C238.959 94.8174 239.226 95.6945 238.844 96.4123C238.479 97.0985 237.546 97.3918 236.837 97.5428C231.881 98.6004 226.719 94.7713 222.77 92.2643C212.152 85.5178 204.809 77.5465 191.657 75.3639C191.247 74.9685 190.84 74.5704 190.414 74.1924C185.897 70.1849 171.172 69.4642 165.042 69.4908C162.635 69.5013 160.227 69.7175 157.826 69.8649C165.196 67.479 172.602 67.2505 180.26 67.1075Z" fill="#8CA3DE"/>
<path d="M192.185 77.563C194.378 78.1277 196.545 78.7529 198.656 79.5784C200.469 80.2876 202.286 81.0869 203.979 82.0479C207.089 83.8136 222.151 93.7666 223.023 96.1636C223.135 96.471 223.045 96.4901 222.914 96.765C221.979 97.5157 220.826 97.7549 219.674 97.9708C212.22 98.4767 196.358 87.8928 188.879 84.3632C189.578 83.889 190.284 83.4245 190.852 82.7913C192.264 81.2188 192.293 79.55 192.185 77.563Z" fill="#8CA3DE"/>
</svg>
