<svg width="435" height="382" viewBox="0 0 435 382" fill="none" xmlns="http://www.w3.org/2000/svg">
<g clip-path="url(#clip0_368_13498)">
<path d="M170.753 78.9145C175.681 80.3646 180.51 84.3981 184.599 87.62C191.087 92.7374 198.976 99.3594 202.26 107.11C204.183 111.648 204.615 116.657 206.468 121.21C217.463 128.129 232.104 135.963 230.255 151.296C229.803 155.037 226.127 158.551 226.028 159.244C225.874 160.333 227.687 166.074 227.846 168.143C229.133 184.702 228.03 203.737 228.303 220.589C228.387 225.815 228.815 231.096 228.8 236.411C228.795 238.495 229.262 240.786 228.825 243.068L226.177 243.083C225.486 242.924 225.367 240.969 225.332 240.366C225.079 236.416 225.913 231.299 225.869 226.973C225.854 225.805 225.347 224.721 225.332 223.553C225.168 212.418 225.118 201.287 224.855 190.161C217.15 192.181 211.496 185.687 208.744 179.263C205.748 172.265 204.824 164.074 203.418 156.631C179.02 144.614 155.873 129.049 129.071 122.66C105.149 116.959 80.8901 117.038 62.2946 98.7012C45.741 82.3838 34.538 65.136 14.8594 51.026C10.8651 48.1654 5.24122 45.5226 1.77847 42.3007C0.148938 40.7862 -1.21232 39.5588 1.74866 38.376C16.8963 46.8687 30.2456 58.7417 42.2236 71.2284C55.3642 84.9227 65.8766 101.874 84.2684 108.951C98.4126 114.39 114.792 115.711 129.572 119.196C157.195 125.709 180.346 142.585 205.822 153.988C211.63 156.586 220.006 160.57 225.113 154.557C231.905 146.554 223.086 136.216 216.588 131.4C194.028 114.667 163.43 109.495 146.826 85.1949C144.859 82.3195 142.484 79.0728 142.966 75.4451C143.826 75.3758 144.496 75.3758 145.237 75.9054C146.513 76.821 149.867 84.997 151.492 86.7341L152.127 86.8628C161.656 84.992 165.819 74.7473 174.598 71.6145C191.321 65.6458 199.741 82.8886 211.302 90.6835C220.95 97.1867 225.104 96.2464 228.492 109.159C232.789 125.54 234.001 162.674 245.925 174.359C248.97 177.343 257.063 182.569 259.711 176.675C261.902 171.8 258.002 156.789 257.182 150.776C255.126 135.647 254.202 119.398 251.509 104.516C248.826 89.6789 242.691 82.6164 233.981 71.0503C226.465 61.0629 217.557 48.9721 209.226 39.8409C192.215 21.2124 181.31 27.9283 159.028 30.393C126.85 33.9465 99.9477 36.9457 70.6609 20.6531C64.5402 17.2481 49.7105 8.17135 45.1647 3.52904C42.6956 1.00993 43.8482 -1.01427 47.1867 0.529861C52.9199 3.17271 60.988 10.7746 66.8653 14.5409C96.2465 33.3724 122.1 31.3383 155.555 27.4285C177.44 24.8698 193.233 16.674 210.219 35.3917C221.586 47.918 236.282 67.086 245.607 81.2257C257.649 99.4782 257.396 127.094 260.163 148.801C261.082 156.022 264.883 171.577 262.831 177.803C260.352 185.316 251.638 183.114 246.725 179.491C231.289 168.123 229.972 130.851 226.003 113.113C222.575 97.8103 217.791 100.057 207.03 91.9654C197.416 84.7396 188.543 67.9472 173.878 75.8361C173.286 76.1528 170.167 78.2612 170.753 78.8996V78.9145ZM202.022 118.468C200.447 106.412 193.114 99.2505 184.39 91.7872C181.673 89.4611 172.442 81.7008 169.734 80.6417C169.198 80.4339 168.82 80.2359 168.284 80.6269C164.329 84.0616 160.533 88.1842 155.367 89.8026C154.91 90.4361 159.545 94.8111 160.325 95.4892C169.451 103.418 188.906 112.905 200.258 118.003C200.854 118.27 201.252 118.666 202.017 118.468H202.022ZM224.786 186.138L224.135 160.966C223.539 160.041 219.385 161.506 217.741 161.446C213.751 161.298 209.712 159.249 205.996 158.027C208.52 165.564 209.151 173.755 213.22 180.738C217.035 183.173 219.544 188.578 224.786 186.138Z" fill="white"/>
<path d="M277.482 210.458C276.24 217.288 273.811 223.925 271.515 230.472C262.106 257.302 250.466 283.344 240.644 309.99C240.455 310.505 239.913 310.485 240.738 311.049C242.497 312.252 252.796 314.296 255.444 314.697C270.805 317.028 286.564 315.355 301.279 310.549L332.345 232.699C327.928 227.696 328.584 218.184 336.274 217.357C350.264 215.857 348.386 237.258 335.042 233.669L305.264 309.317C330.139 300.8 353.3 286.828 379.964 284.111C395.111 282.567 411.392 283.745 425.754 288.917C428.204 289.798 438.199 292.797 433.977 295.925C423.474 292.144 413.036 288.179 401.788 287.081C365.71 283.552 336.384 302.012 303.778 313.534C300.738 319.824 298.398 326.496 295.263 332.737C294.756 333.746 293.539 336.73 292.535 336.919L290.936 336.443C290.727 335.632 290.797 334.726 290.98 333.914C291.86 330.109 296.187 323.195 297.901 319.052C298.184 318.364 299.65 315.132 299.297 314.766C279.911 320.611 258.226 321.413 239.253 313.776C237.216 318.73 235.74 324.254 233.51 329.099C232.73 330.792 232.287 330.356 231.036 329.094C230.072 327.055 235.691 315.226 236.272 312.297C230.092 310.822 224.045 306.907 218.948 303.096C188.807 280.553 170.773 246.166 126.487 255.589C82.2018 265.012 51.3451 302.606 6.71186 301.948C5.84245 301.933 1.6792 301.364 1.48544 300.592L1.5699 298.513C3.22924 297.642 4.978 298.573 6.71186 298.483C49.0747 296.311 72.9314 270.828 110.44 256.906C144.333 244.33 163.644 249.779 190.118 272.481C205.375 285.566 218.188 302.854 237.752 309.817L275.286 209.968L275.251 209.428C265.926 204.158 272.509 190.607 282.594 195.18C290.752 198.877 287.105 212.368 277.477 210.453L277.482 210.458ZM275.629 198.723C271.689 202.376 276.722 209.25 281.412 206.212C287.115 202.519 280.463 194.245 275.629 198.723ZM335.882 220.925C331.202 222.311 332.419 231.853 339.131 230.091C344.506 228.681 342.827 218.862 335.882 220.925Z" fill="white"/>
<path d="M10.4379 369.642C47.6985 367.816 75.4254 338.601 109.084 326.753C175.209 303.477 201.073 384.955 260.774 377.986C306.665 372.631 333.353 310.906 386.492 334.454C399.071 340.026 419.475 355.963 428.099 366.673C429.207 368.048 430.688 369.657 429.366 371.409L427.354 371.374C413.379 356.448 395.767 339.423 375.343 334.186C331.416 322.932 303.634 376.076 263.254 381.451C223.037 386.801 195.087 351.79 163.147 334.459C122.21 312.252 97.4588 336.478 63.0648 355.072C47.1123 363.698 29.6346 371.963 11.2278 373.052C10.11 372.785 10.4628 370.582 10.4429 369.647L10.4379 369.642Z" fill="white"/>
</g>
<defs>
<clipPath id="clip0_368_13498">
<rect width="435" height="382" fill="white"/>
</clipPath>
</defs>
</svg>
