<svg width="436" height="420" viewBox="0 0 436 420" fill="none" xmlns="http://www.w3.org/2000/svg">
<g clip-path="url(#clip0_469_3855)">
<path d="M243.216 339.075C253.022 341.778 263.8 341.593 273.823 340.109L283.396 338.542C302.829 335.111 320.824 327.667 338.248 318.711C349.949 312.697 361.683 303.502 375.431 303.507C381.349 303.507 387.175 304.562 389.282 310.815C398.295 307.363 412.261 301.751 420.943 308.195C427.356 312.953 426.813 320.979 420.78 325.769C423.49 326.966 425.868 327.286 428.534 328.869C433.692 331.93 438.454 338.02 434.588 343.958C433.318 345.911 429.886 347.955 427.839 349.162C413.428 357.64 395.005 364.622 379.688 372.175C354.662 384.502 330.271 399.701 302.954 406.259C290.938 409.146 278.645 411.218 266.564 413.86C248.722 417.765 238.791 423.251 219.987 417.558C194.761 409.918 169.328 397.694 144.133 389.119C114.123 378.901 97.2582 379.331 67.0089 388.575C48.5586 394.214 30.043 401.549 12.5918 409.717L11.3592 409.554L10.5284 407.553C10.6642 406.509 12.6352 405.66 13.5474 405.182C32.2041 395.443 75.7617 380.315 96.346 378.26C142.608 373.638 189.461 409.048 234.262 416.857C256.747 412.871 279.487 408.238 301.76 402.898C333.698 395.242 367.378 374.404 397.226 359.842C406.467 355.334 417.24 351.424 426.02 346.264C431.173 343.235 435.582 340.152 430.282 334.198C419.705 322.322 388.571 335.938 376.419 341.18C351.947 351.74 328.621 366.797 301.341 369.037C300.956 373.186 302.346 377.281 299.919 380.935C296.509 386.063 289.021 387.721 283.26 386.813C268.182 382.594 252.897 380.587 238.041 375.541C223.408 370.571 209.296 363.79 193.523 362.485C191.204 362.294 186.719 362.974 184.922 362.398C183.315 361.881 184.091 359.217 184.84 359.217C188.907 359.217 193.968 358.82 197.872 359.217C213.602 360.821 231.194 370.353 246.468 374.714C259.196 378.347 272.558 380.016 285.297 383.681C303.817 383.507 300.94 368.303 289.619 359.233C272.167 345.247 243.829 346.172 223.37 333.137C201.173 318.994 189.733 306.59 161.856 301.756C108.101 292.431 62.7302 336.781 9.01896 328.662C7.90043 328.2 7.17284 327.259 7.79726 326.052C8.96466 323.79 14.8668 325.927 17.0605 326.052C68.5618 328.934 111.674 288.069 164.479 298.591C174.198 300.527 183.858 303.638 192.442 308.651L193.865 301.658C200.809 300.777 193.718 307.591 195.928 310.598L210.355 320.06L217.685 303.219C211.636 303.692 204.138 301.348 198.855 298.417C190.151 293.583 197.177 287.259 199.484 280.913C201.597 275.111 200.76 271.533 201.39 265.965C202.493 256.204 212.331 263.659 218.217 264.883C221.524 265.574 232.069 265.96 233.714 267.308C239.247 271.843 229.983 284.328 227.898 289.249C225.091 295.878 224.076 298.369 220.503 304.682C219.053 307.248 213.569 319.217 213.862 321.397C213.982 322.256 214.433 322.534 214.943 323.088C218.228 326.661 230.543 334.04 235.229 335.943M205.256 264.644C204.132 269.228 205.083 273.458 203.861 278.205C203.052 281.338 197.687 290.99 198.23 293.023C198.979 295.835 212.174 300.527 215.253 300.527C222.387 300.527 221.893 294.198 224.114 289.244C225.824 285.432 233.372 274.317 232.291 270.951C231.683 269.059 222.262 269.201 219.748 268.798C214.433 267.955 210.306 265.568 205.262 264.644H205.256ZM386.019 312.441C385.677 309.364 383.043 307.618 380.187 307.14C363.86 304.41 341.864 321.267 327.03 328.14C307.673 337.112 286.632 343.219 265.201 343.986C264.544 344.007 263.181 343.578 263.311 344.524C267.72 345.709 272.195 346.851 276.473 348.477C279.481 349.619 287.072 354.23 288.755 354.584C289.988 354.845 295.939 353.953 297.709 353.703C330.478 349.07 356.144 324.665 386.019 312.447V312.441ZM292.627 357.585L300.055 366.204C337.547 362.496 368.133 336.395 403.932 327.401C409.665 325.96 417.712 326.476 421.22 320.783C424.51 315.438 419.835 309.695 414.395 308.771C402.873 306.808 381.208 318.102 370.805 323.583C345.752 336.775 322.034 355.992 292.627 357.585Z" fill="white"/>
<path d="M291.004 107.445L308.466 137.532C318.848 153.024 308.477 163.627 292.796 153.753C287.078 158.32 282.083 158.44 275.622 155.199C272.418 153.595 269.671 150.648 266.57 149.315C264.458 156.966 254.782 155.319 249.043 152.991C236.272 147.804 230.804 133.339 220.14 125.476C206.859 133.975 189.418 126.531 175.002 124.911C145.486 121.594 114.243 132.638 86.4643 118.962C67.3243 109.538 55.4277 92.8226 40.1429 78.8911C28.42 68.2005 13.7813 59.6252 2.41675 49.2445C-2.52435 44.7366 0.890982 43.6056 5.56602 46.6344C14.6446 52.5235 27.0299 62.8171 35.5113 69.9352C60.2548 90.7073 77.3423 119.859 113.146 122.148C134.903 123.535 156.318 118.744 178.26 121.648C188.761 123.035 209.671 129.495 218.517 122.138C222.616 118.723 222.35 112.344 219.32 108.26C211.849 98.1897 182.561 96.0853 170.354 93.6763C167.368 93.0891 153.234 90.2506 151.681 88.9945C146.898 85.1228 159.989 84.3234 161.862 83.8884C185.992 78.2821 201.141 64.1603 228.122 71.1641C242.913 75.0031 271.973 86.591 283.641 96.0418C295.31 105.493 313.891 126.297 326.83 131.093C332.075 133.035 339.563 133.345 338.732 125.721C338.091 119.87 324.31 107.428 320.032 102.562C307.239 88.0211 300.278 77.722 283.669 66.6562C273.927 60.1635 263.443 53.5839 253.474 47.412C239.209 38.5811 227.465 29.1521 209.785 30.2124C175.898 32.2461 137.222 47.2869 103.541 38.2385C86.2797 33.6001 67.7424 19.8535 54.7816 7.6784C53.082 6.05795 45.7627 -0.141077 51.5726 0.0003046C63.8764 9.84806 76.1423 21.9905 90.2706 29.2391C127.318 48.2494 173.194 28.5213 212.001 26.4223C230.712 25.4109 253.24 43.4425 268.78 53.2902C277.446 58.7823 287.008 63.5295 295.055 69.9352C303.927 76.9988 310.383 86.5312 317.865 94.9433C323.681 101.48 341.729 118.168 342.071 126.194C342.267 130.816 339.362 135.03 334.66 135.667C328.111 136.553 321.997 132.66 316.888 129.092C307.798 122.741 299.556 114.497 290.999 107.445H291.004ZM204.394 82.9749C202.091 82.5018 196.803 82.9749 194.077 82.9749C193.708 82.9749 192.931 81.7514 193.339 81.1587L195.174 79.7231C209.367 78.8476 224.012 77.8579 236.657 85.4599C257.394 97.9232 265.256 114.09 278.608 132.627C283.668 139.658 294.409 154.476 303.764 154.242C317.181 153.905 302.765 135.411 300.132 130.642C294.056 119.636 287.567 103.209 277.381 95.7862C268.357 89.2065 231.103 74.4702 220.124 73.1924C199.474 70.778 182.208 82.9857 162.85 87.3251C162.698 88.7226 162.85 88.1897 163.643 88.4235C179.281 93.0184 215.025 92.4583 223.561 107.814C226.509 113.116 226.173 117.825 223.208 123.035L223.365 123.736C233.356 132.045 238.802 145.726 251.752 150.272C256.818 152.051 265.522 153.105 262.894 145.096C248.532 131.159 241.474 110.653 226.325 97.9776C222.844 95.063 207.891 83.6818 204.388 82.9694L204.394 82.9749ZM220.683 82.9749C218.213 82.7247 215.107 82.9749 212.538 82.9749C212.359 82.9749 209.666 81.5121 211.186 83.2413C222.6 89.8536 232.933 97.8743 240.621 108.685C249.027 120.501 267.634 154.264 283.669 154.204C284.575 154.204 287.725 153.432 288.295 152.866C290.966 150.234 285.732 146.76 284.201 144.971C274.965 134.182 268.454 121.545 259.783 110.696C251.611 100.479 234.04 84.3234 220.683 82.9694V82.9749Z" fill="white"/>
<path d="M197.057 175.416C196.443 184.981 208.698 175.585 212.602 173.85C225.254 168.222 224.249 177.374 227.599 185.889C230.227 192.572 236.678 201.436 233.018 208.972C230.618 213.915 219.721 216.101 214.731 216.226C211.321 216.313 208.058 214.954 204.675 215.378C208.345 219.337 213.716 220.783 218.993 220.473C223.674 220.201 231.52 216.971 235.63 218.635C240.571 220.631 239.111 231.675 239.398 236.069C239.74 241.273 240.978 248.45 240.528 253.469C240.158 257.624 237.954 260.702 233.67 261.283C228.973 261.925 212.993 259.717 209.29 256.977C204.816 253.665 207.542 251.05 207.922 246.917C208.4 241.756 207.254 237.167 205.207 232.518L202.775 247.2C200.174 256.275 196.557 260.479 186.529 259.108C179.856 258.2 178.672 250.892 179.128 245.264C180.35 230.234 203.084 227.156 200.195 210.076C199.001 203.029 191.437 204.231 186.382 206.313C181.653 208.265 178.987 212.866 173.144 211.06C167.997 209.467 166.395 196.237 170.435 193.061C176.359 188.396 188.983 194.791 193.028 186.868C195.515 181.996 194.548 171.92 188.679 169.951C178.851 166.656 171.249 177.781 164.207 175.449C159.494 173.888 157.295 165.547 158.104 161.131C159.293 154.649 165.287 157.597 169.664 157.499C178.422 157.308 185.562 151.131 183.461 142.001C182.972 139.886 181.099 138.162 182.923 135.954C184.824 134.644 188.5 139.668 191.079 140.359C196.025 141.675 199.511 138.771 204.078 137.847C203.437 135.171 205.419 132.235 206.7 135.59C208.628 140.636 209.013 146.498 211.636 151.854C216.132 161.05 224.743 163.932 210.838 170.984C206.787 173.04 201.634 175.389 197.068 175.411L197.057 175.416ZM187.908 144.492C186.871 150.593 185.095 154.905 179.644 158.238C173.704 161.871 169.805 160.446 163.501 160.294C159.217 160.19 162.111 170.152 164.169 171.648C167.606 174.144 172.091 169.554 174.974 168.244C179.85 166.025 187.615 164.84 192.36 167.885C195.651 170 194.576 172.724 199.457 172.099C201.189 171.876 213.135 166.487 213.933 165.394C215.817 162.822 211.989 159.391 210.74 157.091C207.9 151.865 206.391 147.064 204.686 141.392C203.714 140.723 197.003 143.333 195.01 143.725C192.827 144.154 190.15 144.138 187.908 144.492ZM197.654 182.534C196.932 188.45 193.989 193.725 187.56 194.448C183.901 194.861 174.779 193.301 172.368 196.09C170.554 198.195 171.863 206.596 174.257 207.787C176.375 208.842 183.586 203.491 186.447 202.572C191.312 201.011 196.628 200.963 201.048 203.774C204.979 206.275 204.311 210.348 205.196 211.039C207.786 213.067 217.652 212.224 220.975 211.588C238.562 208.227 228.061 197.21 224.342 186.971C223.272 184.029 222.414 175.753 219.042 175.405C215.133 174.997 203.524 184.562 197.654 182.534ZM205.207 221.093C203.958 226.466 207.64 229.228 209.269 233.605C210.208 236.123 211.06 239.875 211.196 242.55C211.457 247.7 208.145 253.301 214.188 255.329C217.815 256.547 228.854 258.429 232.383 257.825C240.061 256.514 236.835 248.211 236.673 242.594C236.575 239.103 237.074 224.41 235.06 222.458C232.589 220.071 224.879 223.415 221.708 223.752C215.551 224.405 210.805 223.431 205.207 221.093ZM201.406 222.724C194.527 232.099 180.198 236.525 182.646 250.484C183.89 257.586 192.92 257.618 196.802 252.643C198.789 250.098 201.406 241.914 201.406 238.766V222.724Z" fill="white"/>
</g>
<defs>
<clipPath id="clip0_469_3855">
<rect width="436" height="420" fill="white"/>
</clipPath>
</defs>
</svg>
