<svg width="355" height="435" viewBox="0 0 355 435" fill="none" xmlns="http://www.w3.org/2000/svg">
<g clip-path="url(#clip0_469_5046)">
<path d="M160.174 113.209C169.185 114.576 164.35 123.292 163.93 128.965C163.836 130.257 163.817 131.914 163.907 133.201C164.354 139.8 171.367 150.784 160.627 152.207L161.098 155.96C172.036 156.758 164.821 167.362 164.373 173.552C164.255 175.186 164.279 177.52 164.453 179.15C165.127 185.523 172.069 194.577 161.122 196.371L161.56 200.354C165.938 201.03 167.008 203.171 166.739 207.379C166.64 208.92 164.83 213.381 165.994 214.227C170.438 216.011 174.034 211.005 178.643 211.949C185.165 213.287 186.31 222.511 181.583 226.409C176.362 230.715 169.034 223.723 166.244 225.671C164.788 226.686 166.593 230.823 166.748 232.27C167.271 237.135 165.848 239.624 161.07 240.78L161.122 244.231C171.616 244.917 165.254 255.897 164.844 262.312C164.746 263.852 164.75 265.961 164.873 267.492C165.429 274.424 172.022 283.892 160.622 285.117L161.145 288.353C170.957 289.955 166.206 297.995 165.382 304.18C164.991 307.134 165.005 312.863 165.339 315.864C166.004 321.871 170.085 329.352 160.674 330.239L161.183 334.804C171.466 336.382 165.203 346.752 164.844 353.42C164.543 359.07 166.225 362.987 166.687 368.054C167.639 378.489 157.286 374.77 150.971 374.342C142.286 373.755 136.178 374.948 127.898 375.272C113.973 375.817 120.075 367.134 120.598 358.6C120.697 356.994 120.702 355.031 120.622 353.42C120.283 346.709 114.166 335.584 124.821 334.87L124.868 330.465C115.537 329.065 120.207 319.316 120.598 313.051C120.712 311.201 120.74 308.773 120.622 306.932C120.344 302.555 116.965 294.346 119.189 290.983C121.159 288.001 125.302 289.842 124.882 285.812C124.75 284.558 121.744 284.596 120.438 283.638C116.753 280.942 119.92 273.55 120.476 269.723C121.084 265.543 121.221 262.425 120.476 258.24C119.397 252.135 114.873 245.603 124.793 244.217C124.929 243.86 124.877 243.475 124.868 243.099C124.783 239.281 123.209 241.104 120.834 239.568C116.795 236.957 119.458 231.941 119.995 228.391C120.73 223.511 121.206 220.008 120.476 215.039C119.609 209.136 114.953 201.866 124.284 200.504L124.868 196.625C114.882 194.821 120.909 185.884 121.484 179.629C121.616 178.192 121.659 176.412 121.56 174.975C121.103 168.25 113.501 156.251 125.311 155.974L125.778 152.217C115.646 151.733 121.093 141.532 121.56 135.559C121.72 133.525 121.682 130.553 121.536 128.505C121.089 122.137 116.791 113.918 126.696 112.744C127.243 108.503 126.287 109.809 124.039 108.635C117.022 104.958 122.432 96.3728 122.502 90.4367C122.582 83.5002 116.395 73.0698 127.978 72.4498C133.327 72.1634 139.35 74.7041 145.782 74.2485C150.452 73.9198 163.765 69.8857 165.217 76.9442C166.013 80.814 163.011 86.1865 163.454 91.39C164.034 98.2044 170.98 107.137 159.882 109.461L160.17 113.218L160.174 113.209ZM126.607 75.7419C122.559 76.592 125.16 82.4295 125.316 85.2848C125.457 87.9476 125.537 91.592 125.339 94.2172C125.127 96.988 123.256 101.853 124.265 104.178C125.763 107.639 131.626 105.737 134.477 105.681C140.806 105.559 147.092 106.014 153.336 106.169C157.648 106.277 163.04 107.48 162.465 101.764C161.923 96.401 159.689 93.0103 160.221 86.7454C160.613 82.1242 164.92 75.493 157.102 75.6105C152.677 75.6762 147.158 77.5688 142.507 77.5641L126.612 75.7373L126.607 75.7419ZM130.024 113.228C137.073 114.115 143.883 114.313 150.971 113.693C152.762 113.538 154.599 113.078 156.418 113.021C158.36 109.147 154.854 109.255 151.913 109.006C145.792 108.485 139.218 108.541 133.096 109.006C132.078 109.086 131.089 109.522 130.052 109.494L130.024 113.228ZM126.126 116.144C125.448 116.295 124.844 116.717 124.345 117.182C123.087 118.953 124.755 126.763 124.873 129.407C125.146 135.521 123.643 139.931 123.417 145.383C123.242 149.493 125.391 149.042 128.874 148.934C134.896 148.746 140.551 147.718 146.762 147.957C150.042 148.084 160.759 150.169 162.733 147.957C164.307 146.191 161.649 139.739 161.23 137.282C160.005 130.064 161.909 126.476 162.069 120.047C162.238 113.247 153.157 116.816 148.647 117.004C144.632 117.173 139.915 117.149 135.895 117.004C133.19 116.9 128.582 115.599 126.126 116.149V116.144ZM157.804 152.207C148.153 151.193 138.27 150.512 128.666 152.254C128.633 153.339 128.148 155.978 129.383 156.368C129.892 156.528 133.572 156.838 134.5 156.899C137.333 157.082 156.805 157.068 157.766 155.931L157.804 152.212V152.207ZM123.077 159.829C121.211 161.713 124.614 170.65 124.868 173.557C125.047 175.623 125.005 178.957 124.793 181.028C124.185 187.058 118.671 193.417 127.931 193.079C135.075 192.816 141.649 191.797 149.114 192.102C152.083 192.224 163.77 195.235 163.784 190.571C163.794 187.35 161.352 182.268 161.084 178.286C160.961 176.487 160.99 174.022 161.164 172.223C161.433 169.461 164.764 161.229 162.795 159.67L123.077 159.825V159.829ZM157.78 196.371C148.021 194.638 137.922 194.446 128.214 196.418C128.445 197.959 126.828 200.297 128.855 200.574C135.132 200.725 141.409 201.401 147.705 201.063C151.008 200.889 154.42 199.724 157.809 200.105L157.78 196.367V196.371ZM125.193 203.505C124.552 203.618 123.303 204.026 122.922 204.524C121.47 206.421 124.194 215.241 124.397 218.167C124.83 224.455 122.516 228.968 122.46 234.153C122.446 235.327 122.418 236.717 123.765 237.107C126.546 237.919 134.694 235.947 138.242 235.769C145.165 235.426 150.58 236.774 157.102 237.192C169.953 238.018 158.737 228.424 163.209 223.572C168.096 218.27 174.906 227.01 179.251 224.544C183.629 222.06 182.498 213.395 176.254 214.978C172.319 215.978 171.301 218.58 166.169 217.819C157.121 216.481 167.389 205.111 161.711 203.486C158.172 202.472 150.735 204.172 146.767 204.35C143.506 204.496 139.632 204.477 136.367 204.35C132.898 204.214 128.633 202.899 125.198 203.505H125.193ZM157.752 240.545C147.827 238.661 137.512 238.521 127.658 240.751C127.974 242.062 127.582 244.058 129.048 244.504C130.933 245.081 136.126 245.542 138.27 245.654C144.774 245.992 151.371 245.199 157.78 244.227L157.752 240.54V240.545ZM124.241 247.641C123.016 247.927 122.177 248.843 122.083 250.106C123.45 255.587 124.76 260.828 124.373 266.553C124.18 269.394 121.202 279.867 123.157 281.398C124.713 282.614 132.969 280.581 135.448 280.421C139.647 280.149 145.877 280.097 150.052 280.398C153.134 280.623 163.577 284.183 163.68 278.965C163.746 275.579 161.696 270.216 161.546 266.116C161.348 260.589 163.049 256.498 163.445 251.529C163.812 246.927 161.484 247.312 157.545 247.523C150.9 247.88 145.424 249.374 138.242 248.97C134.406 248.754 127.606 246.857 124.237 247.641H124.241ZM157.267 284.709C147.535 282.929 137.922 283.084 128.172 284.667C128.525 286.291 126.772 288.503 128.855 288.86C135.057 289.931 143.27 290.34 149.557 289.8C150.608 289.71 157.008 288.888 157.356 288.658C158.365 287.982 157.465 285.723 157.262 284.709H157.267ZM163.374 292.702C161.951 290.387 151.334 292.946 148.643 293.11C145.174 293.326 140.33 293.312 136.857 293.087C132.743 292.819 121.838 288.926 122.012 295.182C122.187 301.437 124.326 306.49 123.902 313.516C123.751 316.028 121.692 324.688 122.922 326.248C124.533 328.3 135.419 325.703 138.275 325.506C145.283 325.017 150.58 326.581 157.083 326.929C166.89 327.455 162.729 323.326 162.055 316.338C161.668 312.351 161.668 307.707 162.106 303.724C162.512 300.056 164.029 296.468 163.379 292.707L163.374 292.702ZM157.22 330.305C147.724 327.882 137.719 328.507 128.172 330.216L128.12 334.616C128.379 336.11 154.793 336.495 157.597 334.447L157.22 330.305ZM162.87 338.759C161.31 337.199 144.665 339.641 141.07 339.604C136.513 339.562 130.782 337.819 126.489 337.97C119.604 338.214 123.04 344.155 123.431 348.748C123.676 351.622 124.006 354.829 123.93 357.689C123.855 360.549 121.687 369.764 122.922 371.332C124.491 373.328 137.106 370.726 140.155 370.585C147.757 370.233 154.981 372.718 162.323 371.567C163.181 370.891 163.035 369.486 163.011 368.458C162.908 364.438 161.47 359.497 161.541 355.327C161.593 352.317 164.387 340.271 162.875 338.759H162.87Z" fill="white"/>
<path d="M199.557 2.43738C200.735 2.13682 201.64 3.3015 201.583 4.45209C201.494 6.34471 199.533 11.243 198.991 13.6569C193.261 39.2048 192.479 51.7392 217.276 65.4054C268.935 93.8745 334.043 83.7633 347.384 156.814C354.571 196.169 347.856 238.187 354.995 277.852C353.911 281.327 352.036 280.609 351.423 277.232C343.709 234.59 353.176 186.11 341.277 144.585C327.078 95.0579 272.823 92.7426 232.672 76.3384C216.305 69.6509 195.617 60.4039 192.285 41.0128C191.041 33.7805 195.052 11.1162 198.053 4.26424C198.336 3.62554 198.845 2.61584 199.552 2.43268L199.557 2.43738Z" fill="white"/>
<path d="M286.39 204.862L288.949 205.243C289.439 205.928 289.152 209.042 289.034 210.085C288.035 218.749 284.685 230.537 282.427 239.188C271.881 279.665 254.633 323.073 265.849 365.415C270.005 381.11 275.976 396.42 279.892 412.462C280.679 415.689 284.986 432.694 283.761 434.474C283.007 435.573 281.042 434.808 280.896 433.53C278.916 421.93 276.188 410.443 273.012 399.13C263.766 366.19 256.07 352.251 260.495 315.93C265.128 277.927 280.104 242.498 286.386 204.862H286.39Z" fill="white"/>
</g>
<defs>
<clipPath id="clip0_469_5046">
<rect width="355" height="435" fill="white"/>
</clipPath>
</defs>
</svg>
